<?xml version="1.0" encoding="UTF-8"?><svg id="Layer_2" xmlns="http://www.w3.org/2000/svg" viewBox="0 0 45.89 52.53"><defs><style>.cls-1{fill:#d5ecdb;}.cls-2{fill:#ed9f04;}.cls-3{fill:#ecc548;}.cls-4{fill:#becebb;}.cls-5{fill:#e9b53f;}.cls-6{fill:#fefaef;}.cls-7{fill:#060c14;}.cls-8{fill:#ece2cd;}.cls-9{fill:#f3b307;}</style></defs><g id="Layer_3"><path class="cls-4" d="M32.39,48.86c-.11,.11-.22,.22-.33,.33h-1.64v1.64h-4.91v-1.91c.62-.04,1.14-.08,1.58-.11v-4.52c-2.12,0-4.18,0-6.24,0-.24,0-.58,.13-.58-.32h9.82c.54-.06,.32-.48,.32-.74,.02-3.14,.01-6.27,.01-9.41v-6.55c0-1.67-.02-3.33,0-5,.01-.81,.13-1.62,.2-2.53h-.54v-2.62h1.96v25.22h10.15v1.64h-9.82v4.91Z"/><path class="cls-8" d="M1.94,17.09h-.33V5.3c.11-.11,.22-.22,.33-.33h1.31c.09-.04,.18-.07,.27-.11-.09-.07-.18-.15-.27-.22v-1.31h5.24V1.7H27.15v1.59c1.16,.12,2.23-.05,3.27,.11v1.9h-4.92v-1.57H8.46v1.61H3.63V13.45c.56,.04,1.08,.07,1.52,.1v1.39c-.39,.79-1.06,.35-1.58,.63,0,.41,.02,.84-.01,1.26,0,.09-.2,.17-.31,.26H1.94Z"/><path class="cls-7" d="M1.94,17.09h1.31c0,3.03,0,6.06,.01,9.08,0,.26-.23,.69,.32,.74,.24,1.29-.41,2.5-.33,3.77,.1,1.42,.29,2.84,.31,4.26,.05,2.99,.04,5.97,0,8.96-.01,.88,.2,1.77-.27,2.66-.17,.32-.19,.91,.15,1.37,.16,.22,.1,.6,.13,.91h-1.48s-.07-.07-.1-.11c-.03-.04-.05-.09-.05-.14,0-10.5,0-21.01,0-31.51Z"/><path class="cls-7" d="M44.18,15.13h1.47c.25,1.44,.33,21.53,.11,27.18h-1.58V15.13Z"/><path class="cls-7" d="M30.43,5.3v-1.9c-1.04-.17-2.11,0-3.27-.11V1.7h3.27c.15,.48,.3,1.01,.48,1.61h1.46v1.65h1.65v6.88h8.51v1.65h1.65v1.64h-1.96v-1.64h-10.15c0-2.65,0-5.3,0-7.94,0-.05-.03-.1-.06-.14-.03-.04-.08-.07-.12-.11h-1.46Z"/><path class="cls-7" d="M25.52,50.82h4.91v1.47c-1.43,.24-19.65,.33-25.22,.11v-1.58H25.52Z"/><path class="cls-7" d="M27.15,1.7H8.49V.23C9.9-.01,21.92-.09,27.15,.12V1.7Z"/><path class="cls-7" d="M32.39,48.86v-4.91h9.82v1.62c-2.8,.04-5.6,0-8.51,.02v3.27h-1.31Z"/><path class="cls-7" d="M1.61,5.3v11.79H.46c-.15-.15-.3-.31-.46-.47V5.3H1.61Z"/><path class="cls-7" d="M8.49,1.7v1.64H3.25c.05-.56-.22-1.2,.54-1.64h4.7Z"/><path class="cls-7" d="M42.22,43.95v-1.64h1.96c-.09,.54,.28,1.19-.66,1.64h-1.3Z"/><path class="cls-7" d="M30.43,50.82v-1.64h1.64v1.64h-1.64Z"/><path class="cls-7" d="M3.25,3.34v1.64H1.94v-1.64h1.31Z"/><path class="cls-4" d="M3.25,48.86h.33c.11,.11,.22,.22,.33,.33,.17,.44,.34,.88,.56,1.44,.29-.3,.52-.54,.75-.79v.98h-1.52c-.16-.71-.3-1.34-.44-1.96Z"/><path class="cls-4" d="M33.38,48.86h.33c-.07,.09-.15,.18-.22,.27-.04-.09-.07-.18-.11-.27Z"/><path class="cls-6" d="M3.58,26.92c-.54-.06-.32-.48-.32-.74-.02-3.03-.01-6.06-.01-9.08,.11-.09,.3-.17,.31-.26,.03-.42,.01-.85,.01-1.26,.51-.28,1.19,.16,1.58-.63v-1.39c-.44-.03-.96-.07-1.52-.1V5.34h4.83v-1.61H25.51v1.57h4.92c.03,.54-.14,1.1,.42,1.66h-1.99v1.64h1.57v8.49H5.21v9.5c-.11,.11-.22,.22-.33,.33h-1.31ZM25.49,7h-3.58c0,.59,0,1.13,0,1.66,0,.52,.03,1.04,.05,1.5h3.52v-3.17Zm-11.79,3.27h-3.14l-.41,.41v2.76h3.54v-3.16Zm-8.46-.11h3.16v-3.17h-3.16v3.17Zm12.97,3.38h-1.13v1.86h1.52v-1.44c-.16-.17-.31-.33-.4-.42Zm-1.26-6.63v-1.62c-.57,.03-1.08,.05-1.53,.07v1.56h1.53Zm8.62,4.97v1.58h1.01c.84-.41,.5-1.02,.58-1.58h-1.59Zm-6.93-3.28v1.13c.15,.14,.3,.29,.48,.45h1.1v-1.58h-1.58Z"/><path class="cls-1" d="M3.58,26.92h1.64v17.03H13.73c.09,.11,.17,.31,.26,.31,1.68,.02,3.37,.02,5.05,0,.09,0,.17-.2,.26-.31h.98c0,.45,.35,.32,.58,.32,2.06,0,4.12,0,6.24,0v4.52c-.44,.03-.96,.07-1.58,.11v1.91H5.87c-.04-.21-.07-.41-.11-.62-.07,0-.14,.01-.22,.02v.6h-.33v-1.64h-1.31c-.11-.11-.22-.22-.33-.33-.04-.31,.03-.7-.13-.91-.34-.46-.32-1.05-.15-1.37,.48-.88,.26-1.78,.27-2.66,.03-2.99,.05-5.97,0-8.96-.02-1.42-.21-2.84-.31-4.26-.09-1.27,.57-2.49,.33-3.77Z"/><path class="cls-2" d="M20.28,43.95h-6.55v-10.15h1.64c0,1.04,.03,2.07,0,3.1-.03,.94,.2,1.9-.29,2.82-.11,.21,.2,.64,.28,.9h3.16c.61-.5,.57-1.02,.29-1.61-.12-.25-.19-.7-.06-.85,.31-.35,.23-.72,.21-1.07-.08-1.1-.21-2.2-.32-3.3v-1.64h1.59c.04-.62,.08-1.13,.11-1.64h1.58v10.15h3.6v-6.88h3.27v6.81c.51,.06,.91,.1,1.31,.14v3.19h-9.82Z"/><path class="cls-9" d="M21.91,30.52h-1.58c-.03,.5-.07,1.02-.11,1.64h-1.59v-6.88h1.65c-.03-.62-.05-1.13-.07-1.64h-1.58c.04-.66-.07-1.3,.29-1.95,.23-.42,.1-1.04-.53-1.32h-1.4v-1.65c-.62,.03-1.13,.05-1.64,.07v1.58c-.09,.04-.26,.07-.26,.11-.03,1.44-.04,2.89-.07,4.34,0,.39,.1,.68,.31,1.01,.14,.23,.15,.76-.01,.92-.44,.42-.25,.9-.28,1.35-.03,.7,0,1.4,0,2.1v3.6h-1.31v-6.88c.44-.41,.44-.9,0-1.31v-8.19c.11-.11,.22-.22,.33-.33h.65c.04,.09,.08,.27,.11,.27,1.12,.01,2.25,.01,3.37,0,.04,0,.08-.17,.11-.27h11.79v2.62c-.13,.76-.89,.53-1.31,.78v1.51h-1.59c-.12,1.16,.05,2.23-.11,3.27h-1.57v-4.91c-.64,0-1.18,0-1.71,0-.52,0-1.05,.03-1.56,.05v1.58c-.54,.06-.32,.48-.32,.74-.02,2.59-.01,5.18-.01,7.77Z"/><path class="cls-7" d="M32.07,40.67V17.09h8.46c.22,5.3,.13,22.18-.11,23.58h-8.34Zm1.69-21.91v20.27c.91,0,1.78,0,2.64,0,.85,0,1.7,0,2.5,0V18.76h-5.14Z"/><path class="cls-1" d="M32.07,40.67h8.34c.25-1.4,.33-18.28,.11-23.58h-8.46v-3.6h10.15v28.82h-10.15v-1.64Z"/><path class="cls-8" d="M32.07,13.49v3.6h-1.64V8.61h-1.57v-1.64h1.99c-.56-.55-.39-1.12-.42-1.66h1.46s.09,.06,.12,.11c.03,.04,.06,.09,.06,.14,0,2.65,0,5.3,0,7.94Z"/><path class="cls-5" d="M30.1,43.95v-3.19c-.4-.04-.8-.09-1.31-.14v-6.81h1.64c0,3.14,0,6.27-.01,9.41,0,.26,.23,.69-.32,.74Z"/><path class="cls-3" d="M28.79,22.01v-1.51c.41-.25,1.18-.02,1.31-.78h.54c-.08,.92-.19,1.72-.2,2.53-.03,1.67,0,3.33,0,5-.55-.11-1.09-.22-1.64-.33v-4.91Z"/><path class="cls-3" d="M30.43,33.8h-1.64v-3.2c-.39-.24-.69-.43-.97-.6v-.65c.33-.16,.65-.31,.97-.47h1.64v4.91Z"/><path class="cls-5" d="M30.43,28.88h-1.64v-1.96c.55,.11,1.09,.22,1.64,.33v1.64Z"/><path class="cls-5" d="M3.25,4.98v-.33c.09,.07,.18,.15,.27,.22-.09,.04-.18,.07-.27,.11Z"/><path class="cls-4" d="M42.22,42.31V15.13h1.96v27.18h-1.96Zm.87-26.85h-.11v.33h.11v-.33Z"/><path class="cls-4" d="M5.54,50.82v-.6c.07,0,.14-.01,.22-.02,.04,.21,.07,.41,.11,.62h-.33Z"/><path class="cls-8" d="M3.9,49.19h1.31v.65c-.23,.24-.46,.49-.75,.79-.22-.56-.39-1-.56-1.44Z"/><path class="cls-3" d="M13.73,17.42v8.19c-.44,.41-.44,.9,0,1.31v6.88h-5.24V17.09h5.24v.33Z"/><path class="cls-3" d="M5.21,30.85v-10.48c.55,.01,1.1,.03,1.64,.04v3.23c.12,1.09-.29,2.23,.29,3.21-.52,1.11-.19,2.25-.29,3.34h-1.09c-.26,.31-.4,.48-.55,.65Z"/><path class="cls-8" d="M25.49,7v3.17h-3.52c-.02-.46-.04-.98-.05-1.5,0-.54,0-1.07,0-1.66h3.58Z"/><path class="cls-8" d="M13.7,10.27v3.16h-3.54v-2.76l.41-.41h3.14Z"/><path class="cls-9" d="M6.85,21.02v-.61c-.54-.01-1.09-.03-1.64-.04v-3.27h3.27v3.27h-1.09c-.26,.31-.4,.48-.55,.65Z"/><path class="cls-8" d="M5.24,10.16v-3.17h3.16v3.17h-3.16Z"/><path class="cls-8" d="M18.21,13.55c.09,.09,.23,.25,.4,.42v1.44h-1.52v-1.86h1.13Z"/><path class="cls-8" d="M16.95,6.92h-1.53v-1.56c.45-.02,.96-.04,1.53-.07v1.62Z"/><path class="cls-8" d="M25.57,11.88h1.59c-.08,.56,.26,1.17-.58,1.58h-1.01v-1.58Z"/><path class="cls-8" d="M18.64,8.61h1.58v1.58h-1.1c-.18-.17-.33-.31-.48-.45v-1.13Z"/><path class="cls-5" d="M18.31,17.09c-.04,.09-.08,.27-.11,.27-1.12,.01-2.25,.01-3.37,0-.04,0-.08-.17-.11-.27h3.6Z"/><path class="cls-8" d="M5.21,26.59v.33h-.33c.11-.11,.22-.22,.33-.33Z"/><path class="cls-5" d="M13.73,17.42v-.33h.33c-.11,.11-.22,.22-.33,.33Z"/><path class="cls-5" d="M8.49,33.8h5.24v5.24h-1.65c.03,.62,.05,1.13,.07,1.64h1.58v3.27h-5.24v-10.15Z"/><path class="cls-2" d="M8.49,33.8v10.15h-3.27v-3.27h1.64v-7.86c.49-.03,.28-.41,.33-.65h1.31v1.64Z"/><path class="cls-5" d="M6.85,34.12v6.55h-1.64v-6.88c.55,.11,1.09,.22,1.64,.33Z"/><path class="cls-5" d="M7.18,32.16c-.05,.25,.16,.63-.33,.65v-.67c-.63,.04-1.18,.05-1.64-.31v-.98c.14-.17,.29-.34,.55-.65h1.09c.11,.13,.3,.26,.31,.4,.04,.52,.02,1.04,.02,1.57Z"/><path class="cls-3" d="M5.21,31.83c.46,.36,1.01,.35,1.64,.31v1.98c-.55-.11-1.09-.22-1.64-.33v-1.96Z"/><path class="cls-4" d="M13.73,43.95h5.57c-.09,.11-.17,.31-.26,.31-1.68,.02-3.37,.02-5.05,0-.09,0-.17-.2-.26-.31Z"/><path class="cls-5" d="M21.91,30.52c0-2.59,0-5.18,.01-7.77,0-.26-.23-.69,.32-.74h1.18c.19,1.17,.37,2.23,.54,3.27h1.56v15.39h-1.64v-1.68c-.69-.1-1.33-.2-1.96-.29v-8.19Z"/><path class="cls-3" d="M17,20.37h1.4c.64,.28,.76,.9,.53,1.32-.36,.65-.25,1.3-.29,1.95v10.15h-3.6v-1.64h1.93c0-.46,0-.82,0-1.18-.5-.61-1.25-.62-1.93-.79,0-.7-.03-1.4,0-2.1,.02-.45-.17-.93,.28-1.35,.16-.15,.16-.69,.01-.92-.21-.33-.32-.63-.31-1.01,.03-1.44,.04-2.89,.07-4.34,0-.04,.17-.08,.26-.11h1.64Z"/><path class="cls-5" d="M15.37,33.8h3.27c.11,1.1,.24,2.2,.32,3.3,.02,.35,.11,.72-.21,1.07-.14,.15-.06,.6,.06,.85,.28,.6,.32,1.11-.29,1.61h-3.16c-.09-.26-.4-.69-.28-.9,.48-.92,.25-1.88,.29-2.82,.04-1.03,0-2.07,0-3.1Z"/><path class="cls-9" d="M25.52,33.8v-6.55h1.39c.14-.6,.26-1.13,.38-1.64h1.51v3.27c-.32,.15-.64,.31-.97,.47v.65c.28,.17,.57,.36,.97,.6v3.2h-3.27Z"/><path class="cls-3" d="M21.91,38.71c.64,.09,1.27,.19,1.96,.29v1.68h-1.96v-1.96Z"/><path class="cls-3" d="M13.73,40.67h-1.58c-.02-.5-.05-1.01-.07-1.64h1.65v1.64Z"/><path class="cls-3" d="M25.52,25.28h-1.56c-.17-1.04-.34-2.1-.54-3.27h-1.18v-1.58c.51-.02,1.04-.04,1.56-.05,.54,0,1.07,0,1.71,0v4.91Z"/><path class="cls-2" d="M28.79,25.61h-1.51c-.12,.51-.24,1.03-.38,1.64h-1.39v-1.96h1.57c.16-1.04,0-2.11,.11-3.27h1.59v3.6Z"/><path class="cls-5" d="M15.04,30.19c.68,.17,1.43,.17,1.93,.79,0,.36,0,.72,0,1.18h-1.93v-1.96Z"/><path class="cls-2" d="M18.64,25.28v-1.64h1.58c.02,.5,.05,1.01,.07,1.64h-1.65Z"/><path class="cls-2" d="M17,20.37h-1.64v-1.58c.5-.02,1.01-.05,1.64-.07v1.65Z"/><path class="cls-5" d="M13.73,26.92c-.44-.41-.44-.9,0-1.31,.44,.41,.44,.9,0,1.31Z"/><path class="cls-1" d="M43.09,15.46v.33h-.11v-.33h.11Z"/><path class="cls-9" d="M7.18,32.16c0-.52,.02-1.05-.02-1.57-.01-.14-.2-.27-.31-.4,.1-1.09-.23-2.23,.29-3.34-.58-.97-.16-2.12-.29-3.21h1.64v8.51h-1.31Z"/><path class="cls-2" d="M8.49,23.64h-1.64v-2.62c.14-.17,.29-.34,.55-.65h1.09v3.27Z"/></g></svg>