<?xml version="1.0" encoding="UTF-8"?><svg id="Layer_2" xmlns="http://www.w3.org/2000/svg" viewBox="0 0 58.57 55.92"><defs><style>.cls-1{fill:#fff;}.cls-2{fill:#7f0280;}</style></defs><g id="Layer_3"><path class="cls-2" d="M30.03,55.04c-.27,.01-.55,.02-.79-.17-.06-.04-.14-.08-.22-.08-.4,.02-.64-.29-.92-.47-.23-.15-.7-.52-.91-.53-.8-.05-1.42-.51-2.07-.91-.4-.24-.83-.42-1.34-.51-.18-.14-.42-.29-.63-.47-.1-.09-.2-.13-.33-.13-.08,0-.17,0-.23-.05-.51-.4-1.21-.46-1.69-.92-.17-.16-.38-.28-.58-.4-.41-.25-.87-.34-1.36-.4-.01-.05-.02-.11-.04-.21-.08,0-.18-.01-.28-.02-.35-.48-.95-.63-1.42-1-.4,.08-.79-.09-1.07-.36-.46-.44-1.02-.68-1.59-.87-.52-.18-.99-.39-1.33-.76-.14-.02-.24-.03-.32-.05,0-.08,0-.12-.01-.21-.57,.08-1.04-.28-1.61-.43-.28-.4-.74-.66-1.31-.95h-.52c-.07-.09-.14-.18-.2-.26h-.28c-.24-.17-.42-.38-.66-.55-.4-.28-.85-.39-1.27-.57-.42-.18-.72-.27-.97-.52-.12-.12-.24-.24-.31-.31-.34-.14-.69-.1-.91-.42h-.51c-.35-.35-.84-.5-.99-.96-.23-.09-.45-.18-.71-.28-.32-.05-.7-.11-1.11-.17-.18-.18-.35-.45-.6-.58-.25-.13-.3-.4-.51-.55-.22-.15-.29-.4-.31-.68-.24-2.84-.07-5.69-.12-8.53,0-.55,.14-1.08,.15-1.64,0-.3,.15-.63,.39-.9,.32-.35,.6-.75,.89-1.13,.04-.05,.08-.1,.13-.13,.57-.31,.78-1.03,1.4-1.28,0-.31,.32-.34,.45-.55,.14-.22,.35-.44,.63-.57,.3-.15,.81-.81,.97-1.13,.03-.07,.08-.15,.14-.19,.4-.21,.58-.65,.92-.93,.27-.22,.53-.43,.79-.67,.19-.18,.35-.38,.5-.6,.16-.22,.42-.37,.65-.54,.2-.15,.24-.46,.52-.53,.14-.33,.4-.53,.7-.71,.12-.07,.23-.19,.28-.32,.09-.2,.25-.28,.4-.41,.36-.3,.66-.67,.98-1.01,.11-.12,.2-.31,.33-.34,.2-.06,.28-.23,.43-.33,.2-.15,.29-.39,.52-.54,.24-.16,.42-.4,.63-.61,.19-.19,.41-.36,.57-.58,.15-.21,.42-.26,.55-.51,.13-.22,.39-.35,.55-.57,.16-.22,.4-.37,.56-.59,.17-.22,.44-.3,.6-.55,.13-.21,.32-.42,.51-.61,.18-.17,.42-.28,.56-.5,.16-.23,.31-.49,.54-.64,.23-.15,.31-.39,.5-.56,.21-.18,.48-.33,.55-.64,0-.02,.02-.04,.04-.04,.71-.35,1.07-1.07,1.67-1.54,.12-.1,.24-.2,.43-.36,.09-.21,.25-.46,.56-.67,.41-.28,.79-.65,1.04-1.12,.47-.24,.79-.66,1.13-1.03,.11-.13,.22-.23,.35-.35,.25-.23,.57-.42,.68-.78,.32-.12,.51-.4,.74-.63,.03-.03,.02-.11,.04-.17,.19-.01,.42-.02,.47-.22,.08-.35,.35-.49,.57-.7,.15-.14,.37-.16,.47-.41,.07-.19,.27-.42,.54-.45,.04-.22,.32-.25,.35-.47,.43-.15,.61-.64,1.05-.8,.09-.03,.15-.14,.23-.22C29.24,0,29.83,0,30.41,0c.35,0,.63,.2,.94,.31-.02,.31,.3,.28,.44,.43,.06,.07,.62,.26,.7,.26,.52,0,.97,.16,1.35,.53,.26,.25,.57,.46,.87,.7,.8,.11,1.63,.22,2.19,1.02,.37-.09,.61,.27,1,.27,.3,0,.59,.25,.88,.39,.16,.19,.33,.38,.48,.56,.58,.15,1.12,.3,1.65,.44,.17,.15,.34,.3,.51,.45,.17,.16,.33,.32,.49,.49,.52,0,.97,.41,1.52,.26,.17,.21,.4,.34,.5,.62,.05,.14,.6,.35,.83,.41,.37,.1,.75,.18,1.11,.35,.24,.12,.37,.37,.62,.43,.25,.5,.75,.48,1.19,.59,.16,.04,.33,0,.53,0,.33,.29,.69,.6,1.03,.91,.23,.2,.53,.23,.8,.34,.24,.09,.51,.09,.77,.13,.32,.21,.47,.63,.83,.8,.35,.16,.72,.27,1.07,.45h.52c.13,.14,.28,.28,.42,.44,.35,.42,.76,.67,1.31,.56,.09,.09,.16,.16,.24,.24q.47,.04,1.38,1c.44,.08,.87,.17,1.32,.16,.31,0,.52,.24,.64,.67,0,.45-.01,1.04,0,1.62,0,.24-.08,.45-.23,.59-.25,.25-.56,.44-.89,.69-.02,.06-.05,.2-.11,.32-.24,.48-.19,.98-.1,1.48,.02,.14,.06,.27,.06,.41,0,2.36,0,4.72,0,7.08,0,.3-.09,.59-.12,.89-.02,.29,0,.58,0,.88,0,.28-.02,.56,.2,.8,.06,.06,.04,.19,.08,.36,.16,.12,.38,.26,.58,.42,.23,.2,.42,.44,.39,.77,0,.12,0,.25,0,.35-.25,.3-.46,.6-.83,.73-.12,.04-.18,.23-.29,.34-.2,.21-.38,.46-.61,.62-.24,.16-.45,.32-.55,.6-.36,.08-.42,.44-.6,.68-.02,.03-.03,.09-.06,.1-.35,.09-.46,.42-.67,.65-.21,.24-.39,.53-.73,.64-.12,.04-.22,.19-.31,.3-.14,.17-.28,.34-.4,.52-.12,.18-.32,.28-.48,.41-.35,.29-.56,.73-.93,.98-.29,.19-.53,.44-.79,.67-.2,.18-.31,.44-.56,.58-.24,.14-.34,.47-.66,.53-.02,0-.03,.03-.04,.04-.1,.19-.16,.46-.32,.54-.21,.11-.35,.28-.51,.42-.17,.15-.32,.33-.49,.48-.28,.26-.46,.64-.86,.76-.04,.01-.05,.09-.08,.14-.32,.49-.8,.83-1.21,1.24-.05,.05-.14,.06-.17,.12-.2,.4-.54,.64-.89,.89-.12,.08-.19,.23-.28,.35-.44,.54-1.09,.88-1.42,1.53-.07,.14-.32,.18-.42,.32-.27,.39-.76,.58-.93,1.04-.32,.16-.55,.42-.79,.67-.42,.45-.86,.89-1.22,1.38-.11,.15-.27,.2-.37,.33-.11,.14-.21,.29-.33,.42-.12,.12-.27,.21-.41,.32-.08,.07-.16,.14-.22,.22-.19,.26-.35,.52-.64,.7-.21,.13-.34,.4-.58,.52-.02,0-.04,.03-.04,.04-.14,.37-.48,.56-.74,.81-.12,.12-.26,.22-.37,.34-.11,.12-.19,.26-.29,.38-.12,.14-.26,.27-.4,.4-.19,.17-.38,.33-.56,.51-.17,.17-.35,.35-.49,.55-.14,.22-.48,.22-.53,.52-.42,.07-.63,.53-1.07,.6-.12,.02-.26,.07-.4,.08-.31,0-.63,0-.94,0-.34,0-.97-.26-1.25-.47-.2-.15-.43-.27-.66-.41Zm16.24-15.73c.21-.2,.21-.19,.49-.32,.34-.16,.64-.41,.74-.76,.06-.21,.16-.34,.3-.44,.19-.13,.46-.14,.63-.29,.17-.15,.23-.4,.37-.59,.23-.32,.57-.49,.95-.66,.07-.25,.15-.51,.22-.77h.39c.03-.07,.05-.14,.08-.22,.53-.05,.66-.44,.71-.71,.2-.27,.33-.43,.45-.58h.41c.22-.31,.26-.69,.55-.98,.29-.29,.72-.25,.99-.59v-.56c.23-.1,.46-.2,.76-.34,.14-.21,.54-.34,.51-.76,.23-.14,.31-.48,.67-.4,.15-.15,.29-.29,.44-.44,0-2.78,0-5.56,0-8.33,0-.32-.09-.6-.2-.89-.64,.18-.86,.84-1.42,1.06-.06,.34-.1,.4-.37,.58-.13,.09-.34,.18-.36,.3-.06,.31-.34,.31-.51,.45-.04,.03-.11,.04-.16,.05v.24c-.16,.17-.3,.32-.44,.47h-.28c-.16,.59-.82,.73-1.12,1.24-.26-.04-.41,.14-.54,.34-.01,.16-.02,.3-.03,.43-.22,.12-.41,.21-.57,.29-.11,.29-.31,.45-.54,.58-.07,.04-.18,.08-.19,.14-.05,.27-.15,.48-.43,.56-.18,.52-.66,.77-1.02,1.12-.26,.26-.54,.49-.88,.81v.48c-.1,.02-.16,.03-.22,.05-.01,.11-.02,.21-.03,.27-.28,.29-.8,.29-.78,.83-.15,0-.3,.02-.42,.02-.06,.11-.09,.21-.15,.27-.29,.25-.58,.5-.9,.71-.21,.14-.41,.26-.37,.61-.21,.15-.43,.32-.66,.49-.45,.33-.71,.59-.85,.88-.02,.05-.03,.11-.04,.16h-.31c0,.32-.31,.44-.5,.65-.21,.23-.43,.45-.66,.67-.21,.19-.47,.33-.65,.54-.16,.19-.33,.36-.51,.53-.22,.2-.36,.5-.6,.67-.24,.16-.34,.42-.56,.59-.23,.17-.36,.45-.66,.53-.08,.32-.38,.47-.58,.7-.19,.22-.41,.42-.62,.62s-.41,.41-.62,.62c-.22,.22-.44,.44-.66,.66-.21,.21-.41,.41-.64,.64h-.2c-.12,.2-.19,.36-.3,.49-.07,.08-.24,.1-.28,.19-.22,.44-.64,.69-.95,1.05-.24,.28-.53,.41-.91,.39-1-.05-2.02,.11-3.01-.16-.38-.72-.89-.97-2-.97-.1-.12-.22-.26-.32-.38-.51,.06-.48-.37-.63-.59-.35-.05-.72-.03-1.01-.17-.28-.14-.62-.07-.87-.33-.33-.33-.7-.61-1.01-.87-.56-.11-1.06-.21-1.56-.3-.04-.47-.7-.38-.67-.86-.37,0-.69-.02-1.02-.19-.29-.15-.61-.27-.88-.44-.27-.17-.45-.5-.67-.77-1.16,.23-1.82-.52-2.45-1.19-.57-.07-1.07-.13-1.57-.19-.29-.24-.59-.48-.91-.74h-.33c-.08-.08-.16-.16-.25-.25h-.64q-.17-.32-.49-.37c-.2-.2-.41-.41-.62-.62h-.29c-.06-.07-.13-.17-.2-.26h-.84c-.25-.23-.54-.49-.83-.75h-.23c-.19-.35-.63-.62-1.56-.62-.19-.17-.42-.37-.64-.58-.27-.27-.58-.35-.94-.28-.07,.01-.12,.09-.14,.1-.22-.07-.38-.13-.58-.19-.09-.44-.53-.52-.86-.76v-.23c-.45-.22-.89-.21-1.33-.18-.2,.31-.28,.63-.28,.98,0,2.11,0,4.22,0,6.33v.77c.16,.16,.3,.3,.43,.43,.16,.03,.29,.12,.43,.17,.16,.06,.34,.09,.57,.15,.02,.04,.08,.13,.13,.19h1.03c.17,.13,.34,.23,.48,.37,.14,.14,.22,.33,.36,.47,.16,.15,.35,.26,.58,.43h1.28c.1,.54,.69,.67,.9,1.11h1.28c.27,.34,.66,.56,.84,.93,.18,.09,.36,.18,.65,.33h1.01c.17,.17,.32,.31,.46,.47,.12,.13,.21,.29,.34,.42,.14,.13,.3,.24,.43,.33,.54,.1,1.09-.13,1.38,.08,.43,.52,.72,.87,.99,1.21h1.4c.13,.13,.27,.24,.36,.37,.06,.09,.04,.24,.1,.33,.14,.21,.21,.48,.51,.55,.11,.02,.19,.16,.28,.24h1.27c.15,.2,.28,.43,.46,.61,.2,.2,.44,.35,.59,.47,.3,.05,.54,.1,.7,.13,.25-.04,.43-.07,.55-.09,.32,.48,.72,.77,1.06,1.16h1.42c.28,.57,.8,.9,1.19,1.37h1.42c.14,.23,.27,.45,.39,.67,.15,.28,.58,.12,.67,.44h1.03c.15,.1,.39,.19,.42,.31,.05,.27,.33,.19,.42,.38,.07,.16,.21,.28,.35,.47,.17,.03,.42,.14,.58,.07,.34-.14,.68-.07,1-.12,.34-.34,.66-.68,1.22-.63,.13-.86,.84-1.14,1.46-1.52v-.33c.14-.19,.23-.3,.3-.39,.13,0,.21,0,.26-.01,.45-.42,.89-.82,1.08-1.37h.46c.13-.22,.25-.48,.42-.69,.19-.24,.44-.45,.66-.68,.09-.01,.19-.02,.32-.04,.14-.26,.28-.54,.44-.83,.57-.18,.89-.66,1.2-1.15,.06-.09,.15-.23,.24-.24,.38-.05,.65-.18,.67-.61,.24,0,.22-.24,.34-.35,.16-.14,.29-.3,.43-.45,.01,.02,.02,.04,.03,.06,.14-.06,.28-.12,.43-.19-.08-.48,.08-.83,.43-1.11h.35c.16-.15,.31-.3,.36-.34,.15-.34,.24-.55,.33-.75,.32-.08,.61-.15,.94-.23-.29-.41,.37-.54,.21-.94,.4,.09,.56-.45,.92-.23,.12-.12,.23-.23,.33-.33,0-.13,0-.25,0-.38Zm-14.8-14.79c.15-.13,.3-.26,.52-.45,.53,.02,1.15,0,1.74-.27v-.57c.28-.17,.55-.34,.87-.53h1.34c.09-.13,.25-.27,.28-.43,.06-.35,.24-.58,.71-.71,.23,0,.61,.05,.97-.02,.24-.05,.58-.02,.71-.34,.06-.16,.1-.33,.14-.49,.27-.02,.34-.21,.41-.39,.38-.05,.78,.08,1.13-.15,.23,.26,.52,.08,.76,.15,.2-.27,.21-.57,.2-.8,.25-.13,.43-.23,.64-.34,.08,.04,.18,.09,.3,.15,.11-.17,.21-.32,.31-.48v-3.81c-.17-.1-.37-.22-.56-.35-.02,.02-.03,.04-.05,.07-.35-.46-.7-.93-1.03-1.36-.38,.01-.49-.19-.63-.44-.09-.17-.11-.47-.42-.44-.37-.44-.92-.41-1.45-.54-.16-.2-.33-.42-.52-.66-.33-.14-.7-.18-1.08-.18-1.52,.01-3.05,0-4.58,0-.11,.14-.33,.22-.32,.47,.14,.02,.26,.04,.42,.07-.07,.12-.14,.19-.17,.28-.2,.48-.56,.71-1.08,.69-.22-.01-.42,0-.65-.11-.3-.14-.61,.09-.81,.14-.19,.33-.33,.58-.47,.82-.21,.03-.44,.02-.5,.22-.11,.35-.51,.45-.61,.75-.14,.42-.53,.35-.79,.52-.03,.02-.06,.06-.11,.11v.4c-.31,.21-.6,.4-.87,.58-.07,.33,.17,.43,.34,.6,.61,.05,1.24,.09,1.78,.14,.3-.19,.51-.32,.76-.48v-.35c.36-.23,.68-.45,1.01-.66v-.56c.12-.24,.22-.42,.31-.61h.89c.17-.43,.22-.93,.61-1.25,.36,0,.71,.02,1.07,0,.73-.04,1.48,.12,2.21-.12,.09-.03,.24-.05,.31,0,.3,.22,.64,.06,.85,.11,.55,.32,.72,.79,.87,1.19,.31,.08,.53,.15,.7,.19,.3,.35,.34,.76,.57,1.08,.23,.07,.45,.13,.62,.18,.16,.13,.29,.23,.39,.3v1.24c.32,.37-.01,.72-.06,1.06-.04,.31-.31,.48-.64,.52-.1,0-.19,0-.27,0-.11,.18-.23,.3-.27,.45-.04,.14-.02,.26-.14,.39-.1,.11-.13,.28-.15,.33-.46,.3-.9,.21-1.32,.22-.03-.16-.05-.27-.07-.39-.39,.13-.73,.24-.98,.52,.11,.15,.21,.28,.29,.39-.17,.17-.32,.32-.49,.49-.3,0-.67-.09-.95,.03-.31,.13-.6,.07-.9,.09-.33,.02-.67,0-.99,0-.16,.1-.31,.2-.45,.29v.38c-.2,.2-.38,.4-.57,.59h-1.6c-.25,.16-.54,.24-.61,.57-.01,.07-.11,.16-.17,.17-.39,.04-.58,.39-.9,.56-.23,.12-.48,.33-.43,.7-.39-.05-.52,.28-.79,.49,.08,.15,.15,.28,.21,.4h1.18c.2,.28,.67,.13,.82,.49-.06,.11-.11,.19-.15,.27,.12,.16,.22,.3,.38,.51,.14,.03,.36,.08,.59,.14,.09-.16,.16-.28,.23-.4h.28c.04-.27,.23-.41,.48-.53,.21-.1,.28-.42,.58-.5-.05-.27-.11-.52-.16-.78Zm-7.78,4.06c-.16,.13-.27,.23-.4,.33v.43c-.17,.09-.33,.18-.49,.24-.31,.12-.47,.31-.48,.64,0,.31,0,.62,0,.97,.18,.09,.38,.26,.57,.26,.31,0,.42,.2,.57,.36-.06,.18-.11,.32-.15,.42,.14,.14,.24,.24,.38,.37,.47-.05,1.01,.13,1.49-.16,.17-.36,.28-.75,.64-.98h.36c.29-.6,.17-1.18,.01-1.67-.3-.25-.53-.45-.72-.61,0-.14-.01-.22-.01-.23-.55-.51-1.18-.33-1.76-.36Z"/><path class="cls-1" d="M46.28,39.31c0,.13,0,.25,0,.38-.1,.1-.21,.21-.33,.33-.36-.21-.53,.33-.92,.23,.16,.4-.49,.53-.21,.94-.33,.08-.62,.15-.94,.23-.09,.2-.18,.41-.33,.75-.05,.04-.2,.19-.36,.34h-.35c-.36,.28-.52,.63-.43,1.11-.14,.06-.28,.13-.43,.19-.01-.02-.02-.04-.03-.06-.14,.15-.28,.31-.43,.45-.12,.11-.1,.36-.34,.35-.02,.43-.3,.56-.67,.61-.09,.01-.17,.15-.24,.24-.31,.49-.63,.98-1.2,1.15-.15,.29-.3,.57-.44,.83-.13,.01-.23,.03-.32,.04-.23,.23-.47,.43-.66,.68-.17,.21-.29,.47-.42,.69h-.46c-.19,.55-.63,.95-1.08,1.37-.05,0-.14,0-.26,.01-.07,.09-.15,.2-.3,.39v.33c-.62,.38-1.33,.66-1.46,1.52-.56-.05-.89,.29-1.22,.63-.32,.05-.66-.02-1,.12-.17,.07-.42-.05-.58-.07-.14-.18-.28-.31-.35-.47-.09-.19-.37-.12-.42-.38-.02-.13-.27-.21-.42-.31h-1.03c-.09-.33-.52-.16-.67-.44-.12-.22-.26-.44-.39-.67h-1.42c-.39-.47-.92-.8-1.19-1.37h-1.42c-.34-.39-.75-.68-1.06-1.16-.12,.02-.31,.05-.55,.09-.16-.03-.39-.07-.7-.13-.16-.12-.4-.28-.59-.47-.18-.18-.32-.41-.46-.61h-1.27c-.1-.09-.18-.22-.28-.24-.31-.07-.37-.34-.51-.55-.06-.09-.04-.24-.1-.33-.09-.14-.23-.24-.36-.37h-1.4c-.28-.34-.56-.69-.99-1.21-.29-.21-.85,.02-1.38-.08-.13-.1-.29-.2-.43-.33-.13-.12-.22-.29-.34-.42-.14-.15-.29-.3-.46-.47h-1.01c-.29-.15-.46-.23-.65-.33-.18-.37-.57-.6-.84-.93h-1.28c-.21-.44-.8-.57-.9-1.11h-1.28c-.23-.17-.43-.28-.58-.43-.14-.14-.23-.33-.36-.47-.14-.14-.31-.24-.48-.37h-1.03c-.04-.07-.1-.16-.13-.19-.23-.06-.41-.09-.57-.15-.14-.05-.27-.14-.43-.17-.13-.13-.27-.27-.43-.43v-.77c0-2.11,0-4.22,0-6.33,0-.35,.08-.67,.28-.98,.44-.03,.88-.04,1.33,.18v.23c.33,.24,.77,.32,.86,.76,.19,.06,.36,.12,.58,.19,.02-.01,.07-.09,.14-.1,.36-.07,.67,.01,.94,.28,.21,.21,.45,.41,.64,.58,.92,0,1.37,.28,1.56,.62h.23c.29,.27,.58,.52,.83,.75h.84c.07,.09,.14,.18,.2,.26h.29c.21,.21,.41,.41,.62,.62q.32,.05,.49,.37h.64c.1,.1,.17,.17,.25,.25h.33c.32,.26,.62,.5,.91,.74,.51,.06,1.01,.12,1.57,.19,.62,.67,1.29,1.42,2.45,1.19,.22,.27,.4,.6,.67,.77,.27,.17,.59,.3,.88,.44,.33,.17,.65,.18,1.02,.19-.03,.48,.63,.39,.67,.86,.5,.1,1,.19,1.56,.3,.31,.26,.68,.54,1.01,.87,.25,.25,.59,.19,.87,.33,.29,.14,.66,.12,1.01,.17,.15,.22,.12,.65,.63,.59,.1,.12,.22,.26,.32,.38,1.11,0,1.62,.25,2,.97,.99,.27,2.01,.11,3.01,.16,.38,.02,.67-.11,.91-.39,.3-.36,.73-.6,.95-1.05,.04-.09,.21-.1,.28-.19,.11-.13,.18-.29,.3-.49h.2c.23-.23,.43-.44,.64-.64,.22-.22,.44-.44,.66-.66,.21-.21,.41-.41,.62-.62s.42-.4,.62-.62c.2-.23,.49-.38,.58-.7,.3-.08,.43-.36,.66-.53,.22-.16,.32-.42,.56-.59,.24-.17,.38-.47,.6-.67,.18-.17,.35-.34,.51-.53,.18-.21,.44-.35,.65-.54,.23-.21,.46-.43,.66-.67,.19-.21,.49-.33,.5-.65h.31c.01-.05,.02-.11,.04-.16,.14-.29,.41-.55,.85-.88,.23-.16,.45-.33,.66-.49-.04-.35,.16-.47,.37-.61,.32-.21,.61-.46,.9-.71,.07-.06,.1-.17,.15-.27,.12,0,.26-.01,.42-.02-.02-.53,.5-.54,.78-.83,0-.06,.02-.15,.03-.27,.06-.01,.12-.02,.22-.05v-.48c.34-.31,.62-.55,.88-.81,.36-.35,.83-.61,1.02-1.12,.29-.08,.39-.29,.43-.56,0-.06,.12-.1,.19-.14,.23-.13,.43-.3,.54-.58,.16-.08,.35-.18,.57-.29,.01-.13,.02-.27,.03-.43,.13-.19,.29-.37,.54-.34,.3-.51,.96-.65,1.12-1.24h.28c.14-.15,.28-.3,.44-.47v-.24c.05-.02,.12-.02,.16-.05,.17-.14,.45-.14,.51-.45,.02-.12,.23-.21,.36-.3,.26-.18,.3-.24,.37-.58,.56-.23,.78-.89,1.42-1.06,.11,.28,.21,.56,.2,.89,0,2.78,0,5.56,0,8.33-.15,.15-.29,.3-.44,.44-.35-.08-.44,.26-.67,.4,.03,.43-.37,.56-.51,.76-.3,.13-.53,.23-.76,.34v.56c-.27,.34-.7,.3-.99,.59-.29,.29-.33,.67-.55,.98h-.41c-.12,.15-.24,.32-.45,.58-.06,.28-.18,.67-.71,.71-.03,.07-.05,.15-.08,.22h-.39c-.07,.26-.15,.52-.22,.77-.38,.17-.72,.34-.95,.66-.14,.19-.2,.44-.37,.59-.16,.14-.44,.16-.63,.29-.14,.09-.24,.23-.3,.44-.1,.36-.4,.61-.74,.76-.28,.13-.29,.12-.49,.32Z"/><path class="cls-2" d="M31.48,24.52c.05,.26,.1,.51,.16,.78-.3,.08-.37,.39-.58,.5-.25,.12-.44,.26-.48,.53h-.28c-.07,.12-.14,.24-.23,.4-.23-.05-.45-.1-.59-.14-.15-.21-.26-.35-.38-.51,.04-.07,.09-.16,.15-.27-.15-.36-.62-.21-.82-.49h-1.18c-.06-.12-.13-.25-.21-.4,.27-.21,.4-.54,.79-.49-.05-.36,.2-.58,.43-.7,.32-.16,.51-.52,.9-.56,.06,0,.16-.1,.17-.17,.06-.33,.35-.41,.61-.57h1.6c.19-.19,.37-.39,.57-.59v-.38c.14-.09,.29-.18,.45-.29,.32,0,.66,.02,.99,0,.3-.02,.59,.04,.9-.09,.28-.12,.66-.03,.95-.03,.17-.17,.31-.31,.49-.49-.08-.11-.18-.24-.29-.39,.26-.27,.6-.39,.98-.52,.02,.12,.04,.23,.07,.39,.42,0,.86,.08,1.32-.22,.02-.05,.05-.22,.15-.33,.12-.12,.1-.25,.14-.39,.04-.14,.16-.27,.27-.45,.08,0,.18,0,.27,0,.32-.03,.59-.21,.64-.52,.05-.35,.39-.69,.06-1.06v-1.24c-.1-.08-.23-.18-.39-.3-.17-.05-.39-.11-.62-.18-.23-.32-.27-.74-.57-1.08-.17-.05-.39-.11-.7-.19-.14-.4-.32-.88-.87-1.19-.21-.06-.55,.1-.85-.11-.07-.05-.21-.03-.31,0-.73,.24-1.47,.08-2.21,.12-.35,.02-.71,0-1.07,0-.39,.32-.44,.81-.61,1.25h-.89c-.1,.19-.19,.38-.31,.61v.56c-.33,.22-.65,.43-1.01,.66v.35c-.24,.15-.46,.29-.76,.48-.55-.04-1.17-.09-1.78-.14-.17-.17-.4-.27-.34-.6,.26-.18,.56-.37,.87-.58v-.4c.05-.05,.08-.09,.11-.11,.26-.17,.65-.1,.79-.52,.1-.29,.51-.4,.61-.75,.06-.2,.29-.19,.5-.22,.14-.24,.28-.49,.47-.82,.2-.05,.51-.27,.81-.14,.22,.1,.43,.09,.65,.11,.52,.03,.88-.2,1.08-.69,.04-.09,.1-.16,.17-.28-.17-.03-.28-.05-.42-.07-.01-.25,.21-.33,.32-.47,1.53,0,3.06,0,4.58,0,.39,0,.76,.04,1.08,.18,.19,.24,.37,.46,.52,.66,.53,.13,1.07,.11,1.45,.54,.31-.02,.33,.28,.42,.44,.13,.25,.25,.46,.63,.44,.33,.43,.68,.9,1.03,1.36,.02-.02,.03-.04,.05-.07,.2,.12,.39,.24,.56,.35v3.81c-.1,.16-.2,.31-.31,.48-.12-.06-.22-.11-.3-.15-.21,.11-.39,.21-.64,.34,.01,.23,0,.53-.2,.8-.24-.07-.53,.12-.76-.15-.35,.23-.75,.1-1.13,.15-.07,.19-.15,.37-.41,.39-.04,.16-.08,.33-.14,.49-.12,.32-.46,.29-.71,.34-.36,.07-.75,.02-.97,.02-.48,.13-.65,.36-.71,.71-.03,.16-.19,.29-.28,.43h-1.34c-.32,.2-.59,.36-.87,.53v.57c-.59,.28-1.21,.29-1.74,.27-.21,.19-.37,.32-.52,.45Z"/><path class="cls-2" d="M23.7,28.59c.58,.04,1.21-.15,1.76,.36,0,0,0,.09,.01,.23,.2,.17,.42,.36,.72,.61,.16,.49,.28,1.06-.01,1.67h-.36c-.36,.24-.47,.62-.64,.98-.48,.29-1.03,.11-1.49,.16-.13-.13-.23-.23-.38-.37,.03-.1,.09-.24,.15-.42-.15-.16-.25-.36-.57-.36-.19,0-.38-.17-.57-.26,0-.35,0-.66,0-.97,0-.33,.17-.52,.48-.64,.16-.06,.31-.15,.49-.24v-.43c.12-.1,.24-.19,.4-.33Z"/></g></svg>