<?xml version="1.0" encoding="UTF-8"?><svg id="Layer_2" xmlns="http://www.w3.org/2000/svg" viewBox="0 0 154.66 146.03"><defs><style>.cls-1{fill:#f57478;}.cls-2{fill:#f4757a;}.cls-3{fill:#e23c46;}</style></defs><g id="Layer_3"><path class="cls-2" d="M127.78,136.84v8.5c-4.21,.71-87.05,.97-100.86,.31v-8.7h-9.06v-8.62c-2.94-1.48-6.46,.92-9.12-1.94v-8.43H0V26.91H8.74v-9.06h8.88V8.97h9.06V.05h46.05V8.65h8.86c.6-2.64-.14-5.62,.38-8.65h45.69V8.74h7.53c.65,.65,1.12,1.12,1.59,1.59,0,2.33,0,4.66,0,7.35h8.88v9.06h9V117.46l-1.38,1.38h-7.5v-2.03h6.84V29c-3.27,0-6.39,0-9.5,.02-.11,0-.22,.22-.34,.35v3.98c-.48,.48-.95,.95-1.46,1.46h-8.61c-1.15-.94-2.15-1.77-3.05-2.51v-5.16c-.69-.56-1.29-1.05-2.09-1.7-.38,.68-.59,1.04-.79,1.41h-7c-.1-.68-.21-1.37-.42-2.77-1.29,1.26-2.07,2.03-3.07,3.01,.76,.39,1.12,.58,1.48,.76v3h-2.07c.11,1.24,.18,2.14,.26,3h1.81v18c-2.58,.29-5.07-.2-7.61-1.23-1.19,1.65-2.3,3.19-3.47,4.83,.53,4.22-.84,8.67,1.07,12.84-.39,.5-.77,.99-1.15,1.47,.48,.83,.86,1.49,.95,1.64-.44,2.47-.8,4.45-1.15,6.4-1.18,.05-2.3,.1-3.46,.16-.61,1.05-1.15,1.98-1.68,2.91-.5,0-.99,0-1.49,0v-13h2.83q-.14-3.26-2.83-4c-.33-.33-.67-.67-1-1v-2.04c-1.57,.08-2.8,.15-4,.21v1.83c-1.02,.33-2.02,.89-3.06,.95-2.31,.15-4.63,.05-6.94,.05,0-5,.04-10-.02-14.99-.03-2.47,.93-4.57,2.16-7.05,3.48,1.13,5.85-2.85,9.44-1.87,.47,.47,.94,.94,1.56,1.56-.97,4.13,.9,8.11,1.1,12.22h2.64c1.21-2.75,3.94-4.61,4.11-7.87h2.51c.49-1.66,1.01-2.95,1.23-4.28,.22-1.4,.75-3.3,.09-4.17-1.42-1.86-.45-3.74-.83-5.55h2.48c.89-1.93,2.4-3.68,1.01-6.09-.51-.89-.44-2.15-.48-3.25-.07-1.79-.02-3.58-.02-5.74-3.46-1.36-7.17-.92-10.89-2.34-.46,1.43-.79,2.43-1.11,3.43-1.78-.2-2.65,.68-3.02,2.35-.23,1.04-.68,2.04-1.03,3.05,1.46,.91,1,2.32,1.05,3.59h-2c-.31-.99-.62-1.98-.95-3-1.02,0-1.65-.05-2.27,0-3.26,.32-6.52,.66-9.78,.99V9.94h-9.04V45.89h-26.75v18.07c3.01-.65,6.12,.98,8.98-1.61v-7.33h17.7v44.87h-17.76v9.05h18v35.89c2.8,0,5.44,.03,8.08-.04,.27,0,.53-.62,.79-.96h44.15v-7h1.85ZM54.78,9.09h-9.04V26.89H18.93c-2.12,2.89-.83,5.96-1.09,9.09h8.93v16.35c.98,3.06,2.66,2.47,4.1,2.5,1.62,.04,3.23,0,4.92,0,0-3.55-.17-6.71,.05-9.85,.2-3-1.1-6.25,1.27-9.29h26.53v-8.69c-3.03-.49-6,.21-8.84-.4V9.09Zm8.92,63.88H18.01v8.96h27.86v8.78h9.02v-8.98h7.51c.52-.52,.87-.87,1.31-1.31v-7.45ZM17.88,117.66h27.8v-7.43c-.46-.46-.81-.81-1.52-1.52h-8.53v-17.79h-7.44c-.44,.44-.79,.79-1.5,1.5v16.53h-8.81v8.71ZM94.06,5.99c1.75-.61,3.45-.17,5.26-.86,1.9-.72,4.34-1.34,6.46-1.17,2.39,.19,4.7,1.39,6.55,1.99,1.01,2.93,1.86,5.41,2.66,7.74,2.58,.86,4.91,1.64,7.07,2.36,.76-.76,1.23-1.23,1.56-1.56v-6.48c-1.4-.16-2.64-.3-4.17-.47,.44-2.31,.81-4.32,1.23-6.5h-31.81c-.05,1.19-.1,2.32-.16,3.5-1.33,.89-2.65,1.77-4.33,2.9,.85,1.86,1.67,3.67,2.45,5.36h2.34c1.65-2.29,3.3-4.59,4.89-6.81ZM45.87,135.68h17.82v-16.35c-.51-.55-.96-1.04-1.22-1.31h-7.67c-.08,3.06,.06,5.97-.09,9h-8.84v8.66ZM8.94,63.59h8.67v-17.66H8.94v17.66ZM128.13,10.91c.19,.22,.38,.43,.57,.65-.81,.27-1.62,.54-2.43,.81,.02,.32,.05,.63,.07,.95,.77,.32,1.54,.64,2.31,.96-.15,.15-.3,.3-.46,.45h5.16c1.3-1.11,2.04-2.24,1.02-3.83h-6.25ZM82.55,.77c.28,1.48,.44,2.31,.74,3.91,1.28-1.4,2.04-2.23,3.31-3.62-1.7-.12-2.59-.19-4.05-.29Z"/><path class="cls-2" d="M145.78,118.84v8.93h-8.89v9.07h-9.11v-2.2h7.01v-6.31l2.64-2.64h6.51v-6.85h1.84Z"/><path class="cls-1" d="M145.78,118.84h-1.84v6.85h-6.51l-2.64,2.64v6.31h-7.01v2.2h-1.85v7h-44.15v-8c5.97,0,11.6,0,17.23,0,.14,0,.3-.08,.43-.16,.13-.09,.23-.23,.17-.17v-8.67c-5.81,0-11.44,0-17.07,0-.14,0-.3-.08-.42-.17-.13-.09-.22-.24-.19-.2v-53.38h9v8.76c2.8,0,5.44,.03,8.07-.04,.27,0,.53-.62,.79-.96,.5,0,.99,0,1.49,0,.54-.93,1.07-1.86,1.68-2.91,1.17-.05,2.28-.1,3.46-.16,.35-1.95,.7-3.92,1.15-6.4-.09-.15-.47-.81-.95-1.64,.38-.48,.76-.97,1.15-1.47-1.91-4.16-.54-8.62-1.07-12.84,1.17-1.63,2.28-3.17,3.47-4.83,2.54,1.03,5.02,1.52,7.61,1.23-.33,1.01-.66,2.03-1.01,3.07h-7.78v8.8h17.86v-17.94h17.49c.51-.51,.86-.86,1.32-1.32v-7.12c-.5-.55-.94-1.04-1.51-1.66h-15.99c-1.83-1.37-1.95-3.29-1.04-4.5,1.36-1.81,.25-2.94-.34-4.33,.21-.37,.41-.73,.79-1.41,.8,.65,1.4,1.14,2.09,1.7v5.16c.9,.74,1.9,1.56,3.05,2.51h8.61c.51-.51,.98-.98,1.46-1.46v-3.98c.12-.13,.23-.35,.34-.35,3.11-.02,6.23-.02,9.5-.02V116.81h-6.84v2.03Zm-10.09-45.83h-26.91c0,5.8,0,11.43,0,17.06,0,.14-.08,.3-.16,.43-.09,.13-.23,.23-.53,.51h-17.31c.08,3.07-.11,5.97,.11,8.66h26.9c0-5.8,0-11.43,0-17.06,0-.14,.08-.3,.16-.43,.09-.13,.23-.23,.53-.51h17.21v-8.66Zm-17.99,35.99h-17.94c.07,3.06-.1,5.97,.13,9.01h8.72c.48,3.04-.2,6,.36,8.66h8.73v-17.67Zm9.25-18.07v17.91c1.81,0,3.46,.02,5.1,0,1.59-.03,3.17-.11,4.55-.16v-17.74h-9.65Z"/><path class="cls-3" d="M99.78,80.84c-.26,.33-.52,.95-.79,.96-2.63,.07-5.27,.04-8.07,.04v-8.76h-9v53.38s.06,.11,.19,.2c.12,.09,.28,.17,.42,.17,5.63,0,11.26,0,17.07,0v8.67c.06-.07-.04,.08-.17,.17-.12,.08-.28,.16-.43,.16-5.63,0-11.26,0-17.23,0v8c-.26,.33-.52,.95-.79,.96-2.64,.07-5.28,.04-8.08,.04v-35.89h-18v-9.05h17.76V55.03h-17.7v7.33c-2.86,2.59-5.97,.96-8.98,1.61v-18.07h26.75V9.94h9.04V26.84h18v-9h9v14c.37,1.81-.6,3.68,.83,5.55,.67,.87,.14,2.77-.09,4.17-.21,1.34-.74,2.62-1.23,4.28h-7.01c-.69-.69-1.04-1.04-1.56-1.56v-8.25h-17.94c0,9.14,0,18.08,0,27.03,0,.14,.08,.3,.15,.43,.09,.14,.22,.25,.31,.35h2.53c2.31,0,4.63,.1,6.94-.05,1.04-.07,2.04-.62,3.06-.95h4c.33,.33,.67,.67,1,1v17Z"/><path class="cls-3" d="M54.78,9.09V26.61c2.84,.61,5.81-.09,8.84,.4v8.69h-26.53c-2.36,3.04-1.06,6.29-1.27,9.29-.21,3.13-.05,6.29-.05,9.85-1.69,0-3.3,.03-4.92,0-1.44-.03-3.12,.56-4.1-2.5v-16.35h-8.93c.27-3.13-1.03-6.2,1.09-9.09h26.81V9.09h9.04Z"/><path class="cls-3" d="M126.78,26.84c.6,1.39,1.7,2.52,.34,4.33-.9,1.21-.79,3.13,1.04,4.5h15.99c.57,.62,1.01,1.11,1.51,1.66v7.12c-.46,.46-.82,.82-1.32,1.32h-17.49v17.94h-17.86v-8.8h7.78c.34-1.05,.67-2.06,1.01-3.07V27.84c.67-.33,1.33-.67,2-1h7Z"/><path class="cls-3" d="M63.7,72.97v7.45c-.43,.43-.79,.79-1.31,1.31h-7.51v8.98h-9.02v-8.78H18.01v-8.96H63.7Z"/><path class="cls-3" d="M17.88,117.66v-8.71h8.81v-16.53c.71-.71,1.06-1.06,1.5-1.5h7.44v17.79h8.53c.71,.71,1.06,1.06,1.52,1.52v7.43H17.88Z"/><path class="cls-1" d="M94.06,5.99c-1.6,2.22-3.25,4.52-4.89,6.81h-2.34c-.77-1.69-1.6-3.5-2.45-5.36,1.68-1.13,3-2.01,4.33-2.9,.05-1.19,.1-2.31,.16-3.5h31.81c-.41,2.19-.79,4.19-1.23,6.5,1.53,.17,2.77,.32,4.17,.47v6.48c-.33,.33-.8,.8-1.56,1.56-2.16-.72-4.5-1.5-7.07-2.36-.8-2.34-1.66-4.82-2.66-7.74-1.85-.6-4.16-1.8-6.55-1.99-2.12-.17-4.56,.45-6.46,1.17-1.8,.69-3.51,.24-5.26,.86Z"/><path class="cls-3" d="M45.87,135.68v-8.66h8.84c.16-3.03,.02-5.94,.09-9h7.67c.25,.27,.7,.76,1.22,1.31v16.35h-17.82Z"/><path class="cls-1" d="M84.78,63.84h-2.53c-.09-.1-.22-.21-.31-.35-.08-.13-.15-.29-.15-.43,0-8.95,0-17.89,0-27.03h17.94v8.25c.52,.52,.87,.87,1.56,1.56h4.5c-.18,3.26-2.9,5.12-4.11,7.87h-2.64c-.2-4.11-2.07-8.09-1.1-12.22-.62-.62-1.09-1.09-1.56-1.56-3.58-.98-5.96,3.01-9.44,1.87-1.23,2.48-2.19,4.58-2.16,7.05,.05,5,.02,9.99,.02,14.99Z"/><path class="cls-3" d="M8.94,63.59v-17.66h8.67v17.66H8.94Z"/><path class="cls-1" d="M108.78,31.84v-14h-9c.33-1,.65-2,1.11-3.43,3.71,1.42,7.42,.99,10.89,2.34,0,2.16-.05,3.95,.02,5.74,.04,1.1-.03,2.36,.48,3.25,1.38,2.41-.12,4.16-1.01,6.09h-2.48Z"/><path class="cls-1" d="M94.78,26.84h-13v-2c3.26-.33,6.52-.68,9.78-.99,.62-.06,1.25,0,2.27,0,.32,1.02,.63,2.01,.95,3Z"/><path class="cls-1" d="M128.13,10.91h6.25c1.02,1.59,.27,2.72-1.02,3.83h-5.16c.15-.15,.3-.3,.46-.45-.77-.32-1.54-.64-2.31-.96-.02-.32-.05-.63-.07-.95,.81-.27,1.62-.54,2.43-.81-.19-.22-.38-.43-.57-.65Z"/><path class="cls-1" d="M99.78,17.84v9h-3c-.05-1.27,.41-2.68-1.05-3.59,.35-1.01,.8-2.01,1.03-3.05,.37-1.67,1.24-2.56,3.02-2.35Z"/><path class="cls-1" d="M99.78,67.84v-4q2.69,.74,2.83,4h-2.83Z"/><path class="cls-1" d="M82.55,.77c1.46,.1,2.35,.17,4.05,.29-1.27,1.39-2.03,2.22-3.31,3.62-.3-1.6-.46-2.43-.74-3.91Z"/><path class="cls-1" d="M98.78,62.84h-4v-1.83c1.2-.06,2.43-.13,4-.21v2.04Z"/><path class="cls-1" d="M119.78,26.84c-.67,.33-1.33,.67-2,1-.36-.18-.72-.37-1.48-.76,1-.98,1.78-1.75,3.07-3.01,.21,1.41,.31,2.09,.42,2.77Z"/><path class="cls-1" d="M117.78,30.84v3h-1.81c-.07-.86-.15-1.76-.26-3h2.07Z"/><path class="cls-3" d="M135.69,73.01v8.66h-17.21c-.3,.28-.44,.38-.53,.51-.08,.12-.16,.28-.16,.43,0,5.63,0,11.26,0,17.06h-26.9c-.22-2.69-.04-5.59-.11-8.66h17.31c.3-.28,.44-.38,.53-.51,.08-.12,.16-.28,.16-.43,0-5.63,0-11.26,0-17.06h26.91Z"/><path class="cls-3" d="M117.7,109v17.67h-8.73c-.56-2.66,.12-5.62-.36-8.66h-8.72c-.22-3.04-.06-5.95-.13-9.01h17.94Z"/><path class="cls-3" d="M126.96,90.93h9.65v17.74c-1.38,.05-2.97,.13-4.55,.16-1.64,.03-3.28,0-5.1,0v-17.91Z"/></g></svg>