<?xml version="1.0" encoding="UTF-8"?><svg id="Layer_2" xmlns="http://www.w3.org/2000/svg" viewBox="0 0 183.04 122.39"><defs><style>.cls-1{fill:#7d461e;}.cls-2{fill:#bc6c37;}.cls-3{fill:#fefefe;}</style></defs><g id="Layer_3"><path class="cls-2" d="M47.99,.12c4.64,1.67,9.24,3.46,13.93,4.97,11.62,3.74,23.31,7.27,34.91,11.08,3.74,1.23,6.73,3.96,9.91,6.23,3.49,2.49,6.88,5.13,10.3,7.73,3.55,2.7,7.03,5.51,10.64,8.13,1.99,1.44,3.2,3.82,5.42,4.79,2.27,.99,3.91,2.69,5.79,4.1,4.83,3.63,10.02,6.74,14.55,10.82,2.57,2.32,5.66,4.05,8.41,6.18,3.52,2.73,7.64,4.66,10.67,8.02,1.04,1.16,3.22,.93,3.49,2.96-5.2,2.11-9.49,5.88-14.62,8.08-5.14,2.21-9.48,5.86-14.74,8.03-3.17-1.17-6.42-2.17-9.51-3.54-7.73-3.44-15.39-7.04-23.08-10.58-.7-.32-1.41-.99-2.08-.94-2.25,.18-3.84-1.15-5.69-2.02-4.18-1.96-8.22-4.43-12.61-5.65-3.45-.96-6.17-4.05-10.1-3.41-.11,.02-.25-.19-.37-.29-.12-.45-.23-.9-.32-1.24-1.2-.5-2.3-1.07-3.47-1.44-4.43-1.41-8.48-3.63-12.68-5.56-4.15-1.9-8.45-3.74-12.87-5.04-3-.88-5.4-2.53-7.57-4.64-1.9-1.86-3.8-3.73-5.64-5.65-1.92-2.01-3.7-4.16-5.66-6.13-1.78-1.78-3.76-3.36-5.57-5.12-.91-.89-1.54-2.05-2.43-2.97-2.26-2.34-4.57-4.62-6.9-6.89-.29-.28-.77-.37-1.02-.48v-1.85c1.34-1,2.48-2.58,3.57-2.55,3.28,.09,4.45-3.56,7.43-3.7,5.15-3.49,10.48-6.67,16.04-9.47,.77-.39,1.27-1.29,1.89-1.96Zm49,41.69c-4.64-2.68-9.21-5.28-13.75-7.95-4.47-2.63-9.42-4.52-13.42-8.38,2.32-1.37,4.32-2.55,6.13-3.61v-2.3c-2.31-1.71-4.51-1.62-6.88-.09-1.8,1.16-3.82,1.96-5.71,2.9-3.31-1.92-6.38-3.7-9.6-5.57-1.01,1.09-1.88,2.04-2.7,2.93v2.19c1.99,1.14,4.02,2.31,6.48,3.72-2.34,1.5-4.32,2.76-6.43,4.11v2.21c1.37,.78,2.72,1.55,4.01,2.29,3.1-1.82,6.04-3.54,8.66-5.07,9.94,5.73,19.62,11.31,29.42,16.96,1.24-.75,2.58-1.55,3.8-2.28v-2.06Z"/><path class="cls-1" d="M47.99,.12c-.62,.67-1.13,1.58-1.89,1.96-5.56,2.8-10.89,5.98-16.04,9.47-2.97,.15-4.14,3.79-7.43,3.7-1.1-.03-2.24,1.54-3.57,2.55v1.85c.25,.11,.73,.2,1.02,.48,2.32,2.27,4.64,4.55,6.9,6.89,.88,.92,1.52,2.08,2.43,2.97,1.8,1.76,3.79,3.33,5.57,5.12,1.96,1.97,3.74,4.12,5.66,6.13,1.84,1.93,3.74,3.79,5.64,5.65,2.17,2.12,4.57,3.76,7.57,4.64,4.42,1.3,8.72,3.14,12.87,5.04,4.2,1.92,8.25,4.15,12.68,5.56,1.17,.37,2.27,.94,3.47,1.44,.09,.34,.21,.79,.32,1.24,.12,.1,.27,.3,.37,.29,3.94-.64,6.65,2.45,10.1,3.41,4.39,1.22,8.43,3.69,12.61,5.65,1.85,.86,3.43,2.2,5.69,2.02,.66-.05,1.38,.62,2.08,.94,7.69,3.54,15.34,7.14,23.08,10.58,3.09,1.37,6.34,2.37,9.51,3.54,5.26-2.17,9.6-5.83,14.74-8.03,5.13-2.2,9.43-5.97,14.62-8.08,2.32,1.28,4.63,2.56,7.04,3.9-1.46,3.27-4.77,3.4-6.9,5.26v17.13c-3.31,1.94-6.41,3.71-9.46,5.55-2.81,1.69-5.44,3.72-8.38,5.1-3.97,1.86-7.6,4.2-11.3,6.5-2.35,1.46-4.93,2.53-7.55,3.84-3.68-1.76-7.17-3.84-10.93-5.15-8.32-2.89-15.89-7.44-24.18-10.39-4.19-1.49-8.05-3.86-12.11-5.72-3.92-1.79-7.95-3.33-11.84-5.17-3.91-1.85-7.88-3.47-11.91-5.02-4.87-1.87-9.41-4.61-14.16-6.8-6.71-3.09-13.48-6.05-20.25-9.01-1.93-.84-3.57-1.98-5.06-3.48C19.73,62.31,10.41,53.03,1.08,43.71c-.36-1.99-1.47-4.23-.94-5.97,1.37-4.55,.54-9.09,.85-13.62,.67,.33,1.33,.67,2,1,.32,.49,.94,.99,.91,1.46-.11,1.75,1.01,1.56,2.14,1.49-.02,.01-.08,.08-.15,.14,.23,.27,.46,.54,.7,.82,.11-.11,.21-.21,.32-.32-.27-.23-.54-.46-.86-.64-.05-.86-.05-1.78-.05-2.95H2.99v-3c.47-1.76,1.77-2.12,3.51-1.99,1.64-1.83,3.78-3.02,6.05-4.23,6-3.21,11.73-6.95,17.59-10.42,2.12-1.25,4.54-2.09,6.44-3.6,1.76-1.41,2.9-.5,4.39,.31,2.12-1.24,4.3-2.61,7.02-2.08ZM8.99,31.12c.33,.33,.67,.67,.91,1.01,.57,1.07,1.13,2.1,1.74,3.24,.65-.36,1.03-.58,1.47-.83-.48-1.66-1.31-2.67-3.12-2.42-.33-.33-.67-.67-1.09-.9,.07-.07,.13-.13,.2-.2-.23-.27-.46-.54-.7-.82-.11,.11-.21,.21-.32,.32,.27,.23,.54,.46,.91,.59Zm4.25,4.75c3.36,3.36,6.14,5.97,8.73,8.77,2.54,2.75,5.84,4.83,7.38,8.24,1.23,.56,2.37,1.04,3.47,1.57,6.52,3.17,12.89,6.69,19.58,9.42,4.99,2.03,9.95,4.13,14.95,6.14,2.28,.92,4.48,2.06,6.7,3.11,2.09,.99,4.14,2.72,6.26,2.82,2.92,.13,4.27,2.63,6.73,3.23,1.16,.28,2.12,1.32,3.27,1.73,7.4,2.65,14.54,5.9,21.67,9.21,5.31,2.46,10.83,4.41,16.09,6.99,3.73,1.83,7.54,3.49,11.45,5.28,1.57-.86,3.07-1.67,4.61-2.51-3.02-2.71-6.77-3.57-9.89-5.64-1.98-1.32-4.72-1.41-6.98-2.39-2.4-1.05-5.19-1.45-6.96-3.72-2.06,.72-2.68-1.69-4.18-1.95-4.18-.73-7.4-4.03-11.77-4.23-.82-.04-1.77-.73-2.39-1.38-1.9-1.97-4.21-2.75-6.73-2.41-.31-.95-.49-1.52-.66-2.06h-3.17c-5.98-3.27-11.8-6.89-18.82-8.08-1.12-.89-2.29-2.57-3.64-2.75-2.94-.38-5.38-1.89-7.64-3.29-2.55-1.59-6-1.18-7.93-3.85-4.83-.79-8.57-4.26-13.11-5.07-1.34-2.51-1.35-2.87-2.47-2.84-1.68,.05-2.79-1.02-3.11-2.01-.82-2.6-3.31-3.51-4.77-5.42-1.6-2.09-3.41-4.22-5.6-5.6-1.7-1.08-2.39-2.76-3.71-3.92h-4.39c.17,.21,.33,.42,.5,.63-1.02,.58-2.04,1.16-3.49,1.99Z"/><path class="cls-2" d="M2.99,25.12c-.67-.33-1.33-.67-2-1v-2H2.99v3Z"/><path class="cls-3" d="M96.99,41.8v2.06c-1.22,.73-2.56,1.53-3.8,2.28-9.8-5.65-19.48-11.23-29.42-16.96-2.62,1.53-5.56,3.25-8.66,5.07-1.3-.74-2.64-1.51-4.01-2.29v-2.21c2.11-1.35,4.08-2.61,6.43-4.11-2.46-1.41-4.49-2.58-6.48-3.72v-2.19c.82-.89,1.7-1.84,2.7-2.93,3.22,1.87,6.29,3.65,9.6,5.57,1.88-.94,3.91-1.74,5.71-2.9,2.38-1.53,4.57-1.62,6.88,.09v2.3c-1.81,1.06-3.81,2.24-6.13,3.61,4.01,3.86,8.96,5.74,13.42,8.38,4.53,2.67,9.11,5.27,13.75,7.95Z"/><path class="cls-2" d="M13.24,35.87c1.45-.83,2.47-1.41,3.49-1.99-.17-.21-.33-.42-.5-.63h4.39c1.32,1.16,2.01,2.84,3.71,3.92,2.18,1.38,4,3.51,5.6,5.6,1.46,1.92,3.96,2.82,4.77,5.42,.31,.99,1.43,2.06,3.11,2.01,1.12-.03,1.13,.33,2.47,2.84,4.54,.81,8.28,4.29,13.11,5.07,1.93,2.67,5.38,2.26,7.93,3.85,2.26,1.4,4.7,2.91,7.64,3.29,1.36,.18,2.52,1.86,3.64,2.75,7.02,1.19,12.84,4.81,18.82,8.08h3.17c.17,.54,.36,1.11,.66,2.06,2.52-.34,4.83,.44,6.73,2.41,.62,.65,1.56,1.34,2.39,1.38,4.38,.2,7.6,3.5,11.77,4.23,1.49,.26,2.12,2.68,4.18,1.95,1.76,2.26,4.56,2.67,6.96,3.72,2.25,.98,5,1.08,6.98,2.39,3.11,2.08,6.87,2.93,9.89,5.64-1.55,.84-3.04,1.66-4.61,2.51-3.91-1.79-7.72-3.45-11.45-5.28-5.26-2.58-10.78-4.53-16.09-6.99-7.13-3.3-14.27-6.56-21.67-9.21-1.15-.41-2.11-1.45-3.27-1.73-2.46-.6-3.81-3.1-6.73-3.23-2.13-.1-4.17-1.83-6.26-2.82-2.23-1.05-4.42-2.2-6.7-3.11-5-2-9.96-4.11-14.95-6.14-6.7-2.72-13.07-6.25-19.58-9.42-1.11-.54-2.24-1.02-3.47-1.57-1.55-3.41-4.85-5.49-7.38-8.24-2.59-2.8-5.37-5.42-8.73-8.77Z"/><path class="cls-2" d="M5.99,28.12c-1.08,.02-2.2,.21-2.09-1.54,.03-.46-.59-.97-.91-1.46h3v3Z"/><path class="cls-2" d="M9.91,32.13c1.9-.26,2.73,.75,3.21,2.41-.44,.25-.82,.46-1.47,.83-.61-1.14-1.17-2.17-1.74-3.24Z"/><path class="cls-2" d="M6.08,28.01c.27,.23,.54,.46,.82,.7-.11,.11-.21,.21-.32,.32-.23-.27-.46-.54-.7-.82,.07-.07,.13-.13,.2-.2Z"/><path class="cls-2" d="M8.9,31.22c-.27-.23-.54-.46-.82-.7,.11-.11,.21-.21,.32-.32,.23,.27,.46,.54,.7,.82-.07,.07-.13,.13-.2,.2Z"/><path class="cls-2" d="M9.99,32.12c-.33-.33-.67-.67-1-1,.33,.33,.67,.67,1,1Z"/></g></svg>