<?xml version="1.0" encoding="UTF-8"?><svg id="Layer_2" xmlns="http://www.w3.org/2000/svg" viewBox="0 0 66.07 71.08"><defs><style>.cls-1{fill:#9c94c5;}.cls-2{fill:#fdfdfd;}.cls-3{fill:#212122;}.cls-4{fill:#70efda;}.cls-5{fill:#f19ccd;}</style></defs><g id="Layer_3"><path class="cls-3" d="M18.17,10.25v-2.53c.75-.02,1.51-.05,2.27-.06,.78-.01,1.56,0,2.41,0v-2.52h7.77V0h2.59V4.99h10.35v2.58c1.59,.21,3.15,0,4.82,.14v2.54h-5.18v-2.59H23.34v2.59h-5.18Z"/><path class="cls-3" d="M63.48,27.94h2.37c.05,.05,.11,.09,.15,.15,.04,.05,.07,.12,.07,.18,0,6.59,0,13.18,0,19.92h-2.56v5.19h-2.17v4.69h-2.52c-.05,.88-.09,1.7-.15,2.67h-2.53v-2.59h2.2v-5.2h2.55v-2.14c.18-.99-.45-2.15,.68-3.04h1.91V27.94Z"/><path class="cls-3" d="M48.38,65.92v2.51c-1.52,.21-3.07-.02-4.67,.13v1.83c-.27,.27-.48,.47-.71,.69H23.54c-.17-.17-.33-.33-.55-.55v-1.93c-1.59-.2-3.15,0-4.82-.13v-2.54h5.12c.05,.81,.1,1.49,.14,2.16h19.71c.05-.82,.1-1.49,.14-2.16h5.1Z"/><path class="cls-3" d="M5.65,52.98H3.12c-.02-.75-.05-1.51-.06-2.27-.01-.78,0-1.56,0-2.41H.58V27.54H2.6v-4.11c.22-.22,.37-.37,.67-.67h2.37v5.12c-.96,.05-1.78,.1-2.59,.14v19.75h1.89c.3,.28,.51,.47,.7,.65v4.55Z"/><path class="cls-3" d="M48.38,10.25h5.1c.04,.67,.09,1.34,.13,2,.73,.51,1.78-.37,2.51,.99v1.73h2.54v2.52c.74,.05,1.42,.1,2.24,.16v5.11h-2.54c-.14-1.68,.07-3.23-.13-4.75h-2.08v-2.59h-2.16c-.14-.14-.29-.29-.43-.43v-2.16c-1,0-1.85,0-2.7,0-.83,0-1.66-.03-2.48-.05v-2.54Z"/><path class="cls-4" d="M2.6,68.51H.54v-2.96c.61-.03,1.29-.07,2.04-.1v-2.45h3.03v1.8c.28,.28,.48,.48,.68,.68h1.84c.23,.94,.04,1.92,.13,2.95h-2c-.25,.89-.49,1.72-.74,2.61H3.22c-.93-.57-.49-1.51-.62-2.54Zm.46-.54h2.08v-2.06c-.75,.04-1.42,.07-2.08,.1v1.96Z"/><path class="cls-5" d="M60.82,60.36h2.46c1.04,.62,.45,1.61,.73,2.53h2.03v2.97h-2.04c-.04,.75-.08,1.43-.12,2.17h-2.93v-2.06h-2.55v-3.04h2.43v-2.56Zm2.59,5.1v-2.01h-2.02v2.01h2.02Z"/><path class="cls-5" d="M8.34,12.85h-2c-1.09,.65-.51,1.64-.76,2.49H3.12c-.2-.7-.43-1.53-.69-2.45H.69c-.22-.64-.42-1.2-.69-1.99,.36-.22,.85-.51,1.34-.8l-.25-.33h1.4c.38-.67-.31-1.59,1.07-2.04h2.04v2.05h1.91c1.2,.8,.52,1.92,.82,3.07Zm-5.25,.06c.98-.2,1.92,.3,2.57-.79-.03-.55-.07-1.21-.1-1.79H3.09v2.58Z"/><path class="cls-1" d="M58.74,7.66h2.11v-2.53h-2.11V2.59h2.05c.11,.11,.26,.26,.48,.48v1.94c.74,.03,1.41,.06,2.15,.1v2.49c-.61,.03-1.29,.06-2.03,.1v2.44h-2.65v-2.48Z"/><path class="cls-3" d="M5.65,22.76v-5.13h2.53c.03-.73,.07-1.4,.1-2.21h2.11v2.16c-.11,.14-.21,.4-.33,.41-.61,.04-1.22,.02-1.87,.02v4.75h-2.54Z"/><path class="cls-3" d="M12.99,12.84v-2.59h5.18v2.59h-5.18Z"/><path class="cls-3" d="M53.56,63.33v2.59h-5.18c0-.69-.03-1.38,.02-2.07,.01-.18,.27-.35,.41-.52h4.75Z"/><path class="cls-3" d="M18.17,65.92h-5.18v-2.59h4.75c.14,.17,.4,.34,.41,.52,.05,.69,.02,1.38,.02,2.07Z"/><path class="cls-3" d="M60.89,22.76h2.59v5.18h-2.59v-5.18Z"/><path class="cls-3" d="M8.24,58.15h-2.59v-5.18h2.04c.19,1.81,.37,3.49,.54,5.18Z"/><path class="cls-3" d="M56.15,60.74v2.59h-2.59v-2.59h2.59Z"/><path class="cls-3" d="M12.99,63.33h-2.59v-2.59h2.59v2.59Z"/><path class="cls-3" d="M10.4,15.43v-2.59h2.59v2.21c-.91,.13-1.75,.26-2.59,.38Z"/><path class="cls-1" d="M58.24,7.59h-2.05v-2.44h2.05v2.44Z"/><path class="cls-3" d="M10.4,60.74h-2.16v-2.59h2.16v2.59Z"/><path class="cls-5" d="M58.74,7.66v.43c-.14-.14-.29-.29-.43-.43h.43Z"/><path class="cls-5" d="M58.74,3.34v.43c-.12-.1-.24-.19-.36-.29,.12-.05,.24-.09,.36-.14Z"/><path class="cls-4" d="M48.38,10.25v2.54c.82,.02,1.65,.04,2.48,.05,.85,0,1.7,0,2.7,0v2.16c.14,.14,.29,.29,.43,.43h2.16v2.59h-4.96c-.28-.28-.43-.43-.66-.66v-1.93h-4.74v-2.53c-.96-.05-1.78-.09-2.59-.13v-2.51h5.18Z"/><path class="cls-5" d="M25.5,7.66h5.18v2.58h-1.94c-.22,.22-.5,.37-.51,.53-.07,1.55-.1,3.11-.15,4.66h-7.34v-2.58h1.89c1.13-.72,.54-1.75,.7-2.6h2.16v-2.59Z"/><path class="cls-2" d="M23.34,10.25c-.16,.85,.43,1.88-.7,2.6h-1.89v2.58h-5.11c-.06,.82-.11,1.5-.15,2.16h-5.09v-2.16c.84-.12,1.68-.25,2.59-.38v-2.21h5.18v-2.59h5.18Z"/><path class="cls-2" d="M43.2,10.25v2.51c.81,.04,1.63,.08,2.59,.13v2.53h-7.34v-5.12c-.96-.05-1.78-.09-2.59-.13v-2.51h5.18v2.59h2.16Z"/><path class="cls-5" d="M35.86,7.66v2.51c.81,.04,1.63,.08,2.59,.13v5.12h-5.18V7.66h2.59Z"/><path class="cls-4" d="M33.27,7.66v7.77h-5.18c.04-1.55,.07-3.11,.15-4.66,0-.16,.28-.3,.51-.53h1.94v-2.58h2.59Z"/><path class="cls-4" d="M43.2,10.25h-2.16v-2.59h2.16v2.59Z"/><path class="cls-2" d="M25.5,7.66v2.59h-2.16v-2.59h2.16Z"/><path class="cls-5" d="M41.04,15.43h9.48v1.93c.22,.22,.38,.38,.66,.66h7.04c.2,1.52-.02,3.07,.13,4.75h2.54v2.59h-4.67c-.26-.95-.49-1.78-.71-2.59h-11.23c-.29,.29-.44,.44-.61,.61v6.73h9.88c0,.58,.45,.42,.76,.43,1.32,.01,2.65,0,4.03,0v2.16h5.13v5.18h-20.29v-7.34H12.99v-4.74c.93-.32,1.79-.62,2.59-.89v-2.13h27.55v-1.91c-.51-1.01-1.36-.49-2.08-.81v-4.61Z"/><path class="cls-5" d="M63.48,43.05v4.73h-1.91c-1.13,.89-.51,2.04-.68,3.04h-4.68c-.06,.82-.1,1.49-.15,2.16H23.34v-7.34H58.16c.27-.97,.51-1.79,.73-2.59h4.6Z"/><path class="cls-5" d="M56.15,60.74h-2.59v2.59h-1.73c-.05-.12-.09-.24-.14-.36l-.29,.36h-1.73c-.11-.14-.22-.29-.33-.43-.18,.14-.36,.29-.54,.43-.14,.17-.4,.34-.41,.52-.05,.69-.02,1.38-.02,2.07h-5.1c-.04,.67-.09,1.34-.14,2.16h-7.27v-1.94c.29-.29,.44-.44,.67-.67h1.92v-4.73c.69,0,1.38,.03,2.07-.02,.18-.01,.35-.27,.52-.41,2.47-.31,4.88,.56,7.34,.43,.91,.08,1.78-.03,2.61-.65v-1.94h5.16v2.59Z"/><path class="cls-1" d="M63.48,32.69h-5.13v-2.16c-1.38,0-2.71,0-4.03,0-.31,0-.76,.16-.76-.43v-4.1c-.28-.28-.43-.43-.59-.59-.67-.05-1.34-.1-2-.14v-2.5h4.54c.22,.81,.45,1.64,.71,2.59h4.67v2.59h2.59v4.75Z"/><path class="cls-4" d="M63.48,43.05h-4.6c-.23,.8-.46,1.62-.73,2.59h-4.6v-7.77h9.93v5.18Z"/><path class="cls-1" d="M56.15,58.15h-5.16v1.94c-.83,.62-1.7,.73-2.61,.65,0-1.36-.03-2.71,.02-4.07,.01-.37,.3-.73,.43-1.04,.8-.06,1.47-.11,2.13-.15v-2.5h5.1c.05-.66,.09-1.34,.15-2.16h4.68v2.14h-2.55v5.2h-2.2Z"/><path class="cls-4" d="M10.4,60.74v-2.59h4.76c.2,.54,.36,.98,.56,1.5,.27,.33,.63,.75,.99,1.18,.4-.22,.69-.38,.98-.53,1.1,.77,2.34,.32,3.5,.44-.72,1.53-.66,1.67,.84,2.17,.44,.15,.84,.39,1.34,.63v1.99h2.1c.1,.96-.17,1.84,.46,2.55h-2.51c-.04-.67-.09-1.34-.14-2.16h-5.12c0-.69,.03-1.38-.02-2.07-.01-.18-.27-.35-.41-.52-.11-.14-.22-.41-.34-.41-.93-.03-1.85-.03-2.78,0-.12,0-.22,.27-.34,.41h-1.29v-2.59h-2.59Z"/><path class="cls-1" d="M25.93,68.08c-.63-.71-.36-1.59-.46-2.55h-2.1v-1.99c-.5-.24-.9-.48-1.34-.63-1.5-.5-1.56-.64-.84-2.17h6.91c0,1.36-.03,2.71,.02,4.07,.01,.37,.29,.73,.43,1.05,.8,.06,1.47,.1,2.14,.15v2.07h-4.75Z"/><path class="cls-5" d="M30.68,68.08v-2.07c-.66-.05-1.34-.09-2.14-.15-.14-.32-.42-.68-.43-1.05-.05-1.35-.02-2.71-.02-4.07,.58-.14,1.16-.35,1.75-.42,.63-.07,1.28-.02,1.93-.02h1.5v7.77h-2.59Z"/><path class="cls-4" d="M33.27,68.08v-7.34h5.18v4.73h-1.92c-.22,.22-.37,.37-.67,.67v1.94h-2.59Z"/><path class="cls-5" d="M25.5,60.74h-4.32c-1.17-.12-2.4,.33-3.5-.44-.28,.16-.58,.32-.98,.53-.36-.43-.72-.86-.99-1.18-.19-.52-.36-.96-.56-1.5h-6.92c-.18-1.69-.35-3.37-.54-5.18h-2.04v-2.59c1.71,.13,3.5-.4,5.19,.63v1.96h4.74c.59,.14,1.16,.35,1.76,.42,.64,.07,1.29,.02,1.93,.02h3.54c.25,.79-.21,1.64,.23,1.84,1.14,.35,1.83,.56,2.47,.75v4.74Z"/><path class="cls-2" d="M15.58,22.76v2.13c-.8,.28-1.66,.57-2.59,.89v4.74h-4.76c-.02,.86,.26,1.73-.78,2.16H3.06v-4.66c.81-.04,1.63-.09,2.59-.14v-2.53h4.74v-2.1c.39-.17,.75-.46,1.12-.47,1.36-.06,2.72-.02,4.07-.02Z"/><path class="cls-1" d="M15.58,52.98h-4.74v-1.96c-1.69-1.03-3.48-.5-5.19-.63v-1.96c-.19-.18-.4-.37-.7-.65h-1.89v-4.73h5.12c.05,.96,.09,1.78,.14,2.59h4.67c0,1.36-.03,2.71,.02,4.07,.01,.37,.29,.73,.43,1.05,.8,.06,1.47,.1,2.14,.15v2.07Z"/><path class="cls-2" d="M12.99,45.64h-4.67c-.04-.81-.09-1.63-.14-2.59H3.06v-5.18H12.99v7.77Z"/><path class="cls-1" d="M15.58,22.76c-1.36,0-2.72-.03-4.07,.02-.37,.02-.73,.3-1.12,.47v2.1H5.65v-2.59h2.54v-4.75c.65,0,1.26,.02,1.87-.02,.12,0,.22-.27,.33-.41h5.09c.05-.66,.1-1.34,.15-2.16h2.52v4.73h-1.89c-.3,.28-.51,.47-.7,.65v1.96Z"/><path class="cls-4" d="M12.99,37.87H3.06v-5.18H7.45c1.04-.42,.76-1.3,.78-2.16h4.76v7.34Z"/><path class="cls-1" d="M53.99,15.43c-.14-.14-.29-.29-.43-.43,.14,.14,.29,.29,.43,.43Z"/><path class="cls-2" d="M3.06,67.97v-1.96c.66-.03,1.33-.07,2.08-.1v2.06H3.06Z"/><path class="cls-2" d="M63.41,65.46h-2.02v-2.01h2.02v2.01Z"/><path class="cls-2" d="M3.09,12.9v-2.58h2.47c.03,.58,.07,1.25,.1,1.79-.65,1.08-1.6,.59-2.57,.79Z"/><path class="cls-1" d="M48.81,63.33c.18-.14,.36-.29,.54-.43,.11,.14,.22,.29,.33,.43h-.86Z"/><path class="cls-1" d="M51.4,63.33l.29-.36c.05,.12,.09,.24,.14,.36h-.43Z"/><path class="cls-1" d="M14.28,63.33c.11-.14,.22-.41,.34-.41,.93-.03,1.85-.03,2.78,0,.12,0,.22,.27,.34,.41h-3.45Z"/><path class="cls-2" d="M33.27,22.76h-9.93v-2.52c.82-.06,1.5-.11,2.16-.15v-4.66h7.77v7.34Z"/><path class="cls-4" d="M25.5,15.43v4.66c-.66,.05-1.34,.1-2.16,.15v2.52h-7.77v-1.96c.19-.18,.4-.37,.7-.65h1.89v-4.73h7.34Z"/><path class="cls-4" d="M33.27,22.76v-7.34h7.77v4.61c.72,.32,1.57-.2,2.08,.81v1.91h-9.85Z"/><path class="cls-1" d="M12.99,37.87v-7.34h10.36v7.34h9.93v7.77h-10.36c.14-.79,.35-1.58,.41-2.38,.07-.92,0-1.85,.02-2.77,.03-.91,0-1.78-.64-2.61H12.99Z"/><path class="cls-1" d="M53.56,37.87v7.77h-10.36c-.23-.73,.45-1.28,.43-1.96-.07-1.94,.27-3.91-.43-5.81h10.36Z"/><path class="cls-2" d="M33.27,37.87h-9.93v-7.34h9.93v7.34Z"/><path class="cls-1" d="M33.27,37.87v-7.34h9.93v7.34h-9.93Z"/><path class="cls-4" d="M50.97,22.76v2.5c.66,.05,1.33,.1,2,.14,.16,.16,.31,.31,.59,.59v4.1h-9.88v-6.73c.16-.16,.32-.32,.61-.61h6.69Z"/><path class="cls-4" d="M22.91,45.64h.43v7.34h9.93v7.34h-1.5c-.64,0-1.29-.06-1.93,.02-.59,.07-1.17,.27-1.75,.42h-2.59v-4.74c-.63-.19-1.33-.41-2.47-.75-.44-.21,.02-1.05-.23-1.84h-3.54c-.65,0-1.3,.06-1.93-.02-.59-.07-1.17-.27-1.76-.42v-2.07c-.66-.05-1.34-.09-2.14-.15-.14-.32-.42-.68-.43-1.05-.05-1.35-.02-2.71-.02-4.07h9.93Z"/><path class="cls-4" d="M33.27,37.87h9.93c.7,1.89,.36,3.87,.43,5.81,.02,.68-.65,1.23-.43,1.96h-9.93v-7.77Z"/><path class="cls-1" d="M33.27,60.31v-7.34h10.36v1.94l-.67,.67h-1.92v4.73c-.17,.14-.34,.4-.52,.41-.69,.05-1.38,.02-2.07,.02h-5.18v-.43Z"/><path class="cls-4" d="M41.04,60.31v-4.73h1.92l.67-.67v-1.94h7.34v2.5c-.66,.05-1.33,.1-2.13,.15-.14,.32-.42,.67-.43,1.04-.05,1.35-.02,2.71-.02,4.07-2.46,.13-4.87-.74-7.34-.43Z"/><path class="cls-5" d="M22.91,45.64H12.99v-7.77h9.73c.64,.83,.67,1.71,.64,2.61-.03,.92,.05,1.85-.02,2.77-.06,.8-.27,1.59-.41,2.38Z"/></g></svg>