<?xml version="1.0" encoding="UTF-8"?><svg id="Layer_2" xmlns="http://www.w3.org/2000/svg" viewBox="0 0 108.08 122.83"><g id="Layer_3"><path d="M27.9,118v-.97c0-5.67-.01-11.35,.01-17.02,0-.87,.01-1.79,.26-2.61,.28-.91,.39-1.87,.78-2.75,.39-.86,.77-1.73,1.17-2.59,.63-1.37,1.52-2.55,2.48-3.71,.49-.59,.96-1.2,1.53-1.72,.65-.59,1.31-1.18,2.02-1.68,1.29-.91,2.7-1.64,4.12-2.31,.62-.29,1.29-.51,1.94-.73,.61-.21,1.28-.34,1.92-.49,.81-.19,1.66-.25,2.5-.25,5.32-.02,10.64-.01,15.96-.01,1.51,0,3.78,.46,5.48,1.04,1.08,.36,2.13,.77,3.11,1.34,1.26,.73,2.53,1.46,3.58,2.51,.37,.37,.86,.64,1.22,1.02,.51,.52,1,1.06,1.42,1.66,.73,1.02,1.48,2.03,2.03,3.17,.71,1.49,1.36,2.99,1.69,4.63,.18,.88,.3,1.77,.48,2.64,.33,1.59,.16,3.18,.18,4.76,.04,4.22,.01,8.43,.01,12.65v1.17c-.9,.4-1.76,.78-2.63,1.16-1.51,.66-3.11,1.07-4.68,1.55-1.37,.42-2.81,.54-4.15,1.1-.47,.2-1.02,.05-1.56,.23-.7,.24-1.5,.23-2.25,.26-.53,.02-.99,.34-1.56,.27-.51-.06-1.09-.21-1.56,.21-.04,.04-.15,.01-.23,0-1.63-.18-3.23,.31-4.87,.25-1.61-.06-3.25,.15-4.84-.06-1.36-.18-2.7-.09-4.05-.2-.52-.04-1.01-.28-1.56-.24-.52,.04-1.03-.04-1.57-.19-.79-.22-1.66-.18-2.49-.28-.37-.04-.72-.16-1.09-.23-.33-.06-.64,0-1-.17-.48-.24-1.09-.03-1.66-.27-.5-.21-1.23-.02-1.63-.31-.49-.36-1.12,.09-1.49-.43-1.01,.13-1.85-.61-2.85-.53-.8-.48-1.8-.37-2.59-.89-1.27-.09-2.42-.61-3.62-1Z"/><path d="M24.07,106.25c-.85-.16-1.71,.23-2.51-.25-.09-.05-.23-.01-.35,0-1.34,.04-2.66-.03-3.94-.47-.86,.18-1.66-.23-2.5-.27-.96-.05-1.93-.25-2.85-.53-.3-.09-.59-.1-.88-.16-.29-.06-.56-.17-.85-.23-1.2-.23-2.38-.51-3.56-.81-1.07-.28-2.13-.59-3.2-.85-.99-.25-2-.47-2.92-.94-.17-.08-.32-.19-.51-.3v-1.06c0-4.92-.01-9.85,.01-14.77,0-1.15,.35-2.28,.23-3.45,.41-.49,.13-1.11,.3-1.65,.56-1.7,1.04-3.42,1.92-5,.53-.94,1.11-1.84,1.76-2.7,1.02-1.37,2.23-2.53,3.56-3.6,1.14-.91,2.31-1.79,3.63-2.38,1.39-.62,2.8-1.25,4.33-1.53,1.31-.24,2.61-.46,3.94-.46,4.77,.01,9.53,0,14.3,0h1.16c.41,2.37,.68,4.73,1.67,6.92,1.07,2.38,2.41,4.55,4.27,6.39-.08,.58-.65,.43-.97,.55-1.65,.63-3.21,1.4-4.71,2.34-1.52,.96-2.91,2.04-4.19,3.28-1.99,1.94-3.5,4.21-4.73,6.67-.41,.81-.88,1.63-1.07,2.5-.18,.79-.62,1.52-.6,2.36,0,.32-.1,.66-.23,.96-.27,.58-.13,1.21-.24,1.79-.5,2.48-.03,4.98-.27,7.62Z"/><path d="M68.39,78.53c.34-.5,.52-.87,.79-1.16,1.57-1.59,2.74-3.44,3.64-5.47,.56-1.28,1.01-2.6,1.18-4,.06-.45,.33-.83,.26-1.32-.07-.46-.01-.94-.01-1.38l.35-.35h.48c4.29,0,8.59,.04,12.88-.02,1.25-.02,2.47,.12,3.68,.31,.91,.14,1.87,.32,2.74,.78,.57,.3,1.25,.39,1.84,.68,1.43,.72,2.73,1.64,4.02,2.57,1.18,.86,2.18,1.89,3.12,2.97,1.23,1.42,2.15,3.08,2.95,4.79,.29,.63,.57,1.27,.74,1.94,.15,.61,.32,1.2,.51,1.8,.15,.48-.04,1.06,.27,1.55-.08,1.39,.27,2.76,.26,4.16-.06,4.92-.02,9.85-.02,14.85-.91,.47-1.83,1.03-2.8,1.44-.97,.41-2.01,.66-3.02,.99-1.08,.36-2.19,.63-3.28,.94-.88,.25-1.81,.34-2.68,.66-.44,.16-.94,.06-1.44,.22-.71,.23-1.5,.18-2.25,.28-.44,.06-.88,.15-1.32,.23-.44,.08-.94-.21-1.32,.23-.02,.02-.08,0-.12,0-1.38,.05-2.78-.18-4.23,.38,0-1.53-.03-2.9,0-4.27,.04-1.44-.42-2.84-.25-4.27-.41-1.11-.45-2.31-.82-3.44-.49-1.53-1.04-3.04-1.8-4.46-.52-.97-1.12-1.91-1.75-2.82-.9-1.3-1.87-2.56-3.1-3.55-1.11-.9-2.18-1.86-3.39-2.63-1.15-.72-2.39-1.27-3.59-1.89-.73-.38-1.45-.71-2.53-.74Z"/><path d="M71.17,17.37c0,.32,0,.63,0,.95,.04,1.45-.4,2.81-.8,4.16-.27,.9-.61,1.79-1.08,2.62-.73,1.27-1.44,2.54-2.49,3.58-1.1,1.08-2.12,2.24-3.48,3.01-.89,.5-1.75,1.11-2.71,1.45-.85,.3-1.69,.77-2.65,.74-.49,.42-1.14,.06-1.64,.33-.57,.3-1.14,.09-1.71,.14-.51,.04-1.03-.03-1.53,.02-.67,.07-1.27-.2-1.91-.24-.64-.04-1.22-.31-1.83-.42-.93-.17-1.75-.54-2.57-.95-.82-.41-1.65-.79-2.43-1.26-.99-.59-2.8-2.62-3.7-3.63-.68-.77-1.12-1.68-1.72-2.5-.44-.61-1.4-3.52-1.59-4.31-.41-1.7-.54-3.41-.42-5.13,.13-1.85,.59-3.61,1.35-5.35,.67-1.54,1.56-2.93,2.51-4.26,.68-.95,1.62-1.75,2.58-2.5,.89-.69,1.82-1.3,2.8-1.84,1.28-.71,2.68-1.16,4.13-1.46,.84-.17,1.68-.36,2.53-.43,.9-.08,1.83-.14,2.71,.02,1.01,.18,2.09,.14,3.02,.68,1.26,.04,2.34,.62,3.41,1.19,.88,.47,1.73,.99,2.53,1.63,.79,.63,1.52,1.32,2.21,2.05,1.2,1.28,2.21,2.72,2.93,4.34,.26,.6,.36,1.29,.7,1.83,.37,.59,.18,1.33,.63,1.87,.1,1.23,.2,2.45,.31,3.68-.02,0-.05,0-.07,0Z"/><path d="M54.69,80.05c-1.15,0-2.25-.3-3.37-.5-1.68-.31-3.1-1.05-4.58-1.82-1.66-.87-2.9-2.16-4.08-3.5-1.24-1.41-2.21-3.02-2.72-4.89-.27-1-.51-2-.74-3.01-.28-1.25-.07-2.47-.18-3.7,.41-.92,.31-1.95,.66-2.92,.32-.9,.7-1.76,1.08-2.63,.87-1.94,2.14-3.6,3.77-4.92,1.84-1.49,3.86-2.67,6.24-3.19,1-.22,1.97-.46,3-.47,.39,0,.8-.36,1.2-.2,.75,.31,1.53,.11,2.27,.24,1.01,.18,2.02,.42,2.99,.76,1.65,.58,3.06,1.58,4.51,2.54,1.23,.82,1.91,2.09,2.97,3.03,.82,1.63,1.99,3.08,2.31,4.96,.07,.44,.05,.97,.25,1.3,.25,.43,.06,.85,.21,1.22,.33,.79,.21,1.59,.22,2.39,0,1.13-.28,2.24-.55,3.32-.16,.62-.2,1.3-.61,1.88-.37,.53-.61,1.16-.86,1.77-.42,1.01-1.08,1.88-1.78,2.68-1.11,1.26-2.28,2.5-3.86,3.21-.86,.88-2.13,.97-3.1,1.65-.73-.03-1.36,.35-2.05,.46-1.06,.17-2.13,.22-3.2,.32Z"/><path d="M42.8,48.84c-3.92,3.16-6.28,7.14-7.25,12.27-.14,.1-.48,.4-.87,.61-.67,.36-1.36,.71-2.07,.99-.71,.28-1.46,.47-2.2,.67-.69,.18-1.42,.24-2.13,.28-.79,.04-1.58,.03-2.36,0-1.61-.06-3.14-.52-4.64-1.07-1.14-.42-2.19-1.01-3.2-1.72-.59-.41-1.1-.9-1.68-1.31-.54-.39-.98-.94-1.39-1.52-.45-.64-.97-1.24-1.4-1.91-.76-1.18-1.47-2.82-1.79-4.23-.22-.99-.48-1.97-.47-3,0-1.02-.12-2.07,.03-3.07,.19-1.27,.47-2.56,.95-3.73,.48-1.17,1.08-2.33,1.84-3.38,1.15-1.58,2.52-2.96,4.12-4.04,1.38-.93,2.92-1.62,4.59-2.03,1-.25,1.97-.47,3.01-.44,.37,0,.67-.3,1.09-.24,2.09,.29,4.19,.45,6.19,1.32,1.79,.77,3.37,1.76,4.73,3.13,.82,.82,1.74,1.57,2.32,2.59,.41,.73,1.02,1.35,1.18,2.23,.11,.6,.72,1.04,.69,1.72,.46,.34,.03,.99,.47,1.34-.07,.77,.34,1.48,.26,2.27-.09,.77-.02,1.57-.02,2.27Z"/><path d="M74.28,62.23c-.22-3.05-1.27-5.77-2.79-8.26-1.56-2.54-3.64-4.64-6.29-6.26,.1-1.14,.12-2.3,.34-3.42,.16-.85,.6-1.64,.88-2.47,.87-2.63,2.75-4.5,4.69-6.33,1.07-1,3.59-2.39,5.12-2.74,1.01-.23,2-.66,3.09-.56,.31,.03,.64-.15,.96-.22,.82-.16,1.58,.27,2.38,.23,.84-.04,1.61,.27,2.41,.44,.77,.16,1.51,.37,2.21,.68,1.54,.68,2.89,1.65,4.21,2.72,1.19,.98,2.1,2.15,2.87,3.42,1,1.67,1.84,3.39,2.16,5.38,.28,1.72,.22,3.42,.14,5.11-.06,1.26-.45,2.52-.94,3.73-.49,1.2-1.08,2.34-1.85,3.37-.87,1.16-1.78,2.25-2.97,3.15-.81,.61-1.64,1.24-2.52,1.67-1.1,.54-2.23,1.1-3.47,1.31-.85,.14-1.65,.49-2.52,.48-.91,0-1.82,.09-2.72-.02-1.75-.23-3.52-.46-5.09-1.39-.06-.03-.15-.01-.3-.02Z"/><path d="M65.79,36.03c-1.96,3.06-3.28,6.22-3.41,9.85-.55,.26-1.06-.11-1.57-.27-.81-.26-1.63-.44-2.45-.65-.72-.18-1.44-.15-2.15-.22-.48-.05-.93-.33-1.44-.22-1.75,.38-3.6,.16-5.28,.94-1.35,.03-2.37,.89-3.58,1.38-.37-3.84-1.26-7.53-3.61-10.72,.67-.33,1.37-.25,2.02-.37,2.01-.39,4.03-.15,6.05-.2,2.01-.05,4.01-.01,6.02-.01s4.09-.05,6.14,.02c1.07,.04,2.13,.3,3.25,.47Z"/></g></svg>