<?xml version="1.0" encoding="UTF-8"?><svg id="Layer_2" xmlns="http://www.w3.org/2000/svg" viewBox="0 0 129.32 87.22"><defs><style>.cls-1{fill:#484b72;}.cls-2{fill:#020203;}.cls-3{fill:#fefefe;}</style></defs><g id="Layer_3"><path class="cls-2" d="M94.09,85.48l-.74,1.74c-.3-.07-8.02-3.33-8.92-3.76l.74-1.75-1.77-.75c2.77-6.52,5.53-13.02,8.3-19.53-19.54-8.3-39.08-16.59-58.63-24.9-2.05,4.82-4.1,9.65-6.15,14.48-.25-.11-.49-.08-.72,.05-.2,.12-.4,.25-.42,.52,0,.11,.01,.22,.02,.31,.04,.07,.09,.13,.11,.21,.06,.2,.19,.32,.36,.42l-1.46,3.43c-.11,.09-.2,.05-.28,.01-.53-.23-1.07-.45-1.6-.68,.3-.71,.6-1.42,.91-2.13,.03-.07,.06-.15,.12-.21,.12-.12,.17-.25,.18-.43,0-.13,.1-.25,.16-.37,.05-.09,.16-.19,.14-.26-.03-.17,.06-.29,.12-.43,6.5-15.32,13.01-30.63,19.51-45.95l1.8,.77s.01,.02,.01,.03c0,.01,0,.02,0,.03-2.76,6.49-5.51,12.98-8.28,19.49,19.55,8.3,39.09,16.6,58.62,24.89,.16,0,.22-.07,.21-.22l-.1-.04,.39-.92c.11,.07,.22,.15,.33,.22,.07-.06,.14-.12,.21-.18-.05-.1-.1-.2-.15-.31,.13-.16,.25-.31,.4-.48l-.33-.14c.39-.93,.78-1.86,1.18-2.78,.2-.47,.3-.98,.53-1.44,.23-.47,.41-.96,.62-1.44l.6-1.41,.61-1.44,.61-1.44,.61-1.44,.61-1.44,.6-1.41,.61-1.44,.61-1.44,.15-.34,1.84,.78c-7.04,16.57-14.08,33.15-21.11,49.72,0,0,0,.02,0,.03,0,.01,0,.02,.01,.03,2.94,1.25,5.88,2.5,8.82,3.74ZM35.33,31.19l-1.5,3.54c1.78,.76,3.55,1.51,5.31,2.26l3.7,1.57,3.67,1.56,3.7,1.57,3.7,1.57,3.67,1.56,3.7,1.57,3.7,1.57,3.7,1.57,3.67,1.56,3.7,1.57,3.7,1.57c1.22,.52,2.44,1.05,3.67,1.56,1.23,.51,2.42,1.11,3.7,1.5,.06,.13,.19,.16,.31,.21,1.57,.67,3.14,1.34,4.72,2l.33,.14,.37-.87c.35-.83,.71-1.66,1.05-2.49,.03-.06,.13-.13,.02-.21l1.53-3.6c-1.32-.62-58.31-24.79-58.63-24.87l-1.52,3.57Z"/><path class="cls-2" d="M14.09,51.51l-1.74-.74s-.01-.02-.01-.03c0-.01,0-.02,0-.03,.49-1.16,.98-2.31,1.48-3.49l-8.92-3.79,.75-1.78c2.97,1.26,5.94,2.52,8.91,3.78,5.53-13.03,11.06-26.05,16.58-39.05-.02-.05-.03-.09-.05-.14-2.94-1.25-5.88-2.5-8.82-3.75l.74-1.74s.02-.01,.03-.01c.01,0,.02,0,.03,0,2.95,1.25,5.89,2.5,8.86,3.76l1.5-3.54,1.78,.76c-7.05,16.59-14.09,33.18-21.14,49.77Z"/><path class="cls-2" d="M107.03,84.71l-.74,1.74s-.02,.01-.03,.01c-.01,0-.02,0-.03,0-2.95-1.25-5.89-2.5-8.86-3.76l-1.5,3.54-1.78-.76,21.14-49.77c.58,.25,1.16,.49,1.74,.74,0,.01,.01,.02,.01,.03,0,.01,0,.02,0,.03-.49,1.16-.98,2.31-1.48,3.49,2.97,1.26,5.93,2.52,8.92,3.79l-.75,1.78c-2.95-1.25-5.89-2.5-8.82-3.75-.06,.03-.1,.04-.13,.05-.96,2.11-16.48,38.72-16.56,39.07,2.96,1.26,5.92,2.51,8.88,3.77Z"/><path class="cls-2" d="M5.65,41.66l-1.74-.74s-.01-.02-.01-.03c0-.01,0-.02,0-.03,1.5-3.54,3-7.07,4.51-10.63l-3.54-1.5,.76-1.78c1.18,.5,2.35,1,3.53,1.5,.57-1.2,5.95-13.92,6.02-14.24l-3.51-1.49,.74-1.74s.02-.01,.03-.01c.01,0,.02,0,.03,0,1.16,.49,2.31,.98,3.49,1.48,1.51-3.56,3.02-7.11,4.54-10.69l1.78,.75C16.74,15.56,11.19,28.61,5.65,41.66Z"/><path class="cls-2" d="M117.63,74.5l-.74,1.74s-.02,.01-.03,.01c-.01,0-.02,0-.03,0-1.16-.49-2.31-.98-3.49-1.48-1.51,3.56-3.02,7.11-4.54,10.69l-1.78-.75c5.54-13.05,11.08-26.1,16.62-39.15,.58,.25,1.16,.49,1.74,.74,0,.01,.01,.02,.01,.03,0,.01,0,.02,0,.03-1.5,3.54-3,7.07-4.51,10.63l3.54,1.5-.76,1.78-3.53-1.5c-.57,1.2-5.95,13.92-6.02,14.24l3.51,1.49Z"/><path class="cls-2" d="M5.63,26.94l-1.74-.74s-.01-.02-.01-.03c0-.01,0-.02,0-.03,.24-.57,.48-1.13,.73-1.71l-3.56-1.51s-.02-.04-.02-.05c0-.01,0-.02,0-.03,.24-.57,.48-1.13,.73-1.71l-1.75-.74,3.03-7.15,1.71,.72s.04-.01,.05-.02c0,0,.02-.01,.02-.02,.24-.57,.48-1.13,.73-1.71l3.49,1.48s.04-.01,.05-.02c0,0,.02-.01,.02-.02,.24-.57,.48-1.13,.73-1.72l1.84,.78-1.5,3.54c-1.36-.58-2.73-1.16-4.1-1.74-.43-.18-.84-.41-1.32-.45l-.23,.55-.25,.59-.24,.56-.25,.59-.24,.56c-.08,.2-.2,.39-.24,.59-.04,.19-.18,.32-.23,.5-.06,.2-.17,.39-.24,.59-.06,.18-.22,.34-.17,.56-.02,0-.05,.02-.1,.05,.05,.28-.09,.53-.25,.73-.14,.18-.19,.4-.3,.59-.11,.2-.18,.42-.16,.65,1.76,.75,3.52,1.49,5.27,2.24l-1.5,3.54Z"/><path class="cls-2" d="M123.68,60.27l1.77,.75c0,.08,.01,.21-.03,.24-.11,.07-.14,.18-.19,.28-.17,.4-.34,.81-.52,1.21,0,.01,0,.02,.01,.03,0,0,.01,.02,.02,.02,1.18,.5,2.36,1,3.55,1.51l-.75,1.76,1.77,.75-3.04,7.15-1.76-.75-.75,1.77-3.61-1.53-.75,1.77-1.77-.75,1.5-3.54,5.29,2.25c.08-.1,.17-.19,.23-.3,.06-.11,.1-.24,.16-.36l.46-1.08,.75-1.77c.45-1.07,.91-2.14,1.36-3.21,.06-.13,.08-.28,.12-.43l-5.32-2.26,1.5-3.54Z"/><path class="cls-2" d="M35.22,1.74l.74-1.74c.31,.07,7.7,3.19,8.86,3.74l-.75,1.76-8.85-3.76Z"/><path class="cls-2" d="M106.37,31.95l.74-1.74c.31,.07,7.7,3.19,8.86,3.74l-.75,1.76c-2.95-1.25-5.9-2.51-8.85-3.76Z"/><path class="cls-2" d="M22.94,55.27l-.74,1.74c-.31-.07-7.7-3.19-8.86-3.74l.75-1.76,8.85,3.76Z"/><path class="cls-1" d="M26.28,52.51c-.17-.1-.3-.23-.36-.42-.02-.07-.07-.14-.11-.21,0-.1-.01-.2-.02-.31,.02-.26,.21-.4,.42-.52,.22-.13,.47-.16,.72-.05l-.64,1.51Z"/><path class="cls-1" d="M97.19,48.64l.33,.14c-.14,.17-.27,.32-.4,.48,.06,.11,.1,.2,.15,.31-.08,.07-.14,.12-.21,.18-.11-.07-.22-.15-.33-.22,.1-.24,.2-.48,.31-.72,.03-.07,.1-.12,.15-.17Z"/><path class="cls-1" d="M96.35,50.45l.1,.04c0,.15-.06,.23-.21,.22l.11-.26Z"/><path class="cls-1" d="M22.94,55.27l-8.85-3.76C21.13,34.92,28.18,18.33,35.22,1.74l8.85,3.76c-6.5,15.32-13.01,30.63-19.51,45.95-.06,.13-.14,.26-.12,.43,.01,.08-.1,.17-.14,.26-.06,.12-.15,.24-.16,.37-.01,.17-.06,.3-.18,.43-.05,.05-.09,.14-.12,.21-.3,.71-.6,1.42-.91,2.13Z"/><path class="cls-1" d="M106.37,31.95c2.95,1.25,5.9,2.51,8.85,3.76l-21.14,49.77c-2.94-1.25-5.88-2.5-8.82-3.74,0-.01-.01-.02-.01-.03,0-.01,0-.02,0-.03,7.04-16.57,14.08-33.15,21.11-49.72Z"/><path class="cls-3" d="M87.17,57.31c-1.28-.39-2.47-.99-3.7-1.5-1.23-.5-2.45-1.04-3.67-1.56l-3.7-1.57-3.7-1.57-3.67-1.56-3.7-1.57-3.7-1.57-3.7-1.57-3.67-1.56-3.7-1.57-3.7-1.57-3.67-1.56-3.7-1.57,.76-1.78-1.78-.75,.75-1.76-3.53-1.5,1.52-3.57c.33,.08,57.32,24.25,58.63,24.87l-1.53,3.6-3.55-1.51-.75,1.77-1.77-.75-.72,1.7Z"/><path class="cls-1" d="M87.17,57.31l.72-1.7,1.77,.75,.75-1.77,3.55,1.51c.12,.08,0,.15-.02,.21-.35,.83-.7,1.66-1.05,2.49l-.37,.87-.33-.14c-1.57-.67-3.14-1.33-4.72-2-.11-.05-.24-.08-.31-.21Z"/><path class="cls-1" d="M35.33,31.19l3.53,1.5-.75,1.76,1.78,.75-.76,1.78c-1.76-.75-3.53-1.5-5.31-2.26l1.5-3.54Z"/><path class="cls-1" d="M5.65,41.66C11.19,28.61,16.74,15.56,22.28,2.51c2.94,1.25,5.88,2.5,8.82,3.75,.02,.04,.03,.09,.05,.14-5.52,13.01-11.05,26.02-16.58,39.05-2.97-1.26-5.94-2.52-8.91-3.78Z"/><path class="cls-1" d="M123.66,45.56c-5.54,13.05-11.08,26.1-16.62,39.15-2.96-1.26-5.92-2.51-8.88-3.77,.08-.35,15.59-36.96,16.56-39.07,.03-.01,.07-.03,.13-.05,2.93,1.24,5.87,2.49,8.82,3.75Z"/><path class="cls-1" d="M10.17,16.25l1.5-3.54,3.51,1.49c-.07,.31-5.45,13.04-6.02,14.24-1.18-.5-2.35-1-3.53-1.5l1.5-3.54,1.76,.75c.53-1.13,2.94-6.85,3.01-7.16l-1.74-.74Z"/><path class="cls-1" d="M119.14,70.96l-1.5,3.54-3.51-1.49c.07-.31,5.45-13.04,6.02-14.24l3.53,1.5-1.5,3.54-1.76-.75c-.53,1.13-2.94,6.85-3.01,7.16l1.74,.74Z"/><path class="cls-3" d="M7.14,23.4c-1.76-.75-3.52-1.49-5.27-2.24-.02-.24,.05-.45,.16-.65,.11-.19,.15-.4,.3-.59,.15-.2,.3-.45,.25-.73,.05-.02,.08-.04,.1-.05-.04-.22,.11-.38,.17-.56,.07-.2,.18-.39,.24-.59,.05-.18,.19-.31,.23-.5,.04-.21,.16-.39,.24-.59l.24-.56,.25-.59,.24-.56,.25-.59,.23-.55c.49,.04,.9,.27,1.32,.45,1.37,.58,2.73,1.16,4.1,1.74-.47,1.1-.94,2.2-1.4,3.31-.04,.11-.08,.22-.19,.27-1.72-.73-3.45-1.46-5.18-2.2-.25,.59-.49,1.15-.73,1.72,0,0,0,.02,0,.03,0,.01,0,.02,.01,.03l5.21,2.21-.75,1.77Z"/><path class="cls-3" d="M122.17,63.82l5.32,2.26c-.04,.15-.06,.29-.12,.43-.45,1.07-.9,2.14-1.36,3.21l-5.38-2.28,1.53-3.61Z"/><path class="cls-1" d="M120.64,67.42l5.38,2.28-.75,1.77-5.31-2.26c-.03-.11,0-.2,.05-.3,.21-.5,.43-1,.64-1.5Z"/><path class="cls-3" d="M119.96,69.22l5.31,2.26-.46,1.08c-.05,.12-.09,.25-.16,.36-.06,.1-.15,.19-.23,.3l-5.29-2.25c.27-.58,.45-1.21,.82-1.74Z"/><path class="cls-2" d="M8.57,19.83c.11-.06,.15-.17,.19-.27,.47-1.1,.94-2.2,1.4-3.31l1.74,.74c-.07,.31-2.48,6.03-3.01,7.16l-1.76-.75,.75-1.77c.21-.5,.42-1,.64-1.5,.04-.1,.08-.19,.05-.3Z"/><path class="cls-2" d="M119.96,69.22c-.37,.53-.54,1.16-.82,1.74l-1.74-.74c.07-.31,2.48-6.03,3.01-7.16l1.76,.75-1.53,3.61c-.21,.5-.42,1-.64,1.5-.04,.1-.08,.19-.05,.3Z"/><path class="cls-1" d="M8.57,19.83c.03,.11,0,.2-.05,.3-.21,.5-.43,1-.64,1.5l-5.21-2.21s-.01-.02-.01-.03c0-.01,0-.02,0-.03,.24-.57,.48-1.13,.73-1.72,1.73,.74,3.46,1.47,5.18,2.2Z"/></g></svg>