<?xml version="1.0" encoding="UTF-8"?><svg id="Layer_2" xmlns="http://www.w3.org/2000/svg" viewBox="0 0 88.53 70.82"><defs><style>.cls-1{fill:#f4f4f4;}.cls-2{fill:#cd1513;}.cls-3{fill:#010101;}</style></defs><g id="Layer_3"><path class="cls-2" d="M43.88,16.71v4.96c-.05,.05-.1,.1-.17,.16-.37,0-.77,.07-1.14-.01-.86-.18-1.72-.06-2.57-.1-.47-.02-.92,.21-1.37,.09-.3,.25-.43,.53-.42,.91,.02,1.06,0,2.11,.01,3.17,0,.19-.02,.38,.09,.58,.07,.13-.05,.37-.07,.5-.16,.11-.28,.19-.44,.3,.03,0,0,0-.04,0-.35,0-.71,.01-1.06,0-.27,0-.51-.15-.79-.11-.23,.03-.45,.02-.68,.09-.21,.06-.51,.13-.73-.08-.03-.03-.12-.03-.16,0-.34,.21-.72,.05-1.04,.12-.17,.09-.32,.16-.5,.25-.2,.38-.14,.82-.14,1.25,0,.82,0,1.63,0,2.45,0,.32-.07,.65,.1,.96,.05,.1-.03,.27-.06,.5,.01,.04,.06,.19,.13,.39,.18,.03,.41,.08,.63,.09,1.13,0,2.26,0,3.39,0,.23,0,.45-.05,.76-.08,.08,.05,.22,.15,.4,.27,0,.82,.01,1.69,0,2.56-.02,.85,.1,1.72-.14,2.58h-5.24l-.19,.19c0,1.7,0,3.4,0,5.11,0,.15-.01,.3,.19,.4,.15-.05,.35,.09,.53-.09,.04-.04,.14-.02,.21-.02,1.46,0,2.92,0,4.36,0,.06,.06,.13,.1,.14,.14,.05,.31,.13,.63,.14,.94,.02,.85,0,1.71,0,2.56,0,.6-.06,1.2,.19,1.84,.17,.02,.39,.08,.61,.08,1.5,0,3,0,4.5,0,.27,.91,.12,1.83,.15,2.73,.02,.5,0,1,0,1.5,0,.1,.05,.2,.08,.31-.03,.2-.07,.42-.11,.62,.12,.12,.19,.19,.29,.29h5.01c.06,.06,.1,.1,.17,.17v4.84c-1.6,0-3.19,0-4.79,0-.24,0-.46,.01-.68,.17v5.13c-.06,.06-.1,.1-.15,.15h-4.55c-.13-.11-.23-.19-.32-.26v-4.91c-.09-.14-.18-.27-.26-.39h-4.91c-.1-.1-.2-.19-.31-.29v-5.04c-.13-.08-.25-.15-.42-.25h-4.89c-.08-.13-.15-.25-.25-.42v-4.78c-.13-.08-.25-.15-.41-.25-.29,.04-.62,.09-.96,.11-.35,.02-.71,.02-1.06,0-.96-.04-1.94,.12-2.91-.15v-5.11c-.16-.12-.29-.21-.43-.32h-4.81c-.14-.11-.24-.19-.33-.26v-4.87c-.11-.13-.19-.22-.27-.31h-5.16c-.08-.14-.17-.29-.2-.34,.03-.3,.07-.49,.07-.67,0-3.1,0-6.2,0-9.29,0-.26-.02-.5-.13-.65-.31-.18-.55-.23-.85-.07-.14,.08-.4,.07-.53-.01-.18-.11-.35-.08-.53-.08-.13,0-.27,.1-.4,.1-.85,0-1.7,0-2.56,0-.14-.27-.41-.49-.15-.83,.04-.05,.03-.2-.02-.25-.12-.13-.07-.28-.07-.42,0-.89,0-1.78,0-2.67s-.02-1.82,0-2.73c.02-.88-.09-1.75,.1-2.63,.06-.27,0-.55,0-.83,.19-.04,.38-.1,.57-.11,.69-.01,1.37-.04,2.06,0,.68,.04,1.34-.16,2.01-.12,.26,.02,.5-.02,.74-.19,.03-.19,.08-.39,.08-.6,0-1.39,0-2.78,0-4.09,.16-.48,.48-.59,.9-.58,1.43,.02,2.85,0,4.24,0,.12-.06,.22-.11,.27-.14,.05-.26,.12-.5,.15-.75,.02-.26,0-.52,0-.78,.04-1.19-.11-2.39,.11-3.57,.39,.09,.74-.12,1.12-.12,.53,0,1.05,.1,1.57,.1,4.06,.03,8.13,.02,12.19,.01,.14,0,.27,.02,.42-.07,.17-.11,.39-.06,.52,.15v4.85c.1,.2,.19,.37,.28,.54h5.12c.05,.05,.11,.11,.16,.16v4.87c.13,.21,.21,.34,.27,.43,1.52,0,2.99,0,4.45,0,.19,0,.38-.05,.54-.08,.12,.03,.22,.06,.31,.08Z"/><path class="cls-2" d="M72.17,44.55c-.02,.08,.06,.21-.11,.22-.06-.07-.12-.15-.17-.22h-4.89c-.14,.09-.27,.18-.4,.26v5.31s-.07,.07-.11,.11h-2.56c-.83,0-1.67,0-2.5,0-.15,0-.29,0-.4,.18v4.91c-.11,.31-.29,.25-.45,.25-1.52,0-3.04,0-4.56,0-.19-.02-.11-.17-.11-.26,0-1.08,0-2.15,0-3.23,0-.17-.04-.34-.07-.58,.11-.23,.17-.53-.04-.81-.57-.05-1.11-.1-1.65-.13-.54-.02-1.08,0-1.61,0h-1.69c-.07-.09-.16-.18-.27-.31,0-1.53,0-3.1,0-4.68,0-.16,.05-.34-.19-.46h-5.21l-.15-.15v-5.15c.52-.2,1.08-.16,1.64-.16,1.08,0,2.15,0,3.23,0,.23,0,.47,.01,.69-.17-.03-.23,.06-.47-.11-.71-.05-.08,0-.22,0-.33,0-1.09,0-2.19,0-3.28,0-.15,0-.3,.08-.47,.12-.26-.05-.51-.25-.73-.24,.03-.5-.07-.69,.09-.18-.03-.33-.08-.48-.08-1.21,0-2.41,0-3.65,0-.01-.14-.03-.27-.04-.43h-.4v-4.78c1.05-.26,2.12-.1,3.17-.13,.57-.02,1.15,0,1.73,0,.21,0,.41-.06,.63-.09v-5.22c.12-.02,.23-.02,.32-.07,.08-.04,.13-.13,.19-.19,1.55,0,3.09,0,4.63,0,.24,0,.46-.02,.66-.16-.02-.86,.18-1.7,.12-2.56-.06-.89-.1-1.79-.15-2.71-.09-.09-.21-.21-.33-.33-.99-.26-2-.11-3-.14-.65-.02-1.3,0-1.94,0-.15-.21-.17-.43-.17-.67,0-.87,0-1.74,0-2.62,0-.49-.06-.98,.12-1.44-.08-.08-.15-.15-.22-.22V6.8h.21v5.22h4.96c.09-.09,.18-.18,.26-.25V6.73c-.31,.02-.61,.06-.91,.07-1.17,0-2.33,0-3.5,0-.09,0-.17-.01-.25-.02v-.2h4.41c.08-.19,.2-.35,.16-.56h.25c-.05,.21-.1,.37-.14,.52,.45,.05,.88,.15,1.31,.15,5.99,0,11.99,0,17.98,0,.15,0,.3-.02,.47-.07,.28-.09,.6-.09,.88,.09,.18-.22,.42-.08,.63-.12,.23,0,.43,.19,.67,.11v.19c-.17,.06-.35,.12-.54,.18v4.78c.1,.11,.18,.21,.26,.3h4.91c.09,.09,.18,.18,.28,.28v4.84c0,1.61-.02,3.23,0,4.84,.03,1.6-.12,3.2,.1,4.79,.06,.4-.2,.77-.11,1.18-.04,.03-.1,.06-.11,.09-.01,.15,0,.3,0,.44v10.27c-.11,.04-.22,.07-.33,.11,.04-.15,.09-.3,.11-.46,.02-.16,0-.33,0-.5v-9.95h-4.91c-.12,.1-.23,.19-.31,.26v10.28c.05,.05,.09,.09,.15,.15,.77,0,1.57,0,2.36,0,.79,0,1.58-.02,2.37,.01v.21c-1.46,0-2.93,0-4.39,0-.18,0-.36-.02-.51,.11-1.57,0-3.14,0-4.72,0-.24,0-.48,.06-.76,.09-.03,.27-.15,.53-.07,.71,.11,.24,.08,.46,.09,.68,0,1.24,0,2.48,0,3.72,0,.09-.08,.23,.11,.25Z"/><path class="cls-3" d="M43.88,16.71c-.1-.03-.19-.05-.31-.08-.16,.03-.35,.08-.54,.08-1.47,0-2.93,0-4.45,0-.06-.09-.14-.22-.27-.43v-4.87c-.06-.06-.11-.11-.16-.16h-5.12c-.09-.17-.17-.34-.28-.54V5.87c-.13-.21-.35-.26-.52-.15-.15,.09-.28,.07-.42,.07-4.06,0-8.13,.02-12.19-.01-.52,0-1.04-.09-1.57-.1-.38,0-.74,.2-1.12,.12-.29-.12-.58-.23-.91-.23-1.5,.01-3,0-4.51,0h-.49c0,1.42,0,2.79,0,4.16,0,.34,0,.68-.21,1.01-.22,.08-.44,.33-.75,.07-.05-.05-.18,0-.27,0-1.19,0-2.37,0-3.56,0-.27,0-.49,.08-.66,.27v5.15c.08,.08,.14,.14,.21,.21,0,.09,0,.19,0,.28,0,.28,.05,.57,0,.83-.19,.87-.08,1.75-.1,2.63-.02,.91,0,1.82,0,2.73s0,1.78,0,2.67c0,.14-.05,.29,.07,.42,.05,.05,.06,.2,.02,.25-.26,.34,.02,.56,.15,.83,.86,0,1.71,0,2.56,0,.13,0,.27-.1,.4-.1,.17,0,.34-.04,.53,.08,.14,.08,.39,.09,.53,.01,.29-.16,.54-.11,.85,.07,.11,.16,.13,.4,.13,.65,0,3.1,0,6.2,0,9.29,0,.19-.04,.38-.07,.67,.03,.05,.12,.2,.2,.34h5.16c.08,.09,.16,.19,.27,.31v4.87c.09,.07,.19,.15,.33,.26h4.81c.14,.1,.27,.2,.43,.32v5.11c.97,.27,1.94,.12,2.91,.15,.35,.01,.71,.02,1.06,0,.34-.02,.67-.08,.96-.11,.16,.1,.28,.17,.41,.25v4.78c.1,.17,.17,.29,.25,.42h4.89c.17,.1,.29,.17,.42,.25v5.04c.11,.11,.2,.19,.31,.29h4.91c.08,.12,.17,.25,.26,.39v4.91c.09,.07,.19,.16,.32,.26h4.55c.05-.05,.09-.09,.15-.15v-5.13c.22-.16,.44-.17,.68-.17,1.6,0,3.19,0,4.79,0,0,.39,0,.78,0,1.17,0,.19-.08,.4,.1,.57,.05,.05,.04,.2,0,.27-.17,.25-.1,.53-.1,.79,0,.91,0,1.82,0,2.77h-.5c-1.39,0-2.78,0-4.18,0-.16,0-.34-.03-.44,.18v4.67c-.09,.07-.19,.15-.33,.27h-4.98c-.05-.07-.13-.17-.26-.34v-4.71c-.22-.24-.46-.29-.75-.29-1.43,0-2.86,0-4.34,0-.06-.09-.14-.22-.27-.42v-4.87c-.06-.06-.11-.11-.16-.16-1.67,0-3.34,0-5.02,0-.19-.2-.26-.46-.27-.72-.01-1.22-.01-2.45,0-3.67,0-.26,.09-.52,.13-.77-.26-.21-.49-.41-.82-.19-.04,.03-.11,0-.16,0-1.11,0-2.23,0-3.34,0-.09,0-.19,0-.26-.05-.22-.14-.4-.04-.61,.06-.05-.02-.12-.05-.18-.07-.06-.03-.13-.05-.19-.08-.02-.17-.25-.32-.12-.48,.12-.16,.08-.31,.08-.47,0-.98,0-1.97,0-2.95,0-.16,.07-.33-.09-.47-.04-.03-.05-.16-.01-.21,.23-.3,.08-.57-.05-.86h-5.24c-.06-.06-.1-.1-.16-.16v-5.12c-.06-.06-.1-.1-.16-.16h-5.15c-.09-.14-.18-.28-.26-.41,.2-.43,.09-.89,.1-1.34,.02-.46,0-.93,0-1.39v-1.9c-.07-.13-.12-.23-.17-.32-.37,0-.74,.01-1.11,0-.19,0-.39,.07-.58-.1-.07-.06-.27-.06-.38,0-.33,.18-.68,.08-1.02,.1-.33,.02-.67,.01-1,0-.17,0-.38-.14-.49-.07-.18,.11-.36,.05-.56,.09-.07-.09-.15-.19-.27-.35v-10.62c-.06-.06-.1-.1-.16-.16H.18c-.07-.07-.12-.12-.18-.18C0,21.89,0,16.77,0,11.65c0-.26,.08-.52,.12-.8,.2-.14,.44-.17,.7-.16,.54,.01,1.09-.08,1.61,.02,.95,.18,1.9,.02,2.84,.11,.14-.21,.17-.43,.19-.66,.03-.28,.17-.57,.09-.84-.2-.67-.06-1.35-.1-2.02,0-.19-.04-.38,.09-.58,.08-.13,.09-.43,0-.53-.22-.25,.02-.39,.04-.58,.26-.04,.5-.22,.77-.14,.87,.23,1.75,.06,2.63,.1,.26,.01,.54,.08,.79-.1,.04-.03,.15-.01,.21,.02,.32,.2,.61,.07,.95-.08,.19-1.46,.05-2.95,.08-4.44,0-.22-.08-.45-.13-.69,.14-.09,.27-.18,.42-.28h1.04C19.01,0,25.67,0,32.33,0c.31,0,.61,0,.85,.28,0,.78,.09,1.59-.02,2.36-.14,.92-.02,1.83-.1,2.72,.2,.24,.46,.2,.71,.2,1.54,0,3.08,0,4.6,0,.17,.22,.17,.45,.17,.68,0,1.21,0,2.41,0,3.62,0,.23,.06,.46-.09,.69-.06,.09,.07,.29,.11,.46h5.26c.07,.07,.12,.12,.18,.18,0,1.65,0,3.3,0,4.95,0,.19-.07,.38-.11,.57Z"/><path class="cls-3" d="M83.08,28.07c-.09-.4,.17-.78,.11-1.18-.23-1.59-.08-3.2-.1-4.79-.03-1.61,0-3.23,0-4.84v-4.84c-.09-.09-.18-.18-.28-.28h-4.91c-.08-.09-.16-.19-.26-.3V7.06c.19-.07,.37-.13,.54-.18v-.19h.45v.22c1.09,0,2.14,0,3.2,0,.05,0,.1-.07,.14-.11,.32,0,.63,0,.95,0,.15,.21,.17,.45,.17,.71,0,1.35,0,2.71,0,4.06v.41c.07,.07,.11,.11,.17,.17,1.03,0,2.09,.03,3.14-.01,.68-.03,1.33,.21,1.97,.12,.07,.07,.11,.11,.16,.16v15.55c-.16,0-.32,.01-.48,0-.55-.05-1.07,.16-1.62,.12-.55-.04-1.11,0-1.67,0h-1.67Z"/><path class="cls-3" d="M77.51,6.57c-.21,.04-.45-.1-.63,.12-.28-.17-.6-.18-.88-.09-.16,.05-.31,.07-.47,.07-5.99,0-11.99,0-17.98,0-.43,0-.85-.09-1.31-.15,.04-.15,.08-.31,.14-.52h-.25V1.45c.15-.04,.3-.09,.45-.11,.16-.02,.33,0,.5,0,6.47,0,12.93,0,19.4,0,.16,0,.32-.01,.48-.02v-.2h.22v.22h.22c.22,.04,.11,.21,.11,.31,0,1.53,0,3.06,0,4.59v.33Z"/><path class="cls-3" d="M56.02,55.58c1.52,0,3.04,0,4.56,0,.16,0,.35,.06,.45-.25v-4.91c.1-.18,.24-.19,.4-.18,.83,0,1.67,0,2.5,0h2.56c0,1.45,0,2.89,0,4.34,0,.17-.06,.35,.09,.52,.06,.07-.06,.29-.1,.44-.22,.11-.42,.26-.67,.06-.04-.04-.14,0-.22,0-.94,0-1.89,0-2.83,0-.12,0-.23,.04-.4,.07-.2-.03-.46-.06-.69-.1-.07,.07-.11,.11-.19,.19v.22c0,1.57,0,3.15,0,4.72,0,.16,.04,.34-.19,.45-.2-.03-.46,.08-.68-.11-.39,.22-.82,.08-1.23,.11-.41,.02-.82,.02-1.22,0-.41-.02-.84,.12-1.24-.11-.22,.19-.48,.08-.74,.12-.09-.14-.17-.27-.26-.41,.21-.54,.08-1.11,.1-1.67,.02-.59,0-1.19,0-1.78v-1.72Z"/><path class="cls-3" d="M82.41,38.98v-.21c-.79-.03-1.58,0-2.37-.01-.79,0-1.59,0-2.36,0-.06-.06-.1-.1-.15-.15v-10.28c.07-.06,.18-.15,.31-.26h4.91v9.95c0,.17,.01,.34,0,.5-.02,.15-.07,.3-.11,.46h-.22Z"/><path class="cls-3" d="M66.6,50.12v-5.31c.12-.08,.25-.16,.4-.26h4.89c.06,.07,.12,.15,.17,.22v5.16c-.19,.22-.44,.19-.69,.19-1.59,0-3.18,0-4.77,0Z"/><path class="cls-3" d="M72.17,44.55c-.19-.02-.11-.17-.11-.25,0-1.24,0-2.48,0-3.72,0-.23,.02-.45-.09-.68-.08-.17,.04-.44,.07-.71,.28-.03,.52-.09,.76-.09,1.57,0,3.14,0,4.72,0,0,1.59,0,3.18,0,4.77,0,.22-.06,.45-.09,.69h-5.25Z"/><path class="cls-3" d="M51.56,6.57v.2c.08,0,.17,.02,.25,.02,1.17,0,2.33,0,3.5,0,.3,0,.59-.04,.91-.07v5.04c-.07,.07-.17,.16-.26,.25h-4.96V6.8h.22v-.22h.33Z"/><path class="cls-2" d="M76.96,1.12v.2c-.16,0-.32,.02-.48,.02-6.47,0-12.93,0-19.4,0-.17,0-.34-.01-.5,0-.15,.02-.3,.07-.45,.11,0-.06,0-.11,0-.17,.23-.17,.49-.17,.76-.17,6.69,0,13.37,0,20.06,0Z"/><path class="cls-2" d="M81.97,6.8s-.1,.11-.14,.11c-1.05,0-2.11,0-3.2,0v-.22c1.03,0,2.06,0,3.09,0,.09,0,.23-.08,.25,.11Z"/><path class="cls-2" d="M77.4,1.34h-.22v-.22h.22v.22Z"/><path class="cls-2" d="M51.23,6.57v.22h-.22v-.22h.22Z"/><path class="cls-1" d="M5.79,16.71c0-.09,0-.19,0-.28-.07-.07-.13-.13-.21-.21v-5.15c.18-.19,.39-.27,.66-.27,1.19,0,2.37,0,3.56,0,.09,0,.22-.04,.27,0,.3,.26,.52,.01,.75-.07,.22-.33,.21-.67,.21-1.01,0-1.37,0-2.74,0-4.16h.49c1.5,0,3,0,4.51,0,.33,0,.62,.11,.91,.23-.22,1.18-.07,2.38-.11,3.57,0,.26,.02,.52,0,.78-.02,.24-.09,.48-.15,.75-.06,.03-.15,.08-.27,.14-1.39,0-2.82,0-4.24,0-.42,0-.73,.1-.9,.58,0,1.31,0,2.7,0,4.09,0,.21-.05,.42-.08,.6-.24,.17-.48,.21-.74,.19-.67-.05-1.33,.16-2.01,.12-.68-.04-1.37-.02-2.06,0-.19,0-.38,.07-.57,.11Z"/></g></svg>