<?xml version="1.0" encoding="UTF-8"?><svg id="Layer_2" xmlns="http://www.w3.org/2000/svg" viewBox="0 0 57.03 56.9"><defs><style>.cls-1{fill:#f93295;}.cls-2{fill:#5044f9;}.cls-3{fill:#d837f9;}.cls-4{fill:#f9f9f9;}.cls-5{fill:#9d41f9;}.cls-6{fill:#f97837;}</style></defs><g id="Layer_3"><path class="cls-6" d="M54.66,52.22v2.33h-2.34v2.36H4.77v-2.3H2.43v-2.34H0v-19.06H2.38v14.31h2.43v2.34h2.34v2.39h2.39v2.32H47.55v-2.37h2.39v-2.39h2.39v-2.34h2.33v4.75Z"/><path class="cls-2" d="M0,11.82V4.74H2.33V2.35h2.39V0H52.26V2.3h2.34v2.34h2.43V14.19h-2.38v-4.76h-2.39v-2.39h-2.39v-2.39h-2.39V2.36H9.45v2.38h-2.34v2.35h-2.39v2.39H2.38v2.33H0Z"/><path class="cls-1" d="M54.66,52.22v-19.01h2.38v19.01h-2.38Z"/><path class="cls-3" d="M57.03,33.2h-2.38V16.57h2.38v16.64Z"/><path class="cls-5" d="M0,11.82H2.38v9.51H0V11.82Z"/><path class="cls-1" d="M2.38,33.2H0v-9.51H2.38v9.51Z"/><path class="cls-5" d="M57.03,16.57h-2.38v-2.38h2.38v2.38Z"/><path class="cls-3" d="M2.38,23.7H0v-2.38H2.38v2.38Z"/><path class="cls-4" d="M2.38,23.7V9.49h2.34v-2.39h2.39v-2.35h2.34V2.36H47.48v2.29h2.39v2.39h2.39v2.39h2.39V47.46h-2.33v2.34h-2.39v2.39h-2.39v2.37H9.54v-2.32h-2.39v-2.39h-2.34v-2.34H2.38V23.7Zm4.75-2.38v26.19h2.43v2.26H47.57v-2.36h2.33V9.38h-2.43v-2.25H9.46v2.36h-2.33v11.83Z"/><path class="cls-6" d="M49.91,37.96v9.45h-2.33v2.36H9.56v-2.26h-2.43V30.83h4.8v-2.38h2.33v7.18h2.43v2.33h2.34v2.39h2.39v2.32h14.25v-2.37h2.39v-2.39h2.39v-2.33h4.76v2.38h4.7Z"/><path class="cls-3" d="M49.91,14.19v14.26h-2.43v-2.43h-2.38v-2.33h-2.32v-2.38h-2.39v-2.39h-2.39v-2.39h-2.39v-2.31h-14.26v2.38h-2.39v2.34H9.46v2.38h-2.33v-7.13h7.18v-2.43h4.71v-2.28h19.05v2.33h2.33v2.41h2.41v2.28h2.36v-2.32h4.74Z"/><path class="cls-5" d="M40.4,11.82h-2.33v-2.33H19.02v2.28h-4.71v2.43H7.13v-4.7h2.33v-2.36H47.47v2.25h2.43v4.81h-2.38v-2.41h-2.41v-2.28h-2.36v2.32h-2.36Z"/><path class="cls-1" d="M7.13,21.32h2.33v-2.38h7.18v2.43h-2.38v7.07h-2.33v2.38H7.13v-9.51Z"/><path class="cls-1" d="M42.78,23.7h2.32v2.33h2.38v2.43h2.43v9.51h-4.7v-2.38h-2.43v-11.88Z"/><path class="cls-4" d="M42.78,23.7v11.88h-2.33v2.33h-2.39v2.39h-2.39v2.37h-14.25v-2.32h-2.39v-2.39h-2.34v-2.33h-2.43v-14.25h2.38v-2.43h2.33v-2.34h2.39v-2.38h14.26v2.31h2.39v2.39h2.39v2.39h2.39v2.38Zm-11.88-4.75h-9.53v2.4h-2.35v14.29h2.43v2.25h14.25v-2.36h2.33v-14.2h-2.38v-2.38h-4.75Z"/><path class="cls-4" d="M40.4,11.82h2.36v-2.32h2.36v2.28h2.41v2.41h-2.36v2.32h-2.36v-2.28h-2.41v-2.41Z"/><path class="cls-1" d="M19.01,28.45v-7.11h2.35v-2.4h9.53v2.38h7.13v9.51h-9.56v-2.38h-9.45Z"/><path class="cls-6" d="M19.01,28.45h9.45v2.38h9.56v4.7h-2.33v2.36h-14.25v-2.25h-2.43v-7.18Z"/><path class="cls-3" d="M35.65,21.32h-4.75v-2.38h4.75v2.38Z"/></g></svg>