<?xml version="1.0" encoding="UTF-8"?><svg id="Layer_2" xmlns="http://www.w3.org/2000/svg" viewBox="0 0 77.32 66.95"><defs><style>.cls-1{fill:#e22b0e;}</style></defs><g id="Layer_3"><path class="cls-1" d="M10.29,36.07H5.2v-5.06s-.07-.07-.1-.1H.05C0,30.63-.02,11.58,.03,10.3H5.08s.07-.07,.11-.11V5.13h5.09V.05C10.57,0,29.75-.02,30.9,.03V5.02s.07,.07,.11,.11h5.06v5.15h5.15s0,0,.01-.01c0,0,.01-.02,.01-.03,0-1.7,0-3.4,0-5.11h5.07s.07-.07,.11-.11V.02h20.59V5.08s.02,.03,.03,.03c0,0,.02,0,.03,0,1.67,0,3.34,0,5.01,0,0,0,.02,0,.04,.02v5.05s.07,.07,.1,.1h5.04c.05,.28,.08,19.29,.02,20.6h-5.06c-.12,.23-.1,.46-.1,.7,0,1.39,0,2.77,0,4.16v.32h-5.09v5.07s-.07,.07-.12,.11h-5.06v5.1h-.28c-1.53,0-3.07,0-4.6,0-.1,0-.21-.03-.29,.11v5.05h-5.06l-.1,.1v5.04s-.01,.02-.02,.02c0,0-.02,.01-.03,.01-1.68,0-3.36,0-5.05,0v5.06l-.11,.11h-5.06v5.09h-5.15s0,0,0,0c0,0-.01-.02-.01-.03,0-1.68,0-3.36,0-5.05h-5.07s-.07-.07-.11-.11v-5.06h-5.09v-5.06s-.07-.07-.11-.11h-5.06v-5.06s-.06-.06-.09-.09h-5.08v-5.11h-5.08s-.07-.07-.1-.1c0-1.68,0-3.36,0-5.08ZM15.47,15.45h5.15v-5.15h-5.15c0,1.73,0,3.44-.02,5.17h-5.15v5.15h5.15c0-1.73,0-3.44,.02-5.17Z"/></g></svg>