<?xml version="1.0" encoding="UTF-8"?><svg id="Layer_2" xmlns="http://www.w3.org/2000/svg" viewBox="0 0 77.09 68.02"><defs><style>.cls-1{fill:#feea3b;}</style></defs><g id="Layer_3"><path class="cls-1" d="M63.5,63.47c0-.26-.02-.53-.02-.79,0-11.59,0-23.18,.01-34.77,0-.54-.11-.74-.69-.71-1.08,.05-2.16,0-3.24,.02-.47,.01-.62-.1-.62-.6,.03-2.61,0-5.22,.02-7.84,0-.49-.1-.67-.63-.65-1.3,.03-2.61,0-3.92,0-.27-.29-.2-.65-.21-.99,0-2.22,0-4.44,0-6.66q0-1.18-1.21-1.18c-.67,0-1.35,0-2.02,0-.85,0-.88,.03-.88,.91,0,2.32,0,4.65,0,6.97,0,.34,.04,.7-.21,.99h.01c-.25,.21-.56,.2-.87,.2-.92,0-1.84,0-2.76,0-.65,0-.7,.06-.71,.77,0,2.37,0,4.73,0,7.1,0,.34,.04,.7-.21,.99h.01c-.25,.21-.56,.2-.87,.2-.9,0-1.79,0-2.69,0-.7,0-.75,.06-.77,.78,0,.22,0,.45,0,.67,0,9.58,0,19.17,0,28.75,0,1.5-.03,1.53-1.55,1.53-.8,0-1.59,0-2.39,0-.28,0-.58,.01-.81-.19-1.25,0-2.49,0-3.74-.02-.92,0-.8,.12-.8-.83,0-10.05,0-20.09,0-30.14,0-.88,.11-.76-.79-.77-.41,0-.82,0-1.23,0-.81-.02-1.63,.07-2.44-.05-.17-.82-.06-1.66-.07-2.49-.02-1.94-.02-3.88,0-5.82,0-.53-.1-.74-.69-.72-1.28,.04-2.57,0-3.86,0-.27-.29-.2-.65-.21-.99,0-2.22,0-4.44,0-6.66q0-1.18-1.21-1.18c-.67,0-1.35,0-2.02,0-.85,0-.88,.03-.88,.91,0,2.32,0,4.65,0,6.97,0,.34,.04,.7-.21,.99h.01c-.25,.21-.56,.2-.87,.2-.92,0-1.84,0-2.76,0-.65,0-.7,.06-.71,.77,0,2.37,0,4.73,0,7.1,0,.34,.04,.7-.21,.99h.01c-.25,.21-.56,.2-.87,.2-.84,0-1.67,0-2.51,0-.92,0-.94,.02-.95,.97,0,.2,0,.41,0,.61,0,11.02,0,22.05,0,33.07,0,1.6,0,1.6-1.59,1.61-.78,0-1.55,0-2.33,0-.28,0-.58,.02-.81-.21,0-1.31-.04-2.61,0-3.92,.01-.53-.16-.64-.65-.63-1.12,.04-2.24,0-3.37,.02C.16,58.95,0,58.88,0,58.45c.01-8.73,.01-17.47,0-26.2,0-.4,.11-.53,.51-.52,1.14,.03,2.29-.01,3.43,.02,.48,.01,.61-.12,.61-.61-.02-4.1,0-8.2-.02-12.31,0-.54,.12-.74,.7-.71,1.08,.05,2.16,0,3.24,.02,.47,.01,.62-.1,.62-.6-.03-2.61,0-5.22-.02-7.84,0-.49,.1-.67,.63-.65,1.1,.04,2.2,0,3.31,.02,.46,.01,.64-.09,.62-.6-.04-1.1,.01-2.2-.02-3.31-.02-.49,.1-.67,.63-.65,1.1,.04,2.2,0,3.31,.02,.46,.01,.64-.09,.62-.6-.04-1.16,0-2.33-.02-3.49,0-.33,.08-.47,.44-.46,1.37,.02,2.73,.02,4.1,.03,.23,.23,.2,.52,.2,.8,0,.85,0,1.71,0,2.57q0,.93,.96,.94c.86,0,1.71,0,2.57,0,.29,0,.57,0,.81,.21h-.01c.23,.24,.21,.55,.21,.85,0,.93,.02,1.87,0,2.8,0,.49,.18,.69,.68,.68,.93-.02,1.87,0,2.8,0,.3,0,.61-.02,.86,.21h-.01c.26,.28,.21,.63,.21,.98,0,2.26,0,4.52,0,6.78q0,1.09,1.06,1.09c.82,0,1.63,0,2.45,0,.28,0,.58-.01,.81,.19,1.37,0,2.74,0,4.1,.03,.43,0,.44-.21,.44-.53,0-2.61,.02-5.23-.02-7.84,0-.62,.18-.75,.75-.72,1.04,.05,2.08-.03,3.12,.03,.59,.03,.71-.19,.69-.72-.04-1.02-.02-2.04,0-3.06,0-.88-.11-.76,.8-.77,1,0,2-.04,3,.01,.57,.03,.78-.1,.75-.72-.06-1.12,0-2.24-.02-3.37,0-.33,.07-.47,.44-.47,1.37,.02,2.73,.02,4.1,.03,.23,.23,.2,.52,.2,.8,0,.85,0,1.71,0,2.57q0,.93,.96,.94c.86,0,1.71,0,2.57,0,.29,0,.57,0,.81,.21h-.01c.23,.24,.21,.55,.21,.85,0,.93,.02,1.87,0,2.8,0,.49,.18,.69,.68,.68,.93-.02,1.87,0,2.8,0,.3,0,.61-.02,.86,.21h-.01c.26,.28,.21,.63,.21,.98,0,2.33,0,4.65,0,6.98,0,.87,.02,.89,.89,.89,.86,0,1.71,0,2.57,0,.31,0,.62-.01,.87,.21h-.01c.27,.3,.21,.68,.21,1.04,0,3.75,0,7.51,0,11.26q0,1.08,1.08,1.08c.82,0,1.63,0,2.45,0,.29,0,.58,0,.81,.21h-.01c.23,.24,.22,.55,.22,.85,0,8.49,0,16.98,0,25.47,0,.91-.16,1.06-1.07,1.08-.86,.01-1.71,0-2.57,0-.85,0-.88,.03-.88,.91,0,.9,.02,1.8,0,2.69-.02,.74-.19,.91-.91,.92-1.04,.02-2.08,.01-3.12,0-.24,0-.49,0-.68-.21Z"/><path d="M4.56,63.47c1.29,0,2.57-.03,3.86,.01,.52,.02,.67-.09,.67-.65-.02-11.29-.02-22.57-.01-33.86,0-.57-.2-1.33,.09-1.65,.33-.37,1.11-.1,1.69-.11,.92-.02,1.84,0,2.76-.01,0,4.45,0,8.89,0,13.34,0,8.93,0,17.87,.01,26.8,0,.58-.17,.68-.7,.67-2.61-.03-5.22-.03-7.83,0-.47,0-.57-.12-.56-.57,.04-1.32,.02-2.65,.03-3.98Z"/><path d="M63.5,63.47c1.33,0,2.65-.02,3.98,0,.41,0,.56-.08,.55-.52-.03-1.18,0-2.37-.02-3.55,0-.37,.07-.49,.47-.48,1.18,.03,2.37-.01,3.55,.02,.43,.01,.54-.1,.54-.53-.02-8.9-.01-17.79-.02-26.69,1.31,0,2.61,.03,3.92,0,.5-.01,.63,.11,.63,.62-.02,8.11-.01,16.21-.01,24.32,0,2.1,0,4.21,0,6.31,0,.39-.08,.52-.49,.51-1.2-.03-2.41,0-3.61-.02-.34,0-.45,.08-.44,.43,.02,1.22,0,2.45,.02,3.67,0,.34-.09,.44-.44,.44-2.74-.01-5.47,0-8.21,0-.27,0-.45,0-.44-.37,.03-1.39,.02-2.78,.03-4.16Z"/><path d="M36.28,58.96c1.31,0,2.61-.04,3.92,0,.52,.01,.63-.13,.63-.63-.02-10.15,0-20.29-.03-30.44,0-.57,.15-.7,.7-.68,1.29,.04,2.57,.01,3.86,0,0,6.1,0,12.21,0,18.31,0,5.78-.01,11.55,.02,17.33,0,.57-.17,.65-.67,.64-2.61-.03-5.23-.03-7.84,0-.5,0-.59-.15-.58-.61,.03-1.31,.01-2.61,.01-3.92Z"/><path d="M72.56,31.75c-1.32,0-2.65-.03-3.97,0-.51,.02-.58-.16-.58-.61,.01-4.34,0-8.67,0-13.01,1.32,0,2.65,.03,3.97,0,.51-.02,.58,.16,.58,.61-.01,4.34,0,8.67,0,13.01Z"/><path d="M18.14,18.15c0-2.79,.03-5.59-.01-8.38,0-.62,.17-.73,.74-.71,1.06,.05,2.12,.04,3.18,0,.49-.02,.65,.08,.64,.61-.03,2.81-.02,5.63-.02,8.44-1.51,0-3.02,.02-4.54,.03Z"/><path d="M36.28,18.12c-1.38,0-2.76,0-4.15,.03-.42,0-.39-.2-.39-.49,0-2.87,0-5.73,0-8.6,1.33,0,2.65,.03,3.98,0,.44,0,.58,.08,.57,.55-.03,2.83-.01,5.67-.01,8.5Z"/><path d="M49.87,18.15c0-2.79,.03-5.59-.01-8.38,0-.62,.17-.73,.74-.71,1.06,.05,2.12,.04,3.18,0,.49-.02,.65,.08,.64,.61-.03,2.81-.02,5.63-.02,8.44-1.51,0-3.02,.02-4.54,.03Z"/><path d="M68.02,18.15c-1.34,0-2.69-.02-4.03,0-.44,0-.53-.13-.52-.54,.02-2.85,0-5.7,0-8.54,1.34,0,2.69,.03,4.03,0,.44,0,.52,.13,.52,.54-.02,2.85,0,5.69,0,8.54Z"/><path d="M13.61,27.22c0-2.85,.01-5.7,0-8.54,0-.42,.08-.55,.52-.54,1.34,.03,2.69,0,4.03,0,0,2.85-.02,5.69,0,8.54,0,.41-.08,.55-.52,.54-1.34-.03-2.68,0-4.03,0Z"/><path d="M45.34,27.22c0-2.85,.01-5.7,0-8.54,0-.42,.08-.55,.52-.54,1.34,.03,2.69,0,4.03,0,0,2.85-.02,5.69,0,8.54,0,.41-.08,.55-.52,.54-1.34-.03-2.68,0-4.03,0Z"/><path d="M27.22,4.55c-1.3,0-2.61-.03-3.91,0-.48,.01-.66-.08-.65-.61,.05-1.3,.02-2.61,.02-3.91,1.38,0,2.76,0,4.14-.03,.32,0,.41,.09,.4,.41-.01,1.38,0,2.76,0,4.14Z"/><path d="M58.96,4.55c-1.3,0-2.61-.03-3.91,0-.48,.01-.66-.08-.65-.61,.05-1.3,.02-2.61,.02-3.91,1.38,0,2.76,0,4.14-.03,.32,0,.41,.09,.4,.41-.01,1.38,0,2.76,0,4.14Z"/><path d="M31.75,9.08c-1.36,0-2.72-.02-4.08,0-.38,0-.48-.09-.47-.47,.02-1.36,0-2.72,0-4.08,1.36,0,2.72,.02,4.08,0,.38,0,.47,.09,.47,.47-.02,1.36,0,2.72,0,4.08Z"/><path d="M63.49,9.08c-1.36,0-2.72-.02-4.08,0-.38,0-.48-.09-.47-.47,.02-1.36,0-2.72,0-4.08,1.36,0,2.72,.02,4.08,0,.38,0,.47,.09,.47,.47-.02,1.36,0,2.72,0,4.08Z"/></g></svg>