<?xml version="1.0" encoding="UTF-8"?><svg id="Layer_2" xmlns="http://www.w3.org/2000/svg" viewBox="0 0 52.87 46.28"><defs><style>.cls-1{fill:#fdfdfe;}.cls-2{fill:#0078d3;}.cls-3{fill:#28a7e9;}</style></defs><g id="Layer_3"><path class="cls-2" d="M49.57,23.79v1.83c.22-.1,.43-.15,.59-.28,.18-.15,.42-.18,.57-.36,.39-.17,.74-.41,1.11-.62,.26-.15,.56-.25,.75-.51,.1-.13,.24-.24,.27-.43,0,.07,.01,.13,.01,.2,0,6.76,0,13.52,0,20.28,0,.44-.14,.86-.39,1.24-.15,.23-.36,.42-.55,.61-.02,.02-.07,.02-.11,.02-.06-.04-.11-.09-.17-.12-.45-.23-.87-.49-1.31-.74-.48-.27-.96-.54-1.44-.81-.37-.21-.74-.42-1.11-.63-.17-.09-.34-.17-.51-.27-.37-.22-.73-.44-1.1-.66-.21-.12-.44-.2-.64-.34-.4-.26-.82-.47-1.23-.72-.21-.12-.44-.2-.64-.34-.33-.23-.69-.39-1.03-.6-.42-.26-.85-.5-1.28-.74-.44-.25-.89-.5-1.33-.76-.47-.27-.95-.53-1.41-.8-.37-.21-.74-.42-1.11-.63-.17-.09-.35-.16-.51-.27-.35-.24-.74-.42-1.1-.65-.2-.13-.44-.2-.64-.34-.35-.23-.72-.41-1.08-.63-.25-.15-.52-.26-.76-.42-.16-.1-.32-.18-.48-.27-.33-.19-.64-.4-.97-.59-.24-.14-.51-.23-.74-.39-.16-.1-.32-.18-.48-.28-.22-.13-.45-.27-.67-.4-.24-.14-.5-.24-.74-.4-.4-.26-.83-.47-1.26-.74v.33c0,2.22,0,4.44,0,6.66,0,.14-.02,.28-.06,.41-.2,.56-.47,1.05-1.03,1.34-.31,.16-.69,.3-1,.3-4.26,0-8.53,0-12.79,0v-4.91c-.09,0-.18-.01-.27-.01-3.57,0-7.14,0-10.71,0-.46,0-.88-.17-1.27-.39-.14-.08-.26-.19-.37-.31-.13-.15-.25-.31-.33-.48-.08-.19-.17-.39-.21-.6-.04-.21-.05-.42-.05-.63C0,26.68,0,19.41,0,12.13c0-.46,.19-1.06,.51-1.41,.3-.34,.68-.62,1.12-.73,.19-.05,.38-.09,.59-.09,4.67,0,9.34,0,14.01,0h.27v-.27c0-2.41,0-4.81,0-7.22,0-.51,.14-.98,.43-1.41,.24-.35,.89-.85,1.28-.93,.19-.04,.4-.07,.6-.07C22.73,0,26.65,0,30.58,0,36.16,0,41.74,0,47.32,0c.53,0,1,.19,1.39,.55,.42,.37,.44,.41,.68,.93,.05,.12,.09,.23,.11,.36,.12,.63,.04,1.27,.06,1.9,.01,.41,0,.83,0,1.24H28.09V14.82h-1.61V31.32c.52,.3,1.03,.62,1.61,.9V14.88h11.58v9.9h8.08c.25-.14,.47-.25,.67-.38,.26-.16,.54-.3,.8-.47,.1-.06,.21-.15,.34-.14Zm-44.09-.5c0,.25,0,.5,0,.75,.01,.25,.04,.5,.06,.75,0,.02,0,.04,0,.06,.13,.32,.14,.66,.24,.99,.12,.45,.39,1.17,.54,1.49,.23,.5,.53,.95,.87,1.39,.3,.37,.63,.71,.98,1.01,.28,.24,.58,.45,.91,.64,.36,.2,.73,.39,1.12,.52,.28,.1,.57,.19,.85,.27,.39,.11,.79,.17,1.18,.22,.34,.04,.68,.02,1.03,0,.34-.01,.69,.02,1.03-.05,.34-.06,.68-.11,1.01-.19,.34-.09,.66-.2,.99-.32,.47-.17,.89-.42,1.3-.68,.34-.22,.65-.48,.93-.77,.2-.21,.43-.4,.61-.62,.2-.25,.38-.53,.55-.8,.12-.19,.25-.38,.32-.58,.06-.15,.12-.3,.2-.45,.03-.06,.04-.13,.06-.19,.12-.36,.23-.71,.34-1.07,.09-.3,.11-.61,.22-.91-.04-.19,.06-.35,.06-.53,0-.18,.03-.36,.05-.54,.04-.34,0-.68,.01-1.03,.01-.35-.11-.68-.06-1.03-.08-.13-.03-.28-.07-.41-.08-.23-.11-.47-.17-.71-.11-.44-.25-.87-.43-1.29-.13-.31-.26-.62-.45-.91-.23-.37-.47-.73-.76-1.05-.19-.2-.4-.4-.59-.6-.24-.24-.53-.42-.8-.62-.27-.19-.57-.33-.86-.48-.42-.2-.85-.35-1.31-.46-.24-.06-.49-.13-.74-.17-.27-.04-.54-.11-.81-.08-.16,.02-.33,0-.5,0-.43,.02-.86-.07-1.28,.06-.3-.03-.58,.12-.88,.13-.11,0-.22,.07-.33,.1-.3,.1-.6,.19-.9,.32-.45,.2-.93,.42-1.26,.65-.21,.14-.39,.31-.59,.46-.43,.31-.78,.7-1.08,1.11-.31,.43-.63,.88-.81,1.41-.07,.22-.2,.42-.27,.64-.07,.23-.16,.46-.21,.7-.04,.21-.11,.43-.17,.64-.06,.22-.1,.44-.12,.66-.03,.34-.11,.68-.08,1.03,.02,.16,0,.33,0,.5Z"/><path class="cls-3" d="M49.57,23.79c-.14,0-.25,.07-.34,.14-.26,.18-.54,.31-.8,.47-.21,.13-.42,.24-.67,.38h-8.08V14.88h-11.58V4.98h21.48V23.79Z"/><path class="cls-3" d="M13.2,41.28c4.26,0,8.53,0,12.79,0,.3,0,.69-.14,1-.3,.56-.29,.84-.78,1.03-1.34,.05-.13,.06-.27,.06-.41,0-2.22,0-4.44,0-6.66v-.33c.43,.26,.86,.48,1.26,.74,.23,.15,.49,.26,.74,.4,.23,.13,.45,.27,.67,.4,.16,.09,.32,.17,.48,.28,.23,.15,.5,.25,.74,.39,.33,.19,.64,.4,.97,.59,.16,.09,.32,.17,.48,.27,.24,.16,.51,.27,.76,.42,.36,.22,.73,.4,1.08,.63,.2,.13,.44,.21,.64,.34,.36,.23,.75,.41,1.1,.65,.16,.11,.34,.18,.51,.27,.37,.2,.74,.41,1.11,.63,.47,.27,.94,.53,1.41,.8,.44,.26,.89,.5,1.33,.76,.43,.24,.86,.48,1.28,.74,.34,.21,.7,.38,1.03,.6,.2,.14,.43,.21,.64,.34,.41,.25,.83,.46,1.23,.72,.2,.13,.43,.22,.64,.34,.37,.21,.73,.44,1.1,.66,.17,.1,.34,.18,.51,.27,.37,.21,.74,.42,1.11,.63,.48,.27,.96,.54,1.44,.81,.44,.25,.86,.52,1.31,.74,.06,.03,.11,.08,.17,.12-.06,.14-.2,.18-.32,.24-.12,.07-.29,.07-.4,.15-.13,.09-.28,0-.4,.1-.06,.05-.18,0-.27,0H24.42c-2.93,0-5.85,0-8.78,0-.51,0-.96-.17-1.37-.45-.59-.41-.79-.83-1-1.45-.06-.17-.07-.35-.07-.53,0-.85,0-1.7,0-2.55Z"/><path class="cls-1" d="M5.48,23.29c0-.17,.01-.33,0-.5-.03-.35,.05-.69,.08-1.03,.02-.22,.05-.45,.12-.66,.06-.21,.12-.43,.17-.64,.05-.24,.14-.47,.21-.7,.07-.22,.19-.42,.27-.64,.18-.52,.49-.97,.81-1.41,.3-.42,.65-.8,1.08-1.11,.2-.15,.39-.31,.59-.46,.33-.23,.8-.45,1.26-.65,.29-.13,.59-.22,.9-.32,.11-.04,.22-.1,.33-.1,.3,0,.58-.16,.88-.13,.42-.13,.85-.04,1.28-.06,.17,0,.33,.01,.5,0,.28-.03,.55,.04,.81,.08,.25,.03,.49,.11,.74,.17,.45,.11,.89,.26,1.31,.46,.29,.14,.59,.28,.86,.48,.28,.2,.56,.38,.8,.62,.2,.2,.4,.39,.59,.6,.3,.32,.53,.68,.76,1.05,.18,.29,.31,.6,.45,.91,.18,.42,.32,.84,.43,1.29,.06,.23,.09,.47,.17,.71,.04,.13-.01,.28,.07,.41-.05,.35,.08,.69,.06,1.03-.01,.34,.03,.69-.01,1.03-.02,.18-.05,.36-.05,.54,0,.18-.1,.35-.06,.53-.11,.29-.12,.61-.22,.91-.11,.36-.23,.72-.34,1.07-.02,.06-.03,.13-.06,.19-.08,.14-.14,.29-.2,.45-.08,.21-.2,.39-.32,.58-.18,.27-.35,.55-.55,.8-.18,.22-.41,.41-.61,.62-.28,.29-.59,.55-.93,.77-.42,.27-.84,.52-1.3,.68-.33,.12-.65,.23-.99,.32-.34,.09-.68,.13-1.01,.19-.35,.07-.69,.04-1.03,.05-.34,.01-.69,.03-1.03,0-.4-.05-.79-.1-1.18-.22-.29-.08-.57-.17-.85-.27-.39-.13-.76-.32-1.12-.52-.33-.18-.64-.4-.91-.64-.35-.31-.69-.64-.98-1.01-.34-.43-.64-.89-.87-1.39-.15-.32-.42-1.04-.54-1.49-.09-.33-.1-.67-.24-.99,0-.02,0-.04,0-.06-.02-.25-.05-.5-.06-.75-.01-.25,0-.5,0-.75Zm7.79,5.35c.27-.02,.6,.02,.92-.05,.29-.07,.58-.15,.85-.28,.33-.15,.67-.3,.91-.59,.33-.16,.52-.48,.72-.76,.2-.27,.37-.56,.49-.88,.1-.28,.2-.56,.26-.85,.06-.24,.16-.47,.13-.73,.12-.11,.04-.25,.06-.38,.02-.13,.06-.25,.06-.38-.02-.49,.05-.98-.05-1.47-.05-.24,0-.51-.08-.75-.11-.36-.17-.73-.3-1.09-.22-.6-.52-1.16-.96-1.63-.15-.16-.32-.31-.5-.45-.6-.46-1.27-.71-2.03-.74-.32-.01-.64,0-.96,0-.19,0-.38,.03-.56,.06-.3,.06-1.09,.39-1.32,.57-.42,.33-.81,.68-1.12,1.12-.26,.37-.47,.77-.6,1.21-.09,.31-.2,.61-.25,.93-.02,.17-.08,.34-.11,.51-.03,.19-.05,.38-.06,.57,0,.13,0,.27,0,.4v.4c0,.15,0,.29,0,.44,0,.13,.06,.26,.05,.38-.01,.14,.05,.25,.07,.38,.03,.2,.07,.41,.12,.6,.1,.33,.18,.67,.32,.99,.17,.37,.39,.73,.66,1.03,.43,.49,.92,.9,1.55,1.14,.44,.16,.87,.31,1.34,.29,.1,0,.21,0,.36,0Z"/><path d="M28.09,14.82v17.4c-.58-.28-1.09-.61-1.61-.9V14.82h1.61Z"/><path class="cls-2" d="M13.27,28.64c-.15,0-.26,0-.36,0-.47,.02-.9-.13-1.34-.29-.63-.23-1.12-.65-1.55-1.14-.27-.3-.49-.66-.66-1.03-.14-.31-.23-.65-.32-.99-.06-.2-.1-.4-.12-.6-.02-.13-.09-.24-.07-.38,.01-.12-.04-.25-.05-.38-.01-.14,0-.29,0-.44v-.4c0-.13,0-.27,0-.4,.01-.19,.03-.38,.06-.57,.03-.17,.08-.34,.11-.51,.05-.32,.15-.62,.25-.93,.13-.44,.34-.84,.6-1.21,.3-.44,.7-.79,1.12-1.12,.22-.18,1.02-.51,1.32-.57,.19-.04,.38-.06,.56-.06,.32-.01,.64-.01,.96,0,.75,.03,1.42,.29,2.03,.74,.18,.14,.34,.29,.5,.45,.44,.47,.74,1.02,.96,1.63,.13,.35,.2,.73,.3,1.09,.07,.24,.02,.5,.08,.75,.11,.49,.03,.98,.05,1.47,0,.13-.04,.25-.06,.38-.02,.13,.06,.27-.06,.38,.03,.25-.07,.49-.13,.73-.07,.29-.16,.57-.26,.85-.12,.32-.29,.62-.49,.88-.21,.28-.39,.6-.72,.76-.24,.29-.58,.44-.91,.59-.27,.12-.56,.21-.85,.28-.33,.08-.65,.03-.92,.05Z"/></g></svg>