<?xml version="1.0" encoding="UTF-8"?><svg id="Layer_2" xmlns="http://www.w3.org/2000/svg" viewBox="0 0 63.53 71.08"><defs><style>.cls-1{fill:#fcd320;}.cls-2{fill:#f60403;}.cls-3{fill:#1c171f;}.cls-4{fill:#fefefe;}</style></defs><g id="Layer_3"><path class="cls-1" d="M24.36,53v-2.45H14.86v-2.36h-4.69c-.15-.08-.12-.21-.12-.32,0-1.64,0-3.28,0-4.92h2.38v-2.38h2.85v-7.6s.05-.05,.07-.07h2.3v-2.3s.05-.05,.07-.07h2.3v-1.81s.07-.06,.07-.09c0-.16,0-.32,0-.47h2.3c.12-.01,.07-.1,.07-.16,0-.67,0-1.35,0-2.02,0-.07,0-.13,.01-.19h2.36v-2.37h2.3s.05-.05,.07-.07v-4.26c.79,0,1.55,0,2.32,0,.01,0,.02,0,.03-.01,0,0,.02-.02,.04-.03v-2.82c.78,0,1.54,0,2.31,0,0,0,.02,0,.03-.01,0,0,.02-.02,.04-.04v-2.34c.81,0,1.61,0,2.41,0,0,0,.01-.02,.03-.04-.02-.04-.05-.08-.07-.11,.02-.05,.05-.09,.05-.13,0-.52,0-1.05,0-1.57,0-.06-.04-.12-.06-.18-.03-.13-.04-.25,.11-.33h2.21s.07-.07,.11-.1v-2.27h4.76v4.76h2.36c0,1.57,0,3.12,0,4.68,0,.01,0,.02,.01,.03,0,0,.02,.02,.02,.02h2.41c0,1.73,0,3.46,0,5.18,0,0,0,.02,.01,.03,0,0,.02,.02,.01,.01h2.24c.05-.05,.08-.09,.11-.13v4.89h1.2c.2,0,.41-.04,.59,.01,.17,.05,.35-.12,.49,.05,.06-.07-.04-.19,.1-.2v4.96h2.37v7.61h2.86v7.08s.07,.08,.1,.11c.65,0,1.3,0,1.95,0,.11,0,.23,.01,.32-.07,.02,.02,.05,.05,.07,.07-.02,.07-.07,.14-.07,.22,0,.66,0,1.32,0,1.99,0,.06,.03,.12,.05,.19,0,.04,.03,.1,.02,.13-.11,.16-.06,.33-.06,.5,0,.69,0,1.37,0,2.06s0,1.37,0,2.06c.01,.68-.06,1.36,.06,2.03,.02,.11,0,.22,0,.34,.68,0,1.33,0,1.98,0,.11,0,.23-.01,.32,.07v7.19h-2.37c-.05-.01-.13,.03-.14-.07h.14c0-.77,0-1.51,0-2.25,0,0,0-.02-.01-.03,0,0-.02-.02-.01-.01h-7.09v6.09s-.08,.08-.11,.11c-.02-.02-.03-.04-.05-.04-.76,0-1.53-.02-2.29-.02v-8.59h-2.86v-2.36h-2.38v2.36h-2.37v4.74h-2.37v-7.12h-2.37v-2.37h-7.19v-2.35s-.04-.02-.05-.02c-1.73,0-3.46,0-5.19,0Zm3.84-12.43h-2.37v2.3s-.05,.05-.07,.07h-2.36c-.04,.97-.03,2.58,.02,2.86h2.41v2.37h2.23s.09,.05,.14,.07v2.29c1.11,.05,4.45,.03,4.75-.02v-2.2c.01-.05-.03-.13,.07-.14h2.29c.05-1.21,.03-7.3-.02-7.61h-2.34v-2.36c-1.11-.05-4.45-.03-4.75,.02v2.34Zm3.77-15.78h-2.36c-.05,1.2-.03,6.89,.02,7.19h2.34v2.08c.16,0,.29,.02,.43,.03v.19c.06-.18,.22-.24,.36-.28q.26,.12,.4,.31c.06-.08,.12-.16,.16-.22,.1-.03,.2-.06,.29-.09,.29,.07,.4,.25,.38,.54,0,.08,0,.16,0,.24,0,.02,.02,.04,.03,.06,.03,0,.06-.01,.1-.02,.02-.26-.01-.51,.02-.74h.55v.74h.28v-.74h.56v.74c.98,.04,3.33,.03,3.62-.02v-2.83h2.37v-1.79c.06-.18,.16-.17,.25-.17,.42,0,.84,0,1.25,0h.87c0-.5,0-.98,0-1.45,0-.47,0-.94,0-1.41h-2.23c-.05-.01-.13,.03-.14-.07v-4.68h-2.37v-2.36c-1.11-.05-4.45-.03-4.75,.02v2.34h-2.44v2.37Zm18.22,26.74h2.29c.05-1.11,.03-4.45-.02-4.75h-2.34v-2.36c-1.11-.05-4.45-.03-4.75,.02v2.34h-2.36v4.75c.68,0,1.34,0,2,0,.1,0,.2,0,.28-.07l.07,.07v2.37h3.21c.09-.16,.08-.37,.25-.49,.16-.11,.33-.21,.52-.32,.02-.06,.06-.16,.09-.25-.06-.05-.11-.1-.15-.13-.2,.07-.13,.24-.16,.35h-.54v-.47c.12-.12,.25-.25,.35-.35q.63,0,.86,.14c.12,.23,.19,.46,.18,.73-.01,.26,0,.53,0,.8h.14v-2.37h.07Zm2.39,.91c-.16,.73-.05,1.44-.09,2.19,.15-.08,.25-.13,.34-.17,.03-.23,.08-.42,.08-.62,.01-.34,0-.67,0-1.01,0-.15,0-.29-.12-.39h-.22Zm-19.41-17.59c.11-.04,.23,.04,.27-.07,.02-.06,0-.15,0-.21h-.26v.28Zm15.97,19.03h.28v-.39c-.11,.16-.19,.26-.28,.39Zm-16.55-19.04v-.27h-.19c0,.1,.01,.18,.01,.27h.18Z"/><path class="cls-2" d="M20.11,28.15c0,.16,0,.32,0,.47,0,.03-.04,.06-.07,.09v-.55c-.19,.02-.35,.06-.51,.06-.16,0-.33-.02-.52-.04-.17,.17-.37-.07-.57-.03-.2,.05-.4,.13-.57,0-.06,.05-.09,.08-.12,.1v2.27s-.05,.05-.07,.07h-2.3v2.3s-.05,.05-.07,.07h-2.87v7.55c-.14,.02-.27,.06-.4,.06-.65,0-1.3,0-1.97,0v2.37h-2.86v5.2s-.07,.07-.11,.11c-.02-.02-.03-.04-.05-.04-.58,0-1.16-.02-1.73-.02h-.07v-.42c0-.72,0-1.44,0-2.16,0-.1,.03-.21-.13-.29-.6,0-1.24,0-1.88,0-.08,0-.18,.05-.23,.02-.15-.08-.26,.02-.33,.04-.11-.03-.17-.05-.23-.06-.02-.21-.06-.42-.07-.63-.01-.28,0-.56,0-.84v-1.64c0-.28,.02-.56,0-.84-.03-.28,.08-.54,.08-.81v-.07c.27,0,.53,.12,.81,.07,.06-.01,.12,0,.17,0,.3-.03,.62,.07,.91-.07,.03-.01,.08-.01,.1,0,.11,.11,.24,.06,.36,.06,.15-.01,.29-.07,.44-.1,0-1.25,0-2.51,0-3.76,0-.29-.03-.59,.1-.89,.11-.02,.24-.05,.37-.05,.62,0,1.25,0,1.9,0v-2.37h2.38c.02-.15,.06-.29,.06-.43,0-.65,0-1.3,0-1.94,.7,0,1.39,0,2.09,0,.1,0,.21,.03,.29-.13v-4.69c.14,.02,.28,.06,.42,.07,.16,.01,.32,0,.49,0,.35,0,.69,0,1.04,0,.14,0,.28-.04,.43-.06v-2.38c.71,0,1.41,0,2.12,0,.11,0,.2,0,.26-.12v-2.26h2.37v-2.37h2.44v-4.75h2.37v-2.44h2.27s.07-.07,.11-.11v-2.21c.15-.02,.29-.05,.43-.06,.61,0,1.23,0,1.83,0,.04-.04,.08-.07,.11-.1v-2.27h2.35c.03-.26,.08-.51,.09-.75,.02-.27,0-.53,0-.8v-.71s.07-.08,.11-.12c.14,.04,.29-.05,.43,.07,.04,.03,.16,.03,.2,0,.09-.09,.2-.06,.29-.06,.22,0,.44-.02,.67,.06,.2,.06,.42,0,.61-.1V2.39h.07c.14,0,.3,.04,.38-.04,.16,.02,.28,.04,.4,.04,1.49,0,2.97,0,4.46,0h.49c0,.73,0,1.46,0,2.19,0,.09-.03,.17-.04,.26-.03,.19-.07,.38,.04,.55-.14,.26-.05,.54-.06,.81-.02,.28,0,.56,0,.83-.03,.03-.07,.07-.11,.11h-2.68v2.02c-.08-.07-.18-.07-.29-.07-.57,0-1.14,0-1.71,0h-.38v2.31c-.14,.02-.27,.06-.4,.06-.52,0-1.05,0-1.57,0-.12,0-.24-.03-.4-.05-.1,.14-.14,.34-.14,.53,0,.27-.03,.54,.05,.81,.05,.18,0,.39,.01,.59,0,.17-.05,.31-.16,.41-.67,0-1.33,0-1.99,0-.02,0-.03-.03-.05-.05-.05,.06-.11,.12-.17,.19,.01,.35-.1,.7-.08,1.07,.02,.39,0,.78,0,1.17-.14,.06-.26,0-.38,.07-.09,.05-.25-.04-.38-.05-.17-.01-.35,0-.52,0-.21,0-.43,.05-.63-.07-.04,.03-.07,.05-.1,.07-.07-.03-.13-.06-.18-.08-.11,.14-.11,.28-.11,.43,0,.8,0,1.6,0,2.4-.04,.04-.07,.1-.1,.1-.2,0-.39,.09-.6,.08-.48-.02-.95,0-1.4,0-.08,.04-.14,.07-.2,.1,0,.56,0,1.11,0,1.67,.01,.55-.11,1.09-.08,1.65,.02,.3,0,.6,0,.91v.14s-.07-.09-.1-.13h-2.12c-.09,.15-.15,.3-.15,.47,0,.17,0,.35,0,.52,.02,.3-.06,.61,.06,.91,.02,.05-.02,.13-.04,.19-.01,.06-.02,.12-.03,.17,.08,.07,.19-.03,.21,.1h-.2c0,.06-.01,.13-.01,.19,0,.67,0,1.35,0,2.02,0,.06,.05,.15-.07,.16v-2.27c-.13-.1-.27-.11-.42-.1-.12,0-.23,0-.35,0-.03-.09-.06-.18-.08-.25-.2-.15-.4-.09-.58-.1-.1,.06-.18,.12-.25,.16v.19c-.19,0-.38-.03-.57,.11-.02,.1-.05,.23-.05,.36,0,.63,0,1.27,0,1.9Zm-8.87,8.02c0-.39,0-.75,0-1.11,0-.13-.02-.27-.08-.38-.04-.08-.15-.12-.23-.18q-.43,0-.64,.15c-.04,.14-.07,.25-.1,.38,.12,.04,.23,.09,.35,.13,.03,.13-.18,.09-.15,.22-.16,0-.1,.14-.15,.21-.08,.11-.07,.2-.01,.31,.04,.09,.07,.18,.1,.27h.91Z"/><path class="cls-3" d="M5.31,48.18c.58,0,1.16,.01,1.73,.02,.02,0,.03,.03,.05,.04,.03-.03,.07-.07,.11-.11v-5.2h2.86c0,1.64,0,3.28,0,4.92,0,.11-.03,.24,.12,.32h4.69v2.36h9.5v2.38H14.8v-2.16s.05-.04,.07-.05c-.02-.03-.05-.06-.07-.09h-.07s-.05-.05-.07-.07H5.31v-2.37Z"/><path class="cls-3" d="M36.79,9.09v-1.95h2.68s.07-.07,.11-.11c0-.28-.01-.55,0-.83,.01-.27-.07-.55,.06-.81-.11-.17-.07-.36-.04-.55,.01-.09,.04-.17,.04-.26,0-.73,0-1.46,0-2.19h1.85s.02,.01,.02,.02c0,0,.01,.02,.01,.03,0,2.18,0,4.37,0,6.55,.24,.13,.47,.14,.72,.05,.05-.02,.11-.02,.17-.02,.49,0,.97,0,1.46,0,.1,.13,.1,.27,.1,.42,0,1.45,0,2.91,0,4.36,0,0,.01,.02,.02,.02,0,0,.02,.01,.03,.01,.74,0,1.48,0,2.25,0v4.75h-2.34s-.02-.01-.02-.02c0,0-.01-.02-.01-.03,0-1.56,0-3.11,0-4.68h-2.36v-4.76h-4.76Z"/><path class="cls-3" d="M49.14,68.7c.76,0,1.53,.01,2.29,.02,.02,0,.03,.03,.05,.04,.03-.03,.07-.07,.11-.11v-6.09h7.09s0,0,.01,.01c0,0,.01,.02,.01,.03,0,.74,0,1.48,0,2.25h-4.71s-.02,.01-.02,.02c0,0-.01,.02-.01,.03,0,2.05,0,4.09,0,6.16h-.91c.03-.2-.17-.2-.26-.27h-.4c-.11,.08-.29,.09-.25,.27h-3v-2.16s.04-.02,.06-.02c-.02-.02-.04-.03-.06-.05v-.14Z"/><path class="cls-3" d="M58.71,64.93h2.37v-7.19h2.33c.14,.12,.11,.28,.11,.43,0,1.21,0,2.41,0,3.62-.22-.03-.44-.06-.64-.09-.11,.1-.19,.18-.25,.25-.03,.12-.06,.22-.09,.32h.4c.01-.07,.02-.13,.03-.19h.19v.2c-.15,.1-.31,.22-.49,.34-.12,.21-.04,.45-.07,.68,.19,.13,.39,.16,.58,.02,.09,.13,.22,.07,.33,.08,0,1.2,0,2.39,0,3.59,0,.11,.04,.24-.11,.31h-4.6c-.13-.07-.11-.17-.11-.28,0-.7,0-1.39,0-2.09Z"/><path class="cls-3" d="M46.28,60.12h2.86v8.59h-2.86v-8.59Z"/><path class="cls-3" d="M61.08,57.74c-.09-.08-.21-.07-.32-.07-.65,0-1.3,0-1.98,0,0-.11,.02-.23,0-.34-.13-.67-.05-1.35-.06-2.03-.01-.69,0-1.37,0-2.06s0-1.37,0-2.06c0-.17-.05-.34,.06-.5,.02-.03,0-.09-.02-.13-.01-.06-.05-.13-.05-.19,0-.66,0-1.32,0-1.99,0-.07,.04-.14,.07-.22h2.3v9.56Z"/><path class="cls-3" d="M39.16,64.86h2.37v-4.74h2.37v-2.36h2.38v2.36h-2.29c0,.09-.01,.18-.01,.26,0,1.37,0,2.75,0,4.12,0,.14-.03,.28-.05,.43h-2.38v2.37h-2.38v-2.44Zm2.62-3.06c-.13,.16-.13,.31-.1,.47h.32c.01-.07,.02-.13,.03-.19h.19v.2c-.15,.1-.31,.22-.48,.33-.1,.26-.12,.53,.03,.79,.17,0,.33,.04,.46-.08,.13,.12,.28,.07,.42,.06,0-.29,0-.56,0-.82,.01-.27-.03-.53-.17-.75-.19-.12-.38-.08-.55-.08-.07,.03-.12,.06-.16,.08Z"/><path class="cls-3" d="M56.33,40.99h-2.86v-7.61h2.86v7.61Z"/><path class="cls-3" d="M7.61,33.38v2.37c-.65,0-1.27,0-1.9,0-.13,0-.26,.04-.37,.05-.14,.3-.1,.6-.1,.89,0,1.25,0,2.51,0,3.76-.15,.04-.29,.09-.44,.1-.12,0-.25,.06-.36-.06-.02-.02-.07-.02-.1,0-.3,.14-.61,.04-.91,.07-.06,0-.12,0-.17,0-.28,.05-.54-.08-.81-.07v-4.63c.12-.14,.28-.12,.43-.12,.8,0,1.6,0,2.42,0v-2.37h2.31Z"/><path class="cls-3" d="M29.6,55.37h7.19v2.37h-7.19v-2.37Z"/><path class="cls-3" d="M36.79,57.74h2.37v7.12h-2.37v-7.12Z"/><path class="cls-3" d="M58.71,48.11c-.09,.08-.21,.07-.32,.07-.65,0-1.3,0-1.95,0-.03-.03-.06-.07-.1-.11v-7.01h2.37v7.05Z"/><path class="cls-3" d="M24.36,53c1.73,0,3.46,0,5.19,0,0,0,.02,0,.05,.02v2.35c-1.73,0-3.46,0-5.19,0,0,0-.02,0-.05-.02v-2.35Z"/><path class="cls-3" d="M39.16,2.39c-1.49,0-2.97,0-4.46,0-.12,0-.24-.02-.4-.04-.08,.08-.24,.03-.38,.04V.05c.3-.05,4.1-.07,5.24-.02V2.39Z"/><path class="cls-3" d="M48.73,23.68s-.06,.07-.11,.13h-2.24s0,0-.01-.01c0,0-.01-.02-.01-.03,0-1.73,0-3.46,0-5.18h2.37v5.1Z"/><path class="cls-3" d="M33.86,2.39v2.33c-.19,.11-.41,.16-.61,.1-.23-.07-.45-.05-.67-.06-.1,0-.2-.04-.29,.06-.04,.04-.16,.04-.2,0-.13-.12-.29-.03-.43-.07-.03,.04-.06,.07-.11,.12v.71c0,.27,.01,.53,0,.8-.01,.24-.06,.49-.09,.75h-2.35v-2.37h2.37V2.39h2.38Z"/><path class="cls-3" d="M53.47,33.38h-2.37v-4.75h2.37v4.75Z"/><path class="cls-3" d="M21.99,14.33v4.75h-2.37v-4.75h2.37Z"/><path class="cls-3" d="M29.11,7.14v2.27s-.07,.06-.11,.1c-.6,0-1.22,0-1.83,0-.14,0-.28,.04-.43,.06v2.21s-.06,.06-.11,.11h-2.27v-2.37h2.37v-2.38h2.38Z"/><path class="cls-3" d="M12.43,26.26v4.62c-.07,.16-.19,.13-.29,.13-.7,0-1.39,0-2.09,0v-4.75h2.37Z"/><path class="cls-3" d="M51.1,28.43c-.13,.02-.03,.14-.1,.2-.14-.17-.31,0-.49-.05-.18-.06-.39-.01-.59-.01h-1.2v-4.68h2.37v4.54Z"/><path class="cls-3" d="M2.45,40.57c0,.27-.1,.53-.08,.81,.03,.28,0,.56,0,.84v1.64c0,.28,0,.56,0,.84,0,.21,.04,.42,.07,.63-.74,0-1.48,0-2.22,0-.06,0-.15,.05-.16-.07h.19c.02-.06,.03-.1,.05-.14,.05,.05,.09,.09,.13,.13h.33c0-.27,0-.53,0-.78,0-.25-.02-.49-.1-.73-.02-.02-.05-.06-.07-.07-.19-.1-.39-.07-.6-.07,0-.86,0-1.71,0-2.57,0-.14,.03-.28,.06-.43H2.45Z"/><path class="cls-3" d="M2.45,45.32c.06,.02,.12,.03,.23,.06,.07-.02,.18-.12,.33-.04,.05,.03,.15-.02,.23-.02,.64,0,1.27,0,1.88,0,.15,.07,.13,.18,.13,.29,0,.72,0,1.44,0,2.16v.42H2.45v-2.86Z"/><path class="cls-3" d="M24.36,11.95v2.37h-2.37v-2.37h2.37Z"/><path class="cls-3" d="M17.17,21.45v2.26c-.05,.11-.15,.12-.26,.12-.71,0-1.41,0-2.12,0v-2.37h2.37Z"/><path class="cls-3" d="M10.05,31.01c0,.65,0,1.3,0,1.94,0,.14-.04,.28-.06,.43h-2.31v-2.37h2.37Z"/><path class="cls-3" d="M14.8,23.89v2.31c-.15,.02-.29,.06-.43,.06-.35,0-.69,0-1.04,0-.16,0-.32,0-.49,0-.14-.01-.28-.04-.42-.07v-2.3h2.37Z"/><path class="cls-3" d="M19.55,19.07v2.37h-2.3v-2.37h2.3Z"/><path class="cls-1" d="M63.52,63.4c-.11-.02-.23,.05-.33-.08-.19,.14-.39,.1-.58-.02,.02-.23-.05-.47,.07-.68,.17-.12,.34-.23,.49-.34v-.2h-.19c0,.06-.02,.12-.03,.19h-.4c.03-.1,.05-.2,.09-.32,.06-.06,.15-.14,.25-.25,.2,.03,.42,.06,.64,.09v1.61Zm-.35-.79c-.07,.09-.12,.14-.2,.24,0,.04,0,.12,.01,.19h.19v-.43Z"/><path class="cls-1" d="M0,43.57c.2,0,.41-.03,.6,.07,.03,.02,.05,.05,.07,.07,.08,.24,.11,.48,.1,.73,0,.26,0,.51,0,.78H.44s-.08-.08-.13-.13c-.01,.04-.03,.08-.05,.14H.07c-.09,0-.07-.07-.07-.12,0-.29,0-.57,0-.86H.17c.06-.08,.19-.13,.17-.27,0-.03-.02-.06-.02-.07H.15c-.01,.07-.02,.14-.03,.2H0v-.56Zm.33,1.33v-.4c-.07,.05-.14,.11-.2,.16,0,.1,.02,.17,.02,.24h.18Z"/><path class="cls-1" d="M52.15,71.08c-.03-.19,.14-.19,.25-.27h.4c.09,.08,.28,.07,.26,.27h-.91Z"/><path class="cls-3" d="M0,44.13H.12c0-.06,.02-.12,.03-.2h.17s.02,.04,.02,.07c.02,.14-.11,.18-.17,.27H0v-.14Z"/><path class="cls-1" d="M38.95,64.86h.21v.07c-.07-.03-.18,.06-.21-.07Z"/><path class="cls-1" d="M14.8,50.62s.05,.06,.07,.09c-.02,.02-.05,.04-.07,.05v-.14Z"/><path class="cls-1" d="M2.1,40.57h-.07s.03-.04,.05-.06c0,.02,.02,.04,.02,.06Z"/><path class="cls-1" d="M49.14,68.84s.04,.03,.06,.05c-.02,0-.04,.02-.06,.02v-.07Z"/><path class="cls-1" d="M14.66,50.55s.05,.05,.07,.07c-.02-.02-.05-.05-.07-.07Z"/><path class="cls-1" d="M2.31,40.57h-.07s.03-.04,.05-.06c0,.02,.02,.04,.02,.06Z"/><path class="cls-2" d="M41.54,27.1c0,.1,.09,.06,.14,.07-.08,.09-.07,.21-.07,.32,0,.67,0,1.35,0,2.02l-.11,.11h-2.2c-.04,.15-.09,.29-.13,.43,.02,.03,.05,.07,.06,.08-.02,.12-.06,.22-.06,.31,.01,.51-.05,1.03,.07,1.54h-.07c-.08,.01-.15-.02-.23,.04-.02,.02-.11-.04-.17-.04-.08,0-.16,0-.24,0h-6.55c0-1.38,0-2.76,0-4.15,0-.22,.06-.46-.06-.67-.02-.03-.02-.09,0-.1,.12-.1,.06-.24,.06-.36,0-.64,0-1.28,0-1.92h2.37v-2.37h4.89c-.07,.08-.07,.18-.07,.29,0,1.43,0,2.86,0,4.26,.04,.08,.07,.14,.1,.2h1.67c.1,0,.21,0,.31,0,.1-.01,.19-.04,.29-.07Z"/><path class="cls-2" d="M28.2,48.25s-.09-.05-.14-.07c.05-.04,.09-.07,.13-.1v-2.27h-2.43v-2.86s.05-.05,.07-.07c.03,.02,.06,.07,.09,.07,.73,0,1.46,0,2.16,0,.15-.07,.12-.18,.12-.28,0-.7,0-1.39,0-2.09h4.75c0,1.92,0,3.84,0,5.75,0,.62-.07,1.24,.07,1.85-.1,0-.06,.09-.07,.14-.1-.09-.23-.07-.35-.07-1.46,0-2.93,0-4.39,0Z"/><path class="cls-3" d="M24.85,23.4c0-.3,.02-.61,0-.91-.04-.55,.09-1.1,.08-1.65-.01-.56,0-1.12,0-1.67,.06-.03,.12-.06,.2-.1,.45,0,.93-.02,1.4,0,.21,0,.39-.09,.6-.08,.03,0,.07-.06,.1-.1,0-.8,0-1.6,0-2.4,0-.15,0-.29,.11-.43,.05,.02,.11,.05,.18,.08,.03-.02,.06-.04,.1-.07,.19,.11,.41,.06,.63,.07,.17,0,.35,0,.52,0,.13,0,.29,.1,.38,.05,.13-.07,.25-.01,.38-.07,0-.38,.02-.78,0-1.17-.02-.37,.1-.72,.08-1.07,.06-.07,.11-.13,.17-.19,.02,.02,.04,.05,.05,.05,.66,0,1.32,0,1.99,0,.11-.1,.17-.24,.16-.41,0-.2,.04-.41-.01-.59-.08-.27-.06-.54-.05-.81,0-.19,.04-.39,.14-.53,.16,.02,.28,.05,.4,.05,.52,0,1.05,0,1.57,0,.13,0,.26-.04,.4-.06v-2.31h.38c.57,0,1.14,0,1.71,0,.1,0,.2,0,.29,.07v2.2s-.07,.06-.11,.1h-2.21c-.15,.08-.14,.2-.11,.33,.01,.06,.06,.12,.06,.18,0,.52,0,1.05,0,1.57,0,.04-.03,.08-.05,.13,.02,.03,.04,.08,.07,.11-.02,.02-.03,.04-.03,.04-.8,0-1.6,0-2.41,0v2.34s-.03,.03-.04,.04c0,0-.02,.01-.03,.01-.77,0-1.53,0-2.31,0v2.82s-.03,.03-.04,.03c0,0-.02,.01-.03,.01-.77,0-1.53,0-2.32,0v4.26s-.05,.05-.07,.07h-.21s-.02-.04-.02-.06c-.02,.02-.03,.04-.05,.06h-1.61c-.09-.09-.19-.09-.28,0h-.14Z"/><path class="cls-3" d="M10.05,42.95v-2.37c.67,0,1.32,0,1.97,0,.13,0,.26-.04,.4-.06v-7.55h2.87v7.6h-2.85v2.38h-2.38Z"/><path class="cls-2" d="M45.38,51.53l-.07-.07c0-.44,0-.88,0-1.32,0-.43-.05-.86,.06-1.29,.03-.13,.01-.28,0-.42-.01-.14-.06-.28-.06-.42-.01-.21,0-.42,0-.63-.01-.21,.13-.39,.07-.6v-.07h4.75v.07c.08,.09,.07,.21,.07,.32,0,.41,0,.81,0,1.22-.01,.4,0,.79-.05,1.19-.05,.41-.1,.85,.05,1.26,0,.02,.01,.06,0,.07-.14,.09,0,.22-.06,.34-.04,.1-.03,.25,.06,.35h-4.82Z"/><path class="cls-3" d="M31.97,31.99h6.55c.08,0,.16,0,.24,0,.06,0,.14,.06,.17,.04,.07-.06,.15-.03,.23-.04v2.83c-.29,.05-2.64,.07-3.62,.02v-.74h-.56v.74h-.28v-.74h-.55c-.03,.23,0,.48-.02,.74-.04,0-.07,.01-.1,.02-.01-.02-.03-.04-.03-.06,0-.08,0-.16,0-.24,.02-.28-.09-.47-.38-.54-.09,.03-.18,.06-.29,.09-.04,.06-.1,.13-.16,.22q-.14-.19-.4-.31c-.15,.04-.3,.09-.36,.28v-.19c-.14,0-.28-.02-.43-.03v-2.08Z"/><path class="cls-3" d="M33.02,48.18c-.13-.61-.06-1.24-.07-1.85,0-1.92,0-3.84,0-5.75h2.34c.05,.3,.07,6.39,.02,7.61h-2.29Z"/><path class="cls-3" d="M31.97,24.8c0,.64,0,1.28,0,1.92,0,.12,.06,.25-.06,.36-.02,.01-.02,.07,0,.1,.12,.21,.06,.45,.06,.67,0,1.38,0,2.76,0,4.15h-2.34c-.05-.3-.07-5.99-.02-7.19h2.36Z"/><path class="cls-3" d="M39.23,31.99c-.12-.51-.06-1.03-.07-1.54,0-.1,.03-.19,.06-.31,0-.01-.03-.05-.06-.08,.04-.14,.09-.29,.13-.43h2.2l.11-.11c0-.67,0-1.35,0-2.02,0-.11-.01-.23,.07-.32h2.23c.02,.47,0,.94,0,1.41,0,.48,0,.95,0,1.45h-.87c-.42,0-.84,0-1.25,0-.09,0-.19-.02-.25,.17v1.79h-2.3Z"/><path class="cls-3" d="M39.16,22.42h-4.75v-2.34c.3-.05,3.64-.07,4.75-.02v2.36Z"/><path class="cls-3" d="M32.95,40.57h-4.75v-2.34c.3-.05,3.64-.07,4.75-.02v2.36Z"/><path class="cls-3" d="M41.54,27.1c-.1,.02-.19,.06-.29,.07-.1,.01-.21,0-.31,0h-1.67c-.03-.06-.06-.12-.1-.2,0-1.4,0-2.83,0-4.26,0-.1,0-.2,.07-.29h2.3v4.68Z"/><path class="cls-3" d="M50.19,51.53c-.09-.1-.1-.25-.06-.35,.05-.11-.08-.25,.06-.34,.01,0,0-.05,0-.07-.15-.41-.1-.85-.05-1.26,.04-.4,.04-.8,.05-1.19,.01-.41,0-.81,0-1.22,0-.11,.01-.23-.07-.32h2.34c.05,.3,.07,3.64,.02,4.75h-2.29Z"/><path class="cls-3" d="M45.38,46.78c.05,.21-.08,.39-.07,.6,.01,.21,0,.42,0,.63,0,.14,.05,.28,.06,.42,.01,.14,.03,.28,0,.42-.11,.43-.05,.86-.06,1.29,0,.44,0,.88,0,1.32-.08,.07-.18,.07-.28,.07-.66,0-1.32,0-2,0v-4.75h2.36Z"/><path class="cls-3" d="M50.12,46.71h-4.75v-2.27c.3-.05,3.64-.07,4.75-.02v2.29Z"/><path class="cls-3" d="M28.2,48.25c1.46,0,2.93,0,4.39,0,.12,0,.25-.02,.35,.07v2.2c-.3,.05-3.64,.07-4.75,.02v-2.29Z"/><path class="cls-3" d="M45.38,51.53h4.75v2.37h-.14c0-.27-.01-.54,0-.8,.01-.27-.06-.5-.18-.73q-.23-.14-.86-.14c-.11,.11-.23,.24-.35,.35v.47h.54c.03-.11-.04-.28,.16-.35,.04,.03,.09,.07,.15,.13-.03,.1-.07,.19-.09,.25-.19,.12-.35,.21-.52,.32-.17,.11-.16,.33-.25,.49h-3.21v-2.37Z"/><path class="cls-3" d="M25.76,42.95v2.86h-2.34c-.05-.28-.07-1.89-.02-2.86h2.36Z"/><path class="cls-3" d="M34.35,22.42v2.37h-2.37v-2.37h2.37Z"/><path class="cls-3" d="M28.2,40.57c0,.7,0,1.39,0,2.09,0,.1,.02,.21-.12,.28-.7,0-1.43,0-2.16,0-.03,0-.06-.04-.09-.07v-2.3h2.37Z"/><path class="cls-3" d="M25.83,45.81h2.36v2.27s-.08,.07-.13,.1h-2.23v-2.37Z"/><path class="cls-3" d="M22.69,25.77c-.02-.13-.14-.03-.21-.1,0-.04,.02-.11,.03-.17,.01-.06,.06-.14,.04-.19-.12-.3-.04-.61-.06-.91-.01-.17,0-.35,0-.52,0-.17,.06-.32,.15-.47h2.12s.06,.08,.1,.13v2.23h-2.16Z"/><path class="cls-3" d="M17.73,30.52v-2.27s.07-.05,.12-.1c.18,.13,.37,.05,.57,0,.2-.05,.4,.2,.57,.03,.19,.01,.36,.04,.52,.04,.16,0,.33-.04,.51-.06v2.37h-2.3Z"/><path class="cls-3" d="M15.36,32.89v-2.3h2.3v2.3h-2.3Z"/><path class="cls-3" d="M20.11,28.15c0-.63,0-1.27,0-1.9,0-.13,.04-.26,.05-.36,.19-.15,.39-.11,.57-.11v.21c.13,0,.24-.01,.36-.02v-.19h.19v.17c-.19,.16-.37,.32-.55,.46v.49c.07,.08,.12,.14,.18,.21,.13-.02,.26-.04,.41-.07,.08,.06,.19,.09,.31,.02v-1.29c.12,0,.23,0,.35,0,.15,0,.29,0,.42,.1v2.27h-2.3Z"/><path class="cls-4" d="M52.58,52.44h.22c.11,.1,.12,.24,.12,.39,0,.34,0,.67,0,1.01,0,.2-.05,.4-.08,.62-.09,.04-.19,.1-.34,.17,.04-.75-.07-1.46,.09-2.19Z"/><path class="cls-3" d="M33.17,34.86v-.28h.26c0,.06,.03,.15,0,.21-.04,.11-.16,.03-.27,.07Z"/><path class="cls-3" d="M49.13,53.89c.09-.13,.17-.24,.28-.39v.39h-.28Z"/><path class="cls-3" d="M32.58,34.85h-.18c0-.08,0-.17-.01-.27h.19v.27Z"/><path class="cls-2" d="M24.99,23.4c.09-.09,.19-.09,.28,0h-.28Z"/><path class="cls-2" d="M26.88,23.4s.03-.04,.05-.06c0,.02,.02,.04,.02,.06h-.07Z"/><path class="cls-2" d="M27.16,23.4s.05-.05,.07-.07c-.02,.02-.05,.05-.07,.07Z"/><path class="cls-1" d="M11.24,36.17h-.91c-.03-.09-.05-.18-.1-.27-.05-.11-.07-.2,.01-.31,.05-.07-.01-.21,.15-.21-.03-.13,.18-.09,.15-.22-.11-.04-.23-.09-.35-.13,.03-.13,.06-.25,.1-.38q.2-.15,.64-.15c.08,.06,.2,.1,.23,.18,.06,.11,.07,.25,.08,.38,0,.36,0,.72,0,1.11Zm-.44-.34v-.38c-.06,.04-.14,.09-.2,.13,0,.1,.02,.18,.02,.25h.18Zm-.19-.7c.07-.07,.12-.13,.18-.19h-.18v.19Z"/><path class="cls-1" d="M21.64,25.77v1.29c-.12,.07-.23,.04-.31-.02-.15,.03-.28,.05-.41,.07-.06-.07-.11-.13-.18-.21v-.49c.17-.14,.36-.3,.55-.46v-.17h-.19v.19c-.12,0-.23,.01-.36,.02v-.4c.07-.05,.15-.1,.25-.16,.18,.01,.38-.04,.58,.1,.02,.06,.05,.15,.08,.25Zm-.37,.98v-.38c-.06,.04-.14,.09-.2,.13,0,.1,.02,.18,.02,.25h.18Z"/><path class="cls-1" d="M41.79,61.8s.09-.04,.16-.08c.17,0,.36-.04,.55,.08,.13,.22,.18,.48,.17,.75-.01,.27,0,.53,0,.82-.14,.01-.28,.05-.42-.06-.13,.11-.3,.07-.46,.08-.14-.26-.13-.53-.03-.79,.17-.12,.33-.23,.48-.33v-.2h-.19c0,.06-.02,.12-.03,.19h-.32c-.03-.16-.03-.31,.1-.47Zm.25,.98v.26h.2c-.01-.12,.02-.24-.04-.37-.06,.05-.11,.08-.16,.11Z"/><path class="cls-3" d="M63.17,62.61v.43h-.19c0-.07,0-.16-.01-.19,.08-.09,.13-.15,.2-.24Z"/><path class="cls-3" d="M.33,44.9H.16c0-.07-.01-.15-.02-.24,.06-.05,.13-.1,.2-.16v.4Z"/><path class="cls-2" d="M10.8,35.83h-.18c0-.07-.01-.15-.02-.25,.06-.04,.14-.09,.2-.13v.38Z"/><path class="cls-2" d="M10.62,35.12v-.19h.18c-.06,.06-.11,.12-.18,.19Z"/><path class="cls-3" d="M21.27,26.75h-.18c0-.07-.01-.15-.02-.25,.06-.04,.14-.09,.2-.13v.38Z"/><path class="cls-3" d="M42.04,62.78c.05-.04,.09-.07,.16-.11,.06,.14,.03,.25,.04,.37h-.2v-.26Z"/></g></svg>