<?xml version="1.0" encoding="UTF-8"?><svg id="Layer_2" xmlns="http://www.w3.org/2000/svg" viewBox="0 0 85.92 85.93"><defs><style>.cls-1{fill:#fefdfd;}.cls-2{fill:#fd0b0d;}</style></defs><g id="Layer_3"><path class="cls-2" d="M85.78,39.51c.25,1.78,.07,3.59,.13,5.4,.02,.72-.21,1.42-.12,2.13-.16,.3-.09,.63-.12,.95-.03,.32-.06,.65-.14,.95-.14,.56-.06,1.16-.33,1.69,.05,.56-.18,1.07-.25,1.61-.06,.52-.23,1.04-.37,1.55-.18,.67-.37,1.34-.58,2-.18,.57-.32,1.16-.57,1.71-.22,.5-.4,1.01-.59,1.52-.03,.07-.02,.15-.06,.21-.54,1.03-.87,2.16-1.48,3.16-.37,.61-.6,1.3-1.06,1.86-.32,.91-1.04,1.6-1.42,2.48-.57,.56-.89,1.3-1.41,1.9-.52,.61-.98,1.28-1.47,1.92-.14,.18-.31,.37-.5,.49-.19,.12-.17,.43-.44,.46-.9,1.16-2.05,2.09-3.04,3.17-.15,.16-.36,.22-.48,.44-.1,.18-.35,.28-.52,.43-.16,.14-.28,.36-.47,.44-.24,.1-.34,.31-.53,.44-.55,.39-1.09,.81-1.61,1.24-.37,.3-.8,.53-1.19,.81-.51,.37-1.05,.7-1.58,1.03-.27,.17-.52,.34-.8,.5-.49,.28-.99,.56-1.49,.83-.64,.34-1.28,.71-1.95,1-.9,.39-1.8,.79-2.71,1.14-.68,.26-1.35,.55-2.04,.77-.36,.12-.75,.2-1.11,.33-.35,.12-.7,.2-1.05,.3-.62,.18-1.24,.32-1.87,.48-.63,.15-1.28,.24-1.91,.38-.56,.12-1.13,.16-1.69,.31-.43,.12-.91,.09-1.36,.14-.28,.03-.56,.09-.84,.11-.27,.02-.57-.06-.82,.02-.48,.16-.95,.09-1.43,.1-1,.02-2.01,.02-3.01,0-.83-.02-1.66-.03-2.48-.13-.38-.05-.76-.06-1.13-.11-.3-.04-.61-.06-.89-.13-.3-.07-.62-.02-.89-.12-.3-.1-.62-.11-.92-.2-.3-.1-.64-.05-.95-.14-1.01-.28-2.05-.41-3.02-.81-.66,0-1.21-.47-1.87-.48-.61-.38-1.33-.5-1.99-.76-1.36-.54-2.66-1.18-3.97-1.82-.5-.25-1.03-.49-1.51-.76-.47-.27-1.02-.47-1.4-.89-.9-.41-1.63-1.08-2.48-1.56-.39-.22-.73-.54-1.08-.82-.8-.65-1.6-1.3-2.37-1.98-.53-.46-1-.97-1.52-1.43-.15-.14-.26-.33-.49-.38-.08-.02-.17-.12-.21-.2-.15-.33-.44-.53-.67-.78-.54-.58-1.13-1.13-1.61-1.76-.44-.58-.95-1.11-1.33-1.74-.33-.54-.76-1.02-1.14-1.54-.36-.5-.72-1-1.04-1.52-.47-.75-.9-1.51-1.33-2.28-.39-.7-.73-1.43-1.08-2.15-.25-.52-.49-1.05-.71-1.59-.21-.52-.39-1.06-.62-1.57-.41-.92-.6-1.91-1.02-2.82,0-.4-.19-.75-.3-1.12-.1-.35-.16-.71-.28-1.06-.1-.3-.15-.65-.21-.97-.07-.33-.09-.67-.17-.99-.1-.36-.19-.72-.22-1.08-.03-.36-.11-.72-.16-1.07-.05-.34,.01-.71-.11-1.01-.14-.35-.01-.7-.11-1.02-.14-.47-.03-.97-.13-1.42-.13-.6-.08-1.19-.1-1.78-.02-.61,.03-1.22-.01-1.83-.06-.9,.19-1.77,.13-2.66,.17-.42,.05-.88,.14-1.3,.06-.32,.05-.65,.11-.95,.06-.3,.12-.59,.1-.9,.26-.25,.04-.61,.21-.92,.15-.26,.07-.63,.15-.94,.09-.38,.11-.78,.25-1.13,.14-.36,.1-.77,.33-1.1-.01-.57,.24-1.09,.38-1.62,.17-.63,.4-1.25,.62-1.86,.26-.72,.57-1.42,.84-2.13,.43-1.13,.98-2.19,1.51-3.27,.32-.66,.75-1.27,1.06-1.92,.4-.82,1.05-1.47,1.4-2.31,.55-.57,.89-1.29,1.41-1.9,.53-.62,1.03-1.26,1.53-1.9,1.2-1.54,2.66-2.84,4.03-4.22,.68-.69,1.45-1.3,2.23-1.88,.87-.64,1.74-1.27,2.64-1.87,.65-.43,1.29-.89,1.95-1.29,.61-.36,1.22-.73,1.87-1.03,.64-.3,1.27-.63,1.91-.94,.47-.23,.93-.51,1.43-.67,.49-.15,.92-.46,1.44-.52,.88-.49,1.88-.69,2.82-1.02,.65-.22,1.34-.38,2.03-.53,.39-.08,.78-.17,1.17-.31,.23-.08,.51-.13,.77-.14,.31-.01,.58-.2,.89-.13,.23-.28,.57-.04,.86-.21,.23-.13,.58-.06,.88-.12,.52-.11,1.07-.09,1.6-.14,.28-.03,.56-.09,.84-.11,.29-.02,.61,.06,.88-.02,.77-.22,1.54-.07,2.31-.1,.79-.03,1.58-.08,2.36,.02,.56,.07,1.11,.06,1.66,.1,.24,.02,.46,.15,.72,.12,.24-.03,.5-.04,.72,.11,.45-.09,.87,.09,1.31,.13,.55,.06,1.1,.14,1.64,.3,.25,.08,.51,.11,.76,.15,.62,.11,1.22,.29,1.83,.41,.55,.11,1.05,.33,1.6,.43,.52,.1,1.01,.3,1.51,.47,.97,.32,1.92,.69,2.85,1.1,1.37,.6,2.7,1.28,4.02,1.96,1.21,.62,2.37,1.35,3.47,2.14,.65,.47,1.34,.89,1.96,1.43,.7,.61,1.44,1.18,2.15,1.79,.58,.5,1.1,1.04,1.65,1.56,.21,.2,.49,.3,.64,.61,.13,.27,.42,.45,.65,.68s.48,.42,.66,.67c.46,.66,1.15,1.12,1.51,1.85,.63,.53,.98,1.3,1.53,1.91,.39,.44,.69,.96,1.01,1.46,.35,.55,.67,1.1,1.04,1.64,.26,.37,.42,.81,.64,1.21,.11,.21,.25,.41,.37,.61,.12,.19,.14,.41,.31,.58,.13,.13,.16,.36,.23,.55,.15,.39,.4,.73,.55,1.13,.14,.37,.34,.73,.49,1.09,.16,.38,.31,.78,.46,1.17,.18,.46,.35,.92,.52,1.38,.16,.41,.22,.85,.43,1.24,.1,.19,.1,.43,.16,.64,.21,.76,.4,1.53,.61,2.29,.17,.62,.2,1.28,.45,1.88-.05,.61,.27,1.18,.24,1.79,0,.2,.08,.4,.11,.6,.02,.19-.04,.39,.12,.54,0,0,0,.04,0,.06-.09,.56,.19,1.1,.11,1.69Zm-51.9,12.73c0,5.46,0,10.93,0,16.39,0,.17-.02,.36,.04,.51,.33,.76,.97,1.33,1.9,1.33,4.7-.01,9.4-.01,14.09,0,.72,0,1.3-.2,1.75-.76,.08-.1,.22-.19,.24-.31,.08-.42,.25-.81,.25-1.26,0-5.15,0-10.3,0-15.45v-.52h14.44c.49,0,.99,.03,1.47,0,.46-.04,.92-.15,1.37-.23,.11-.11,.22-.23,.34-.33,.51-.42,.67-.96,.67-1.61-.01-3.79,0-7.59,0-11.38,0-.98,0-1.97,0-2.95,0-.42-.15-.79-.45-1.11-.26-.29-.58-.48-.95-.66h-16.29c-.12,0-.24,.02-.35,0-.12-.02-.24-.07-.3-.09,.02-.27,.06-.47,.06-.67,0-1.81,0-3.62,0-5.43s.02-3.66,0-5.48c-.02-1.79,.13-3.59-.13-5.37-.07-.12-.14-.25-.22-.38-.35-.59-.86-.97-1.54-.97-4.84-.01-9.67,0-14.51,0-.26,0-.56,0-.76,.14-.61,.39-1.13,.85-1.13,1.7,.02,5.46,0,10.93,0,16.39l-.18,.18H17.49c-.12,0-.24-.02-.35,0-.2,.04-.42,.06-.58,.16-.75,.48-1.08,.95-1.08,1.89,0,4.72,0,9.44,0,14.15,0,.57,.21,1.01,.58,1.42,.22,.25,.52,.36,.75,.5,.38,.06,.71,.15,1.05,.15,5.15,0,10.3,0,15.45,0,.08,0,.16,.01,.24,0,.07-.02,.14-.06,.2-.09,.07,.07,.11,.11,.15,.15Z"/><path class="cls-1" d="M33.88,52.24s-.08-.08-.15-.15c-.06,.03-.13,.07-.2,.09-.08,.02-.16,0-.24,0-5.15,0-10.3,0-15.45,0-.34,0-.67-.09-1.05-.15-.23-.14-.52-.25-.75-.5-.36-.41-.58-.85-.58-1.42,0-4.72,0-9.44,0-14.15,0-.95,.33-1.41,1.08-1.89,.16-.1,.38-.12,.58-.16,.11-.02,.24,0,.35,0h16.21l.18-.18c0-5.46,0-10.92,0-16.39,0-.85,.52-1.31,1.13-1.7,.2-.13,.51-.14,.76-.14,4.84,0,9.67-.01,14.51,0,.68,0,1.19,.39,1.54,.97,.08,.13,.15,.25,.22,.38,.25,1.79,.1,3.58,.13,5.37,.02,1.83,0,3.66,0,5.48s0,3.62,0,5.43c0,.2-.03,.4-.06,.67,.05,.02,.17,.07,.3,.09,.11,.02,.24,0,.35,0h16.29c.38,.18,.69,.37,.95,.66,.29,.32,.44,.69,.45,1.11,.01,.98,0,1.97,0,2.95,0,3.79,0,7.59,0,11.38,0,.65-.16,1.19-.67,1.61-.12,.1-.22,.22-.34,.33-.46,.08-.91,.19-1.37,.23-.49,.04-.98,0-1.47,0h-14.44v.52c0,5.15,0,10.3,0,15.45,0,.44-.17,.84-.25,1.26-.02,.11-.16,.21-.24,.31-.45,.56-1.03,.76-1.75,.76-4.7-.02-9.4-.02-14.09,0-.94,0-1.58-.56-1.9-1.33-.06-.15-.04-.34-.04-.51,0-5.46,0-10.93,0-16.39Z"/></g></svg>