<?xml version="1.0" encoding="UTF-8"?><svg id="Layer_2" xmlns="http://www.w3.org/2000/svg" viewBox="0 0 67.38 67.34"><defs><style>.cls-1{fill:#023380;}.cls-2{fill:#012256;}.cls-3{fill:#fefefe;}.cls-4{fill:#0155d3;}</style></defs><g id="Layer_3"><path class="cls-2" d="M0,25.25v-8.41c.69-.03,1.39-.01,2.08-.01,.7,0,1.4,0,2.12,0v-4.2h4.22v-4.22h4.22V4.21h4.19c.04-.71,.02-1.41,.02-2.1,0-.7,0-1.4,0-2.11H50.51c.04,.67,.01,1.37,.02,2.06,0,.7,0,1.4,0,2.12h4.2v4.22h4.22v4.22h4.22v4.22h4.21v8.42h-8.42v-4.21h-4.21v-4.21h-4.21v-4.19c-1.92-.08-16.38-.05-16.84,.04v4.16h-4.21v4.21h-4.21v4.21H0Z"/><path class="cls-1" d="M58.96,25.25h8.42v25.25h-4.21c0,.71,0,1.4,0,2.1,0,.7,0,1.4,0,2.13H29.48v-4.21h4.23v-4.21c5.61,0,11.18,0,16.75,0,.01,0,.03,0,.04-.02,.01-.01,.02-.03,.03-.04v-4.15h4.21v-4.21h4.21v-12.63Z"/><path class="cls-4" d="M29.48,54.73h29.48v4.19c-.69,.04-1.39,.01-2.08,.02-.7,0-1.4,0-2.11,0v4.2h-4.21v4.2H16.85v-4.18h-4.2v-4.19c-.71-.04-1.4-.02-2.1-.02-.7,0-1.4,0-2.13,0v-4.21h8.42v4.19h8.43v-4.19h4.21Z"/><path class="cls-1" d="M0,25.25H25.27v12.63c-.73,0-1.43,0-2.13,0-.69,0-1.39-.01-2.08,.01v4.2H12.64c-.01-.69,0-1.39,0-2.08,0-.7,0-1.4,0-2.12h-4.2v-4.22H4.22v-4.22H0v-4.21Z"/><path class="cls-1" d="M12.63,54.73H4.22c-.01-.69,0-1.39,0-2.08,0-.7,0-1.4,0-2.11H.02v-8.42H4.2v4.19h4.22v4.22h4.22v4.21Z"/><path class="cls-1" d="M25.27,46.31h-4.21v-4.21h4.21v4.21Z"/><path class="cls-1" d="M25.27,50.52v-4.21h4.21v4.21h-4.21Z"/><path class="cls-1" d="M25.27,54.73h-4.16c-.08-.43-.1-2.77-.04-4.21h4.19v4.21Z"/><path class="cls-3" d="M29.48,50.52v-4.21h-4.21v-4.21h-4.21v-4.2c.69-.03,1.39,0,2.08-.01,.7,0,1.4,0,2.13,0V21.04h4.21v16.84h4.21v4.21h16.84v4.15s-.02,.03-.03,.04c-.01,0-.03,.02-.04,.02-5.57,0-11.14,0-16.75,0v4.21h-4.23Z"/><path class="cls-3" d="M33.69,16.83v-4.16c.47-.08,14.93-.11,16.84-.04v4.19h-16.84Z"/><path class="cls-3" d="M58.96,25.25v12.63h-4.21V21.04h4.21v4.21Z"/><path class="cls-3" d="M29.48,21.04v-4.21h4.21v4.21h-4.21Z"/><path class="cls-3" d="M50.53,16.83h4.21v4.21h-4.21v-4.21Z"/><path class="cls-3" d="M54.74,37.88v4.21h-4.21v-4.21h4.21Z"/><path class="cls-3" d="M25.27,54.73v-4.21h4.21v4.21h-4.21Z"/><path class="cls-1" d="M50.53,37.88v4.21h-16.84v-4.21h16.84Z"/><path class="cls-1" d="M33.69,37.88h-4.21v-12.63h4.21v12.63Z"/><path class="cls-2" d="M33.69,25.25h-4.21v-4.21h4.21v4.21Z"/><path class="cls-2" d="M50.53,16.83v4.21h-16.84v-4.21h16.84Z"/><path class="cls-1" d="M54.74,37.88h-4.21v-12.63h4.21v12.63Z"/><path class="cls-2" d="M54.74,25.25h-4.21v-4.21h4.21v4.21Z"/><path class="cls-3" d="M50.53,21.04v16.84h-16.84V21.04h16.84Z"/></g></svg>