<?xml version="1.0" encoding="UTF-8"?><svg id="Layer_2" xmlns="http://www.w3.org/2000/svg" viewBox="0 0 104.9 112.95"><defs><style>.cls-1{fill:#797979;}.cls-2{fill:#995052;}.cls-3{fill:#fddfc4;}.cls-4{fill:#cc814d;}.cls-5{fill:#f7c29e;}.cls-6{fill:#2e1e1a;}.cls-7{fill:#fcfcfc;}</style></defs><g id="Layer_3"><path class="cls-6" d="M70.9,45v-10.81h-6.83v-2.94h-11.02v2.52h-8.07c-.04-.75-.09-1.54-.14-2.31-1.3-.46-2.59-.91-3.85-1.36v-4.1h3.91v4h7c1.93-.47,.62-2.02,1-3v-1h11v4h8v4h3v11h-4Z"/><path class="cls-6" d="M93.9,101v3.81c-.73,.08-1.49,.16-2.51,.28-.59,1.18-1.26,2.52-1.94,3.89h-21.38c-.45-1.03-.99-2.27-1.65-3.79h-9.29c-.11,1.01-.24,2.24-.41,3.82h-3.81c-.11-.61-.18-1.23-.34-1.82-.19-.73-.44-1.45-.66-2.18h3.86c.12-1.43,.17-2.55,.33-3.65,.02-.15,.53-.24,.81-.35h10.8c.18,1.56,.31,2.8,.45,4h21.56c.17-1.55,.3-2.79,.43-4h3.75Z"/><path class="cls-6" d="M48.9,4V.02c7.53-.04,15.07,0,22.81-.02V3.86c1.91,.05,3.65,.12,5.4,.14,1.81,.02,3.61,0,5.6,0v2.81h7.18v4.19c-1.45-.12-2.82,.05-4,1-.96-.46-1.92-.92-2.89-1.39-.09-.78-.18-1.56-.3-2.63h-10.42c-.72-1.57-1.28-2.8-1.81-3.98h-21.58Z"/><path class="cls-6" d="M7.9,97h-3.79c-.52-3.17,.02-6.44-.32-9.62-1.29-.6-2.54-1.18-3.8-1.77v-7.49H3.75v-18.12H7.9v19H3.9v7H7.9v11Z"/><path class="cls-6" d="M18.9,52v-3.48c.11-.12,.21-.26,.34-.35,.12-.08,.28-.16,.43-.16,8.27,0,16.55,0,25.23,0,.46,1.25,.94,2.55,1.47,4h6.54v4h-7.84c-.12-1.11-.2-1.89-.29-2.77-4.16-.41-8.29-.99-12.43-1.19-4.47-.21-8.96-.05-13.44-.05Z"/><path class="cls-6" d="M52.9,109v2.52c-.46,.44-.94,.89-1.5,1.43H26.91c-.43-1.04-.89-2.18-1.54-3.78h-6.47v-4.17h7c.33,.33,.67,.67,1,1v1c1.08,1.89,2.89,2.01,4.79,2.01,6.07-.02,12.14,0,18.21,0h3Z"/><path class="cls-6" d="M89.9,11h3.86c.05,1.71,.11,3.46,.14,5.2,.02,1.8,0,3.6,0,5.74h4v19.06h-4c-.12-6,.26-12.02-.21-18h-3.79V11Z"/><path class="cls-6" d="M100.9,56h3.53c.1,.1,.23,.21,.31,.35,.08,.13,.15,.29,.15,.43,0,8.29,0,16.58,0,25.22h-4v-26Z"/><path class="cls-6" d="M44.9,6v-2h4v4h-4v15c-1.42-.06-3.06,.52-3.92-2.13V8.34c.5-1.18,2.72,.76,2.92-1.34,.33-.33,.67-.67,1-1Z"/><path class="cls-6" d="M52.9,56h3.72c.14,.86,.28,1.76,.46,2.83h2.54c.13-.7,.29-1.6,.51-2.83h3.76v4h-2.52c-.54,1.36-.8,2.43-1.35,3.32-.74,1.2-2.06,.53-3.13,.68h-1v-3.78c-1.24-.21-2.14-.37-3-.51v-3.71Z"/><path class="cls-6" d="M7.9,60v-3.84c1.04-.1,1.82-.17,2.57-.24,.43-1.27,.87-2.55,1.33-3.91h7.09v4.18h-7v3.82H7.9Z"/><path class="cls-6" d="M18.9,105h-6.81c-.46-1.02-1.01-2.23-1.74-3.84-.38-.06-1.28-.2-2.45-.39v-3.77h3.86c.12,1.51,.21,2.74,.32,4.07h6.82v3.93Z"/><path class="cls-6" d="M97.9,41h2.92c.18,2.51,.05,5.07,.07,7.62,.02,2.46,0,4.92,0,7.38h-3v-15Z"/><path class="cls-6" d="M100.9,82v12h-3v-12h3Z"/><path class="cls-6" d="M97.9,94v7h-4v-7h4Z"/><path class="cls-6" d="M63.9,56v-7h4v7h-4Z"/><path class="cls-6" d="M44.9,26v-3h8v3h-8Z"/><path class="cls-6" d="M67.9,49v-4h3v3c-.33,.33-.67,.67-1,1h-2Z"/><path class="cls-5" d="M44.9,6c-.33,.33-.67,.67-1,1,.33-.33,.67-.67,1-1Z"/><path class="cls-5" d="M70.9,48v-3h4v-15h7.9v4.04h-3.79v6.52c1.44,.56,2.73,1.05,3.71,1.43v5.67c-.52,.52-.87,.87-1.39,1.39h-9.33v13.33l-1.75,1.75h-6.1v7.04h3.62c.38,3.71-.21,7.32,.37,11.02h2.39c.53,2.7,1.01,5.16,1.48,7.57,1.09,.2,2,.37,2.72,.5v3.73c-1.97,0-3.78,.02-5.59,0-1.76-.02-3.52-.09-5.43-.15v-3.75h-17.38c-.53,1.41-1.01,2.7-1.51,4.02h-10.78c-.13,1.4-.24,2.65-.35,3.87h-2.4c-1.14,1.75-2.57,3.33-4.4,4.37v2.63h-8v-3.93h-6.82c-.1-1.33-.2-2.56-.32-4.07h-3.86v-11h11v4c8.64,0,16.93,0,25.22,0,.15,0,.3-.07,.43-.15,.14-.09,.25-.22,.35-.31,0-1.2,0-2.36,.08-3.59,2.51-.07,5.1-.07,7.71-.07v-3.77h-7.63c0,1.36,0,2.63-.08,3.84-8.74,.07-17.41,.07-26.08,.07v-3.84c-1.13-.12-1.91-.21-3.09-.34,.51-1.78-.04-3.17-1.92-3.86-.63,.33-1.31,.68-1.99,1.04H7.9v-19h4v4.06c2.63-.43,3.9,.72,4.36,2.64,2.22,.52,4.34,1.01,6.42,1.5,.18,1,.35,1.91,.54,2.93h10.54c.12,1.37,.22,2.62,.31,3.73h10.7c.1-1.36,.19-2.6,.29-3.99h3.78v-5.28c.64-.67,1.1-1.14,1.53-1.6h2.52v14.75c1.2,.22,2.11,.39,3.16,.58v2.7c1.41-.08,2.64-.15,3.66-.2v-3.7c-.96-.11-1.75-.2-2.82-.32v-13.82c1.07-.15,2.39,.51,3.13-.68,.55-.89,.81-1.95,1.35-3.32h6.52v-11h2c.33-.33,.67-.67,1-1ZM15.99,97c2.69,0,5.3,.02,7.91,0,1.84-.02,1.84-.04,1.79-2.82H15.99v2.82Zm47.81-13.83h-3.82v2.65h3.82v-2.65Z"/><path class="cls-5" d="M71.9,30h-8v-4h11v4h-3Z"/><path class="cls-5" d="M52.9,26v-3c1.79,0,3.59-.04,5.38,.01,1.88,.05,3.8-.25,5.62,.26v2.73h-11Z"/><path class="cls-5" d="M44.9,26h8v1c-1.93,.47-.62,2.02-1,3h-7v-2c.28-.11,.55-.22,.83-.33-.28-.22-.55-.45-.83-.67v-1Z"/><path class="cls-4" d="M71.9,30h3v4h-3v-4Z"/><path class="cls-1" d="M51.9,30c.38-.98-.93-2.53,1-3-.38,.98,.93,2.53-1,3Z"/><path class="cls-1" d="M44.9,27c.28,.22,.55,.45,.83,.67-.28,.11-.55,.22-.83,.33v-1Z"/><path class="cls-3" d="M63.9,26v-2.73c-1.81-.51-3.73-.2-5.62-.26-1.79-.05-3.59-.01-5.38-.01v-3.8c-1.57-.17-2.8-.31-4-.44v-3.75h4.07v-3.87c1.07-.1,1.84-.18,2.57-.25,.47-1,.92-1.94,1.36-2.88h7V4h6.58c.53,1.17,1.1,2.41,1.81,3.98h10.42c.12,1.08,.21,1.86,.3,2.63,.97,.47,1.93,.93,2.89,1.39v11h4c.12,6-.26,12.02,.21,18h3.79v3.81c-1.58,.17-2.81,.3-3.8,.4v3.7c1.31,.07,2.43,.13,3.89,.21v7.79c1.13,.08,1.92,.14,2.68,.19v9.75h-2.93v-6.66h-3.83c0,8.47,0,16.76,0,25.05,0,.14-.08,.3-.16,.43-.09,.13-.23,.23-.55,.52h-3.32v7.74c-.94,.05-1.73,.09-2.3,.12-1.9,1.98-1.7,4.43-1.65,6.71-1.23,.23-2.14,.41-3.02,.57v3.68h-10.75c-.14-1.2-.27-2.44-.45-4h-10.8c0-1.45,.26-2.99-1.24-3.75h-6.6v3.34c1.2,.47,2.27,.73,3.16,1.28,1.2,.74,.54,2.07,.69,3.14H26.9v-2.63c1.82-1.05,3.26-2.62,4.4-4.37h2.4c.11-1.22,.22-2.47,.35-3.87h10.78c.49-1.32,.98-2.61,1.51-4.02h17.38v3.75c1.91,.05,3.67,.12,5.43,.15,1.81,.02,3.61,0,5.59,0v-3.73c-.72-.13-1.63-.3-2.72-.5-.47-2.41-.95-4.87-1.48-7.57h-2.39c-.57-3.7,0-7.3-.37-11.02h-3.62v-7.04h6.1l1.75-1.75v-13.33h9.33c.52-.52,.87-.87,1.39-1.39v-5.67c-.98-.38-2.27-.88-3.71-1.43v-6.52h3.79v-4.04h-3.9v-6.46c-1.36-1.54-2.49-2.3-4-1.02v3.48h-11Zm-3.82-11.16h3.85c-.06-1.4-.12-2.62-.17-3.7h-5.5c-.49,.49-.84,.84-1.13,1.13v6.78c2.63-.18,2.8-1.93,2.95-4.22Z"/><path class="cls-5" d="M78.9,105v-3.68c.88-.17,1.79-.34,3.02-.57-.05-2.27-.24-4.73,1.65-6.71,.57-.03,1.36-.07,2.3-.12v-7.74h3.32c.31-.29,.46-.39,.55-.52,.08-.12,.16-.28,.16-.43,0-8.29,0-16.58,0-25.05h3.83v6.66h2.93v-9.75c-.76-.05-1.55-.11-2.68-.19v-7.79c-1.46-.08-2.58-.14-3.89-.21v-3.7c1-.11,2.23-.24,3.8-.4v-3.81h4v15h3v23h-3v-8c-.9,0-1.53-.02-2.15,0-.61,.03-1.21,.11-1.85,.17,0,2.23-.04,4.19,.01,6.16,.05,1.9-.25,3.83,.25,5.66h3.74v11h-4v7h-3.75c-.13,1.21-.27,2.45-.43,4h-10.81Z"/><path class="cls-5" d="M26.9,105h25c.22,.72,.48,1.44,.66,2.18,.15,.6,.23,1.22,.34,1.82h-3v-2H26.9v-2Z"/><path class="cls-5" d="M52.9,105c-.15-1.07,.51-2.4-.69-3.14-.89-.55-1.96-.81-3.16-1.28v-3.34h6.6c1.5,.76,1.25,2.3,1.24,3.75-.28,.12-.79,.2-.81,.35-.16,1.1-.22,2.21-.33,3.65h-2.86Z"/><path class="cls-7" d="M63.9,4v4h-15V4h15Z"/><path class="cls-5" d="M89.9,23h-4V12c1.18-.95,2.55-1.12,4-1v12Z"/><path class="cls-3" d="M7.9,79h4v3.77c1.23,.22,2.13,.38,3,.53v2.69H7.9v-4H3.9v-3H7.9Z"/><path class="cls-5" d="M3.9,82H7.9v4H3.9v-4Z"/><path class="cls-3" d="M52.9,64h-2.52c-.44,.46-.89,.93-1.53,1.6v5.28h-3.78c-.1,1.39-.19,2.63-.29,3.99h-10.7c-.09-1.11-.2-2.36-.31-3.73h-10.54c-.19-1.02-.36-1.93-.54-2.93-2.09-.49-4.2-.98-6.42-1.5-.47-1.92-1.74-3.07-4.36-2.64v-7.88h7v-4.18c4.48,0,8.97-.16,13.44,.05,4.14,.19,8.27,.77,12.43,1.19,.09,.88,.18,1.66,.29,2.77h7.84v3.71c.86,.15,1.76,.3,3,.51v2.78c-.33,.33-.67,.67-1,1h-2Z"/><path class="cls-3" d="M26.9,107h23v2c-6.07,0-12.14-.01-18.21,0-1.9,0-3.7-.11-4.79-2.01Z"/><path class="cls-2" d="M26.9,105v1c-.33-.33-.67-.67-1-1h1Z"/><path class="cls-5" d="M93.9,41h-3.79c-.46-5.98-.09-12-.21-18h3.79c.46,5.98,.09,12,.21,18Z"/><path class="cls-3" d="M97.9,79h3v3h-3v-3Z"/><path class="cls-5" d="M48.9,15v3.75c1.2,.13,2.43,.27,4,.44v3.8h-8V15h4Z"/><path class="cls-3" d="M48.9,15h-4v-7h4v7Z"/><path class="cls-4" d="M52.9,64h4v13.82c1.07,.12,1.86,.21,2.82,.32v3.7c-1.02,.06-2.25,.12-3.66,.2v-2.7c-1.05-.19-1.96-.36-3.16-.58v-14.75Z"/><path class="cls-3" d="M67.9,56v4h-4v-4h4Z"/><path class="cls-5" d="M55.9,64h-1c.33-.33,.67-.67,1-1v1Z"/><path class="cls-4" d="M97.9,79v4h-3.74c-.5-1.83-.2-3.77-.25-5.66-.05-1.96-.01-3.93-.01-6.16,.64-.06,1.24-.15,1.85-.17,.63-.03,1.25,0,2.15,0v8Z"/><path class="cls-2" d="M70.9,48c-.33,.33-.67,.67-1,1,.33-.33,.67-.67,1-1Z"/><path class="cls-4" d="M44.9,86v3.53c-.1,.1-.21,.23-.35,.31-.13,.08-.29,.15-.43,.15-8.29,0-16.58,0-25.22,0v-4h26Z"/><path class="cls-4" d="M14.9,86v-2.69c-.87-.15-1.77-.31-3-.53v-3.77c.68-.35,1.36-.71,1.99-1.04,1.88,.69,2.43,2.07,1.92,3.86,1.18,.13,1.96,.21,3.09,.34v3.84h-4Z"/><path class="cls-4" d="M45.05,85.87v-3.77h7.63v3.77h-7.63Z"/><path class="cls-4" d="M74.9,26v-3.48c1.51-1.28,2.64-.51,4,1.02v6.46h-4v-4Z"/><path class="cls-3" d="M15.99,97v-2.82h9.71c.05,2.78,.05,2.8-1.79,2.82-2.61,.02-5.22,0-7.91,0Z"/><path class="cls-4" d="M63.81,83.18v2.65h-3.82v-2.65h3.82Z"/><path class="cls-5" d="M48.9,15v-7h8c-.45,.94-.89,1.89-1.36,2.88-.73,.07-1.5,.14-2.57,.25v3.87h-4.07Z"/><path class="cls-5" d="M60.08,14.84c-.15,2.28-.32,4.03-2.95,4.22v-6.78c.29-.29,.64-.64,1.13-1.13h5.5c.05,1.08,.11,2.3,.17,3.7h-3.85Z"/></g></svg>