<?xml version="1.0" encoding="UTF-8"?><svg id="Layer_2" xmlns="http://www.w3.org/2000/svg" viewBox="0 0 61.75 65.84"><defs><style>.cls-1{fill:#00fefe;}.cls-2{fill:#fe0000;}</style></defs><g id="Layer_3"><path d="M32.92,0h10.29V4.12h2.06v2.05h2.05v2.07h2.07v2.04h2.05v2.06h2.06v2.06h6.17v10.29h-6.17v-2.06h-6.17v-2.06c-1.37,0-2.69,0-4.02,0-.02,0-.04,.01-.05,.02-.02,.01-.03,.03-.06,.07v28.73h-2.06v4.1c-.36,0-.7,0-1.04,0-.33,0-.67-.01-1.02,0v2.05h-2.04v2.06h-2.06v2.06h-2.04c0,.36,0,.7,0,1.04,0,.33,.03,.67-.02,1.02h-6.15c0,.36,0,.7,0,1.04,0,.33,.01,.67,0,.99h-10.28v-2.06h-4.11v-2.06h-2.06v-2.06h-2.06v-2.06h-2.06v-4.11h-2.06v-14.4c.38,0,.72,0,1.06,0,.33,0,.67,.03,1.02-.02v-4.1h2.04v-2.06h2.06v-2.06h2.06v-2.06h4.1c0-.36,0-.7,0-1.04,0-.33-.01-.67,0-1h8.22v8.23c-2.74,0-5.44,0-8.13,0-.02,0-.04,.01-.05,.02-.02,.01-.03,.03-.07,.07v1.97h-2.04v4.12h-2.02v8.23h2.03c0,.36,0,.7,0,1.04,0,.33-.03,.67,.02,1h2.04v2.06h2.06v2.06h4.12v2.04h6.18v-2.06h2.06v-2.06h2.04V0Z"/><path class="cls-2" d="M47.32,22.63h-2s-.03,.03-.04,.05c-.01,.02-.02,.04-.02,.06,0,10.24,0,20.47,0,30.74h-1.96s-.06,.05-.07,.07c-.01,.02-.02,.04-.02,.05,0,1.33,0,2.65,0,4h-2.04v2.06h-2.06v2.06h-2.06v2.06h-4.12v2.06H16.46v-2.06h10.28c.02-.33,0-.66,0-.99,0-.34,0-.68,0-1.04h6.15c.05-.35,.01-.69,.02-1.02,0-.34,0-.68,0-1.04h2.04v-2.06h2.06v-2.06h2.04v-2.05c.35-.02,.69,0,1.02,0,.34,0,.68,0,1.04,0v-4.1h2.06V20.67s.04-.06,.06-.07c.02-.01,.04-.02,.05-.02,1.33,0,2.65,0,4.02,0v2.06Z"/><path class="cls-1" d="M18.52,51.44h8.23v-2.04h2.04c.05-.35,.01-.69,.02-1.02,0-.34,0-.68,0-1.04h2.06V0h2.06V51.42h-2.04v2.06h-2.06v2.06h-6.18v-2.04h-4.12v-2.06Z"/><path class="cls-1" d="M0,39.09H2s.03-.03,.04-.04c.01-.02,.02-.04,.02-.06,0-2.01,0-4.02,0-6.05h2.04v-4.12h2.06v-2.06h2.06v-2.06h4.1v-1.96s.05-.06,.07-.07c.02-.01,.04-.02,.05-.02,2.01,0,4.02,0,6.05,0v-1.99c.56-.1,4.32-.13,6.2-.05v4.09h-8.22c-.02,.33,0,.66,0,1,0,.34,0,.68,0,1.04h-4.1v2.06h-2.06v2.06h-2.06v2.06h-2.04v4.1c-.35,.05-.69,.01-1.02,.02-.34,0-.68,0-1.06,0v14.4H2.06c0-2.05,0-4.06,0-6.07,0-.02,0-.04-.02-.06-.01-.02-.03-.03-.05-.04H0v-6.17Z"/><path class="cls-2" d="M45.26,0V2.04c.33,.05,.66,.01,1,.02,.34,0,.68,0,1.06,0V6.17h-2.05v-2.05h-2.06V0h2.06Z"/><path class="cls-2" d="M24.69,24.69h4.04c.11,.55,.14,8.06,.06,12.33h-10.26v2.06h-2.07v10.3h-2.04c-.04-.33-.01-.67-.02-1,0-.34,0-.68,0-1.04h-2.03v-8.23h2.02v-4.12h2.04v-1.97s.05-.06,.07-.07c.02-.01,.04-.02,.05-.02,2.7,0,5.39,0,8.13,0v-8.23Z"/><path class="cls-2" d="M59.67,16.46h1.99c.1,.54,.13,5.82,.06,10.26h-8.22v-2.03h6.17v-8.23Z"/><path class="cls-1" d="M53.49,12.34h6.17v2.06h-6.17v-2.06Z"/><path class="cls-2" d="M53.49,24.69h-6.17v-2.06h6.17v2.06Z"/><path class="cls-1" d="M6.17,55.55h-2.06v-4.11h2.06v4.11Z"/><path class="cls-2" d="M16.46,63.78h-4.11v-2.06h4.11v2.06Z"/><path class="cls-1" d="M51.44,10.29h2.06v2.06h-2.06v-2.06Z"/><path class="cls-1" d="M8.23,57.61h-2.06v-2.06h2.06v2.06Z"/><path class="cls-2" d="M12.34,61.72h-2.06v-2.06h2.06v2.06Z"/></g></svg>