<?xml version="1.0" encoding="UTF-8"?><svg id="Layer_2" xmlns="http://www.w3.org/2000/svg" viewBox="0 0 102.47 153.22"><defs><style>.cls-1{fill:#565656;}.cls-2{fill:#2e2e2e;}</style></defs><g id="Layer_3"><path class="cls-1" d="M96.74,37v110H6.2c-.09-.1-.21-.21-.3-.35-.08-.13-.16-.29-.16-.43,0-36.41,0-72.82,0-109.22H23.76v103.8h6.04V37.22h13.04v103.54h5.05V37c2.31,0,4.45-.04,6.59,.01,2.09,.05,4.22-.26,6.43,.28v103.6h5.88V37.13h12.04v103.71h5.89c0-34.45,0-68.75,0-103.05,0-.15,.07-.31,.15-.43,.09-.14,.23-.24,.34-.36h11.51Z"/><path class="cls-2" d="M96.74,37h-11.51c-.11,.11-.25,.22-.34,.36-.08,.13-.15,.29-.15,.43,0,34.3,0,68.6,0,103.05h-5.89V37.13h-12.04v103.76h-5.88V37.29c-2.21-.54-4.34-.23-6.43-.28-2.14-.05-4.29-.01-6.59-.01v103.76h-5.05V37.22h-13.04v103.58h-6.04V37H0v-6H102.47v6h-5.74Z"/><path class="cls-1" d="M97.74,31H4.74v-5.51c.47-.46,.94-.93,1.6-1.58h5.34v-5.87H29.71V6h6.02v12c10.3,0,20.26,0,30.23,0,.14,0,.31-.08,.43-.16,.13-.09,.23-.23,.34-.35V6h5.88c.04,1.91,.1,3.85,.12,5.78,.02,1.97,0,3.95,0,6.08h17.89v6.05h5.53c.53,.53,.88,.88,1.58,1.58v5.5Z"/><path class="cls-2" d="M11.74,147H90.74v5.49c-4.38,.75-61.95,1.01-79,.34v-5.84Z"/><path class="cls-1" d="M35.74,6V.47c.1-.09,.21-.22,.35-.31,.13-.08,.29-.15,.43-.15C46.47,0,56.43,0,66.74,0V6h-31Z"/></g></svg>