<?xml version="1.0" encoding="UTF-8"?><svg id="Layer_2" xmlns="http://www.w3.org/2000/svg" viewBox="0 0 95.18 68.08"><defs><style>.cls-1{fill:#fdfefe;}.cls-2{fill:#e4e6e8;}.cls-3{fill:#2c80c0;}</style></defs><g id="Layer_3"><path class="cls-1" d="M18.99,57.56H6.38c-.03-.83-.01-1.67-.01-2.5,0-.82,0-1.65,0-2.5-.1-.06-.22-.14-.41-.26H0V15.8s.1-.09,.17-.14H6.16c.07-.12,.15-.24,.24-.39-.09-.03-.16-.05-.24-.08,0,0-.03-.04-.02-.06,.03-.06,.09-.12,.09-.19,.04-.41-.08-.82,.13-1.22,.04-.07,0-.18-.05-.25-.17-.28-.13-.58-.04-.84,.06-.18,.09-.34,.09-.51,.01-.53,0-1.06,0-1.57,.06-.05,.11-.09,.18-.15h12.44V5.24h.7c5.83,0,11.66,0,17.48,0,.27,0,.54-.05,.82-.08V0h19.02s.09,.08,.12,.11c-.04,.21-.1,.38-.1,.54,0,1.11,0,2.23,0,3.35,0,.14-.06,.28,.11,.41,.05,.04,.04,.19-.01,.25-.22,.21-.08,.39,.04,.58h-19.15v5.27H18.99v5.14H6.77c-.19,.08-.3,.13-.39,.17V52.29c4.18,0,8.35,0,12.51,0,.02,0,.04,0,.06,.02,.02,0,.03,.02,.05,.04v5.21Z"/><path class="cls-1" d="M57.16,5.24h31.64v5.1c.26,.16,.53,.17,.81,.17,1.79,0,3.59,0,5.38,0,.06,.05,.12,.1,.19,.16V57.4l-.19,.16h-6.18c0-15.66,0-31.31,0-46.97,0-.02,0-.03-.02-.05-.01-.02-.03-.03-.05-.04-.07,0-.13,0-.2,0-.04-.04-.09-.07-.13-.11h-.66c-.1,.02-.25-.05-.27,.11h-30.05s-.09-.07-.13-.11c-.04-.05-.13-.09-.13-.14-.01-.32,0-.64,0-.96V5.24Z"/><path class="cls-1" d="M88.81,57.56v5.21s-.03,.03-.04,.04c-.02,0-.04,.02-.06,.02-10.45,0-20.9,0-31.35,0-.07,.06-.13,.11-.2,.16,0,1.55,0,3.1,0,4.65,0,.16,.05,.34-.22,.44h-18.74c-.05-.04-.1-.08-.19-.16v-5.1h18.34c.16,0,.31,.02,.46,0,.12-.02,.23-.08,.35-.12v-5.14h31.64Z"/><path class="cls-1" d="M38.01,62.82H18.99v-5.26h19.02v5.26Z"/><path class="cls-3" d="M38.01,62.82v-5.26H18.99v-5.21s-.03-.03-.05-.04c-.02,0-.04-.02-.06-.02-4.16,0-8.32,0-12.51,0V15.81c.09-.04,.2-.09,.39-.17h12.21v-5.14h19.02V5.24h19.15v.22s-.13,.06-.13,.09c0,1.22,0,2.44,0,3.67,0,.03,.08,.06,.13,.09,0,.32,0,.64,0,.96,0,.05,.08,.09,.13,.14,.04,.04,.09,.07,.13,.11h30.05c.1-.02,.25,.05,.27-.11h.66s.09,.07,.13,.11c.07,0,.13,0,.2,0,.02,.01,.03,.02,.05,.04,.01,.01,.02,.03,.02,.05,0,15.66,0,31.31,0,46.97h-31.64v5.14c-.12,.04-.23,.11-.35,.12-.15,.02-.31,0-.46,0h-18.34Zm-12.63-26.21h6.38v10.4c1.89,.07,5.71,.04,6.25-.04,0-3.45,0-6.91,.02-10.38h6.34v-15.65h-6.34c0,5.23,0,10.45-.02,15.67h-6.25v-15.02c0-.13,.02-.26,0-.38-.02-.1-.09-.19-.14-.27h-6.24v15.67h-6.4v-15.66h-6.36c-.1,4.23-.05,15.17,.06,15.66h6.31v10.51c1.93,.07,5.83,.05,6.38-.04v-10.47ZM82.42,15.77s-.07-.1-.11-.1c-.18-.01-.35,0-.53,0h-24.76V51.82c0,.13,0,.26,0,.38,0,.03,.08,.06,.13,.09h25.27V15.77Z"/><path class="cls-2" d="M57.16,9.3s-.13-.06-.13-.09c0-1.22,0-2.44,0-3.67,0-.03,.08-.06,.13-.09v3.84Z"/><path class="cls-2" d="M87.74,10.39c-.01,.16-.17,.09-.27,.11,.01-.16,.17-.09,.27-.11Z"/><path class="cls-2" d="M57.42,10.5s-.09-.07-.13-.11c.04,.04,.09,.07,.13,.11Z"/><path class="cls-2" d="M88.54,10.5s-.09-.07-.13-.11c.04,.04,.09,.07,.13,.11Z"/><path class="cls-1" d="M82.42,15.77V52.29h-25.27v-5.16h18.82c.09-.08,.16-.14,.24-.21-.24-.35-.27-.73-.14-1.06,.18-.47,.09-.93,.08-1.39,0-.48,.12-.96-.09-1.44-.09-.22-.1-.49,.04-.73,.06-.12,.05-.27,.07-.44h-19.01v-5.27h19.04c-.07-.28-.15-.52-.17-.76-.03-.25,0-.51,0-.77v-3.73h-18.86v-5.16h18.8c.07-.06,.12-.09,.18-.15v-4.95c-.07-.06-.13-.12-.2-.18h-18.79v-5.14h25.25Z"/><path class="cls-2" d="M82.42,15.77h-25.25v5.14h18.79c.07,.07,.13,.12,.2,.18v4.95c-.06,.05-.11,.09-.18,.15h-18.8v5.16h18.86v3.73c0,.26-.02,.51,0,.77,.03,.24,.11,.48,.17,.76h-19.04v5.27h19.01c-.03,.17,0,.32-.07,.44-.13,.25-.13,.52-.04,.73,.21,.48,.08,.97,.09,1.44,0,.46,.09,.92-.08,1.39-.12,.33-.09,.7,.14,1.06-.08,.07-.15,.14-.24,.21h-18.82v5.16s-.12-.06-.13-.09c-.01-.13,0-.26,0-.38V15.66h24.76c.18,0,.35,0,.53,0,.04,0,.07,.07,.11,.1Z"/><path class="cls-1" d="M18.98,36.61h-6.29c-.12-.49-.16-11.43-.06-15.66h6.36v15.66Z"/><path class="cls-1" d="M38.03,36.59v-15.65h6.34v15.65h-6.34Z"/><path class="cls-1" d="M31.76,36.61h-6.38v-15.67h6.24c.05,.09,.12,.18,.14,.27,.02,.12,0,.25,0,.38v15.02Z"/><path class="cls-1" d="M25.38,36.61v10.47c-.55,.08-4.45,.11-6.38,.04v-10.51h6.38Z"/><path class="cls-1" d="M31.76,36.61h6.25v10.36c-.54,.08-4.36,.11-6.25,.04v-10.4Z"/></g></svg>